<svg width="24" height="24" viewBox="0 0 24 24" fill="none" xmlns="http://www.w3.org/2000/svg">
<circle cx="12" cy="12" r="12" fill="#E6AD42"/>
<path d="M13.12 5.848L12.944 13.848H11.728L11.552 5.848H13.12ZM12.4 17.096C12.1227 17.096 11.888 17 11.696 16.808C11.504 16.616 11.408 16.3813 11.408 16.104C11.408 15.8267 11.504 15.592 11.696 15.4C11.888 15.208 12.1227 15.112 12.4 15.112C12.6667 15.112 12.8907 15.208 13.072 15.4C13.264 15.592 13.36 15.8267 13.36 16.104C13.36 16.3813 13.264 16.616 13.072 16.808C12.8907 17 12.6667 17.096 12.4 17.096Z" fill="white"/>
</svg>
