<svg width="20" height="20" viewBox="0 0 20 20" fill="none" xmlns="http://www.w3.org/2000/svg">
<g clip-path="url(#clip0_773_6390)">
<path d="M18.4748 0.2748C18.3877 0.187681 18.2843 0.118572 18.1706 0.0714204C18.0568 0.0242691 17.9348 0 17.8117 0C17.6885 0 17.5665 0.0242691 17.4528 0.0714204C17.339 0.118572 17.2356 0.187681 17.1485 0.2748L13.1998 4.22355C12.1618 3.90937 11.0831 3.75015 9.99854 3.75105C5.63729 3.75105 1.85604 6.29105 -0.00146484 10.0011C0.795537 11.5934 1.95232 12.9783 3.37729 14.0461L0.272285 17.1511C0.101427 17.3278 0.00681882 17.5646 0.00883817 17.8104C0.0108575 18.0562 0.109343 18.2914 0.283081 18.4653C0.45682 18.6392 0.691912 18.7379 0.937721 18.7401C1.18353 18.7424 1.42039 18.648 1.59729 18.4773L18.4723 1.6023C18.5594 1.51524 18.6285 1.41186 18.6757 1.29808C18.7228 1.1843 18.7471 1.06234 18.7471 0.939175C18.7471 0.81601 18.7228 0.694052 18.6757 0.58027C18.6285 0.466489 18.5594 0.363113 18.4723 0.27605L18.4748 0.2748ZM8.12479 6.2498C8.51686 6.24974 8.89909 6.3726 9.21771 6.60108C9.53633 6.82956 9.77531 7.15218 9.90104 7.52355L7.52354 9.90105C7.10235 9.75867 6.74546 9.47125 6.51657 9.09009C6.28768 8.70893 6.20168 8.25884 6.27392 7.82015C6.34616 7.38145 6.57194 6.9827 6.91096 6.69506C7.24998 6.40742 7.68018 6.24961 8.12479 6.2498ZM2.15104 9.9998C2.94527 8.74122 4.02431 7.68702 5.30104 6.9223C5.10104 7.47064 4.99907 8.04988 4.99978 8.63355C4.99978 9.70605 5.33729 10.6986 5.91228 11.5123L4.72229 12.7023C3.69557 11.9796 2.82175 11.0612 2.15104 9.9998ZM14.9998 8.6323C14.9998 8.1023 14.9173 7.59105 14.7635 7.11105L8.47853 13.3961C9.22823 13.6355 10.0239 13.6946 10.8007 13.5685C11.5775 13.4425 12.3136 13.1348 12.9492 12.6706C13.5847 12.2063 14.1016 11.5986 14.4579 10.8969C14.8143 10.1952 14.9999 9.4193 14.9998 8.6323Z" fill="#989898"/>
<path d="M16.2112 5.66357L14.8562 7.01857L14.93 7.06482C16.105 7.81482 17.1012 8.81857 17.8487 9.99982C17.1035 11.181 16.1069 12.1831 14.93 12.9348C13.8793 13.6061 12.7027 14.0558 11.4722 14.2564C10.2416 14.4569 8.98311 14.4041 7.77371 14.1011L6.27246 15.6023C7.46829 16.0316 8.72941 16.2507 9.99996 16.2498C14.3612 16.2498 18.1425 13.7098 20 9.99982C19.1279 8.2547 17.8236 6.76189 16.2112 5.66357Z" fill="#989898"/>
</g>
<defs>
<clipPath id="clip0_773_6390">
<rect width="20" height="20" fill="white"/>
</clipPath>
</defs>
</svg>
