<svg width="32" height="32" viewBox="0 0 32 32" fill="none" xmlns="http://www.w3.org/2000/svg">
<path d="M31.6027 15.673C31.2379 15.0411 30.6466 14.5884 29.9377 14.3984C29.2288 14.2085 28.4903 14.3047 27.8584 14.6696L20.3753 18.9898C20.3437 18.5493 20.2131 18.117 19.9863 17.7205C19.5899 17.0275 18.9507 16.5313 18.1864 16.3233L9.83526 14.0503C9.81369 14.0444 9.79176 14.04 9.76957 14.037C8.52669 13.8726 7.39238 14.1754 6.39757 14.9373L4.08901 16.7052L3.97076 16.2639C3.85457 15.8303 3.45951 15.5275 3.01026 15.5275C2.92388 15.5275 2.83769 15.5389 2.75394 15.5613L0.76707 16.0938C0.511195 16.1623 0.29707 16.3268 0.164195 16.5569C0.0312573 16.7872 -0.00411775 17.0548 0.0643822 17.3107L2.94519 28.0619C3.06138 28.4955 3.45644 28.7983 3.90569 28.7983C3.99213 28.7983 4.07832 28.7868 4.16201 28.7645L6.14901 28.232C6.40482 28.1635 6.61894 27.9989 6.75182 27.7687C6.88469 27.5385 6.92007 27.2708 6.85157 27.0151L6.72969 26.5601C7.94451 25.6378 9.05782 25.3763 10.4113 25.6867L15.1948 26.7833C15.6139 26.8795 16.0171 26.9277 16.4066 26.9277C17.2009 26.9277 17.9381 26.7271 18.6374 26.3234L30.5996 19.4173C31.9082 18.6616 32.3582 16.982 31.6027 15.673ZM3.90951 27.7968L1.03207 17.0581L3.00644 16.5286L3.31538 17.6817L3.31576 17.683L5.88401 27.2677L3.90951 27.7968ZM30.0996 18.5512L18.1374 25.4573C17.3242 25.9268 16.4346 26.0417 15.4182 25.8086L10.6348 24.712C9.10757 24.3619 7.79401 24.613 6.45294 25.5272L4.36907 17.7503L7.00563 15.7312C7.78457 15.1346 8.63526 14.903 9.60594 15.0242L17.9238 17.2882C18.4303 17.426 18.8546 17.7558 19.1183 18.217C19.3821 18.6781 19.4514 19.211 19.3136 19.7175C19.027 20.7704 17.9373 21.394 16.8843 21.1073L12.4233 19.8931C12.1573 19.8207 11.8821 19.9777 11.8096 20.2442C11.7371 20.5107 11.8943 20.7854 12.1607 20.858L16.6217 22.0722C16.8826 22.1432 17.1449 22.1771 17.4032 22.1771C18.6221 22.177 19.7484 21.4219 20.1901 20.2513L28.3584 15.5355C28.7589 15.3043 29.2279 15.2433 29.6788 15.3643C30.1298 15.4852 30.5054 15.7722 30.7366 16.1729C31.2165 17.0043 30.9308 18.0713 30.0996 18.5512ZM7.17832 13.051H13.6269C13.6184 13.1723 13.6125 13.2945 13.6125 13.418C13.6125 13.6942 13.8364 13.918 14.1125 13.918H23.4508C23.7269 13.918 23.9508 13.6942 23.9508 13.418C23.9508 13.2945 23.9448 13.1723 23.9363 13.051H30.5853C30.8614 13.051 31.0853 12.8272 31.0853 12.551C31.0853 10.6787 29.9398 9.06928 28.3129 8.38597C28.8802 7.89597 29.2403 7.17228 29.2403 6.36565C29.2403 4.8934 28.0424 3.69559 26.5701 3.69559C25.0978 3.69559 23.9 4.8934 23.9 6.36565C23.9 7.17497 24.2624 7.90084 24.833 8.3909C23.9925 8.74622 23.2653 9.35122 22.7658 10.1283C22.2073 9.45303 21.4801 8.92278 20.6501 8.59978C21.3528 8.04565 21.8051 7.18765 21.8051 6.2254C21.8051 4.55822 20.4488 3.2019 18.7816 3.2019C17.1144 3.2019 15.7581 4.55822 15.7581 6.2254C15.7581 7.18765 16.2105 8.04572 16.9131 8.59978C16.1384 8.90128 15.4538 9.38397 14.9118 9.99628C14.4161 9.27747 13.726 8.72122 12.9341 8.3879C13.5028 7.89784 13.8637 7.17334 13.8637 6.36565C13.8637 4.8934 12.6659 3.69559 11.1935 3.69559C9.7212 3.69559 8.52345 4.8934 8.52345 6.36565C8.52345 7.17228 8.88351 7.89597 9.4507 8.38597C7.82388 9.06928 6.67832 10.6787 6.67832 12.551C6.67832 12.8272 6.90219 13.051 7.17832 13.051ZM24.8999 6.36572C24.8999 5.4449 25.6491 4.69565 26.5701 4.69565C27.491 4.69565 28.2402 5.44484 28.2402 6.36572C28.2402 7.28659 27.491 8.03584 26.5701 8.03584C25.6491 8.03584 24.8999 7.28659 24.8999 6.36572ZM26.5701 9.03578C28.3386 9.03578 29.8063 10.3488 30.0498 12.051H23.7659C23.6719 11.7088 23.5435 11.3809 23.3848 11.0708C23.9599 9.84503 25.2121 9.03578 26.5701 9.03578ZM16.7581 6.2254C16.7581 5.10965 17.6658 4.2019 18.7816 4.2019C19.8974 4.2019 20.8051 5.10965 20.8051 6.2254C20.8051 7.34122 19.8974 8.2489 18.7816 8.2489C17.6658 8.2489 16.7581 7.34122 16.7581 6.2254ZM18.7816 9.2489C20.9113 9.2489 22.6731 10.8541 22.9209 12.918H14.6423C14.8901 10.8541 16.652 9.2489 18.7816 9.2489ZM11.1936 4.69565C12.1145 4.69565 12.8638 5.44484 12.8638 6.36572C12.8638 7.28659 12.1146 8.03584 11.1936 8.03584C10.2728 8.03584 9.52351 7.28665 9.52351 6.36572C9.52351 5.44484 10.2727 4.69565 11.1936 4.69565ZM11.1936 9.03578C12.4821 9.03578 13.6678 9.75103 14.2822 10.8782C14.0749 11.244 13.9111 11.637 13.7974 12.051H7.71382C7.95732 10.3488 9.42507 9.03578 11.1936 9.03578Z" fill="black"/>
</svg>
