<svg width="651" height="783" viewBox="0 0 651 783" fill="none" xmlns="http://www.w3.org/2000/svg">
<g opacity="0.15">
<path d="M686.13 907.824C683.744 912.3 681.07 916.469 678.136 920.282C671.983 928.279 664.638 934.781 656.303 939.608C647.346 944.797 637.15 948.1 625.998 949.427C603.582 952.095 580.97 947.352 559.102 942.766C554.808 941.866 550.367 940.935 546.032 940.082C516.48 934.279 488.975 932.231 461.947 933.82C408.031 936.991 354.69 953.437 307.691 981.384C253.339 1013.71 211.578 1057.35 190.102 1104.27C177.481 1131.86 174.095 1175.39 192.044 1205.22C202.697 1222.92 219.656 1232.93 241.086 1234.17L241.075 1234.37C229.836 1233.72 219.827 1230.71 211.326 1225.42C203.527 1220.57 196.983 1213.81 191.874 1205.32C183.749 1191.81 179.452 1174.4 179.448 1154.95C179.444 1136.99 183.164 1118.96 189.922 1104.19C201.162 1079.63 217.855 1056.04 239.54 1034.07C259.198 1014.16 282.092 996.375 307.589 981.214C354.615 953.25 407.985 936.793 461.933 933.622C488.979 932.033 516.499 934.082 546.067 939.888C550.403 940.739 554.845 941.67 559.139 942.572C580.991 947.156 603.587 951.895 625.97 949.23C647.618 946.654 665.116 936.872 677.975 920.159C695.784 897.013 703.336 861.403 698.174 824.901C690.736 772.3 664.533 724.576 639.195 678.422C634.753 670.332 630.16 661.967 625.785 653.777C614.424 632.512 600.071 604.264 589.828 574.328C579.359 543.727 574.59 515.762 575.249 488.832C575.652 472.348 578.6 456.223 584.012 440.904C589.01 426.754 596.276 412.831 605.605 399.519C621.61 376.686 644.063 354.865 674.245 332.806C733.679 289.376 799.117 249.227 868.745 213.477C934.923 179.499 1005.47 149.182 1078.43 123.369L1078.49 123.555C927.26 177.063 791.291 247.518 674.361 332.966C608.299 381.241 576.867 430.769 575.445 488.836C573.997 547.909 598.867 602.975 625.957 653.684C630.331 661.872 634.924 670.236 639.366 678.326C664.714 724.494 690.925 772.234 698.368 824.871C700.774 841.881 700.398 859.373 697.28 875.455C695.633 883.95 693.232 891.987 690.143 899.347C688.918 902.283 687.577 905.111 686.13 907.824Z" fill="white"/>
<path d="M678.771 898.281C672.685 909.695 664.875 919.11 655.55 926.273C645.152 934.261 632.897 939.404 619.126 941.561C617.907 941.752 616.661 941.921 615.42 942.065C593.14 944.649 570.648 940.295 548.896 936.082C544.499 935.232 539.952 934.351 535.512 933.549C509.074 928.776 484.522 926.913 460.456 927.858C457.493 927.975 454.5 928.136 451.559 928.34C397.798 932.062 344.745 949.027 298.137 977.4C244.094 1010.33 202.851 1054.43 182.007 1101.59C169.843 1129.17 166.797 1172.67 184.508 1202.46C195.113 1220.3 211.937 1230.65 233.16 1232.4L233.144 1232.59C222.02 1231.68 212.105 1228.45 203.676 1223C195.935 1218 189.429 1211.12 184.338 1202.56C176.272 1189 171.945 1171.61 171.823 1152.29C171.71 1134.42 175.262 1116.39 181.825 1101.52C192.74 1076.82 209.142 1053.04 230.573 1030.83C249.986 1010.71 272.684 992.681 298.034 977.234C344.669 948.844 397.753 931.871 451.545 928.146C454.487 927.942 457.483 927.781 460.448 927.665C484.53 926.72 509.094 928.583 535.547 933.359C539.988 934.159 544.535 935.04 548.933 935.891C570.672 940.099 593.148 944.451 615.397 941.87C616.633 941.727 617.88 941.557 619.096 941.368C647.559 936.912 667.022 920.315 678.8 898.227C678.864 898.106 678.928 897.987 678.992 897.866C678.917 898.003 678.845 898.143 678.771 898.281ZM681.162 893.505C691.057 872.409 694.468 847.015 692.429 822.582C687.925 769.822 663.704 720.714 640.281 673.222C639.315 671.266 638.352 669.312 637.39 667.357C635.277 663.066 632.778 657.982 630.278 652.82C619.071 629.665 606.363 602.099 597.098 573.214C587.237 542.481 582.638 514.577 583.035 487.909C583.286 471.527 585.879 455.455 590.743 440.139C595.248 425.95 601.855 411.937 610.375 398.496C625.096 375.277 645.874 352.949 673.898 330.238C701.202 308.086 725.085 290.643 749.06 275.346C783.041 253.685 818.896 234.912 849.488 219.402C920.726 183.409 996.877 151.427 1075.83 124.345L1075.89 124.53C996.951 151.609 920.806 183.587 849.577 219.577C818.989 235.083 783.14 253.854 749.168 275.511C725.199 290.804 701.323 308.241 674.026 330.391C612.977 379.865 584.125 429.919 583.233 487.913C582.334 548.117 607.137 604.558 630.457 652.735C632.955 657.899 635.454 662.98 637.568 667.272C638.529 669.226 639.494 671.181 640.46 673.137C663.89 720.644 688.119 769.77 692.627 822.567C693.718 835.645 693.186 848.657 691.042 861.244C689.043 872.959 685.726 883.787 681.162 893.505Z" fill="white"/>
<path d="M671.872 888.406C671.14 889.779 670.383 891.128 669.601 892.449C663.016 903.585 654.774 912.744 645.1 919.67C634.52 927.245 622.222 932.138 608.547 934.211C607.33 934.394 606.084 934.559 604.845 934.699C582.712 937.199 560.345 933.23 538.719 929.391C534.211 928.591 529.549 927.764 524.995 927.017C498.441 922.643 473.926 921.095 450.046 922.288C447.092 922.437 444.107 922.629 441.173 922.863C387.568 927.138 334.804 944.621 288.586 973.421C234.854 1006.96 194.127 1051.52 173.913 1098.92C162.567 1125.62 158.68 1168.54 176.956 1199.68C187.514 1217.67 204.21 1228.37 225.238 1230.63L225.216 1230.82C214.2 1229.64 204.376 1226.19 196.016 1220.58C188.327 1215.41 181.858 1208.42 176.787 1199.78C168.79 1186.15 164.439 1168.8 164.202 1149.6C163.983 1131.85 167.369 1113.82 173.734 1098.84C184.326 1074.01 200.434 1050.04 221.611 1027.59C240.782 1007.26 263.28 988.984 288.483 973.255C334.729 944.439 387.523 926.947 441.159 922.669C444.095 922.435 447.081 922.242 450.038 922.095C473.931 920.902 498.461 922.452 525.029 926.828C529.585 927.576 534.247 928.403 538.755 929.203C560.37 933.038 582.72 937.005 604.826 934.509C606.065 934.369 607.308 934.206 608.522 934.022C664.086 925.597 687.814 870.814 686.681 820.26C685.289 767.058 662.963 716.168 641.373 666.953L641.151 666.448C639.057 661.68 636.893 656.75 634.769 651.859C612.363 600.255 590.514 545.016 590.819 486.981C590.918 470.696 593.157 454.675 597.472 439.367C601.485 425.129 607.431 411.031 615.143 397.466C628.59 373.816 647.694 350.983 673.549 327.662C700.682 303.133 722.924 285.647 745.669 270.964C778.11 250.062 814.424 232.423 846.465 216.862C918.023 182.331 994.315 151.53 1073.22 125.313L1073.28 125.499C994.384 151.714 918.099 182.512 846.549 217.038C814.514 232.598 778.205 250.234 745.775 271.129C723.038 285.805 700.803 303.286 673.679 327.807C617.635 378.358 591.367 428.936 591.012 486.982C590.707 544.979 612.547 600.195 634.945 651.78C637.069 656.671 639.234 661.601 641.327 666.368L641.549 666.874C652.307 691.399 663.433 716.759 671.865 742.234C681.34 770.863 686.249 796.384 686.872 820.256C687.43 845.18 682.125 869.177 671.872 888.406Z" fill="white"/>
<path d="M1070.67 126.461C991.816 151.813 915.392 181.432 843.521 214.493C840.49 215.901 837.448 217.308 834.397 218.721C803.35 233.087 771.247 247.941 742.384 266.74C714.422 284.999 691.789 306.546 673.336 325.217C622.289 376.693 598.603 427.796 598.792 486.043C599.06 545.876 621.447 604.064 639.437 650.818C640.517 653.624 641.602 656.429 642.687 659.238C643.489 661.311 644.29 663.386 645.089 665.46C655.351 692.092 664.39 716.158 671.1 741.003C678.765 769.385 682.043 794.55 681.122 817.94C680.261 839.861 674.795 860.855 665.564 878.171C663.881 881.326 662.077 884.356 660.149 887.251C653.111 897.82 644.538 906.507 634.668 913.071C623.899 920.233 611.552 924.873 597.967 926.865C596.751 927.042 595.506 927.201 594.267 927.336C572.289 929.75 550.062 926.165 528.569 922.697C523.94 921.95 519.15 921.177 514.472 920.484C487.796 916.512 463.314 915.28 439.629 916.715C436.682 916.894 433.706 917.119 430.78 917.383C377.331 922.212 324.856 940.212 279.028 969.435C225.606 1003.58 185.399 1048.6 165.812 1096.23C152.482 1128.82 153.949 1170.2 169.377 1196.85C179.888 1215.01 196.463 1226.07 217.306 1228.85L217.28 1229.04C206.366 1227.59 196.627 1223.92 188.331 1218.13C180.692 1212.8 174.259 1205.67 169.207 1196.95C161.285 1183.26 156.913 1165.95 156.568 1146.88C156.248 1129.24 159.465 1111.23 165.631 1096.16C175.899 1071.19 191.714 1047.02 212.637 1024.33C231.565 1003.81 253.867 985.28 278.922 969.267C324.777 940.025 377.281 922.016 430.763 917.185C433.692 916.92 436.67 916.696 439.617 916.517C463.316 915.081 487.81 916.315 514.499 920.287C519.179 920.982 523.967 921.753 528.598 922.501C550.079 925.967 572.291 929.549 594.243 927.139C595.48 927.003 596.723 926.844 597.936 926.669C656.369 918.101 679.161 862.737 680.925 817.931C683.028 764.473 662.775 711.908 644.905 665.529C644.104 663.454 643.303 661.381 642.504 659.307C641.418 656.5 640.334 653.693 639.254 650.887C628.986 624.199 619.146 598.004 611.626 570.964C602.977 539.869 598.716 512.09 598.598 486.042C598.545 469.846 600.427 453.88 604.197 438.586C607.718 424.292 613.005 410.108 619.909 396.426C632.086 372.296 649.518 348.957 673.198 325.076C691.657 306.401 714.301 284.843 742.278 266.575C771.153 247.767 803.264 232.91 834.317 218.54C837.368 217.129 840.411 215.721 843.442 214.312C915.318 181.248 991.751 151.627 1070.61 126.273L1070.67 126.461Z" fill="white"/>
<path d="M1068.06 127.427C987.751 152.384 911.186 180.82 840.494 211.95C836.264 213.814 831.918 215.708 827.715 217.541C797.617 230.671 766.493 244.247 738.993 262.354C711.581 280.461 690.246 302.983 672.992 322.629C626.929 374.848 605.824 426.477 606.573 485.107C607.374 541.077 625.188 594.089 642.415 645.355L644.305 650.985C645.8 655.431 647.343 660.027 648.85 664.551C665.86 715.745 680.686 765.818 675.37 815.624C674.08 827.71 671.416 839.405 667.454 850.391C663.198 862.187 657.548 872.838 650.659 882.048C643.176 892.05 634.282 900.266 624.221 906.465C613.273 913.212 600.879 917.603 587.387 919.513C586.167 919.683 584.923 919.836 583.689 919.967C561.878 922.297 539.805 919.091 518.458 915.99C513.695 915.299 508.768 914.584 503.953 913.947C477.148 910.382 452.702 909.463 429.218 911.138C426.283 911.348 423.313 911.604 420.393 911.899C367.1 917.281 314.914 935.797 269.474 965.447C216.365 1000.2 176.675 1045.69 157.715 1093.55C144.924 1126.06 146.596 1167.36 161.784 1193.98C172.248 1212.32 188.707 1223.77 209.382 1227.07L209.351 1227.27C198.533 1225.54 188.872 1221.63 180.638 1215.67C173.047 1210.17 166.647 1202.9 161.615 1194.08C153.775 1180.34 149.392 1163.07 148.939 1144.15C148.519 1126.63 151.572 1108.64 157.534 1093.48C167.479 1068.37 183.001 1044.02 203.67 1021.09C222.356 1000.36 244.458 981.583 269.367 965.286C314.832 935.618 367.05 917.091 420.373 911.706C423.295 911.412 426.268 911.155 429.203 910.946C452.699 909.268 477.158 910.188 503.977 913.756C508.792 914.393 513.721 915.108 518.484 915.8C539.819 918.898 561.881 922.103 583.666 919.775C584.897 919.644 586.139 919.49 587.358 919.322C644.81 911.188 670.392 860.413 675.175 815.606C680.487 765.841 665.665 715.788 648.664 664.617C647.157 660.093 645.614 655.496 644.119 651.05L642.229 645.421C633.774 620.256 625.028 594.235 618.275 567.437C610.626 537.087 606.734 510.158 606.375 485.113C606.168 469 607.697 453.086 610.919 437.814C613.948 423.455 618.575 409.183 624.671 395.395C635.579 370.722 651.337 346.881 672.843 322.5C690.106 302.846 711.45 280.311 738.883 262.193C766.396 244.075 797.528 230.495 827.635 217.363C831.838 215.53 836.182 213.634 840.414 211.772C911.111 180.639 987.683 152.199 1068 127.241L1068.06 127.427Z" fill="white"/>
<path d="M1065.45 128.393C984.804 152.588 908.098 179.846 837.468 209.409C832.16 211.632 826.671 213.884 821.364 216.063C792.113 228.07 761.865 240.487 735.603 257.972C708.492 276.086 688.567 299.513 672.65 320.042C631.549 372.779 613.026 424.933 614.355 484.176C615.61 535.926 630.031 585.555 643.977 633.55C645.445 638.601 646.961 643.823 648.42 648.902C650.134 654.867 651.428 659.415 652.612 663.647C658.947 686.307 665.927 712.988 669.659 739.07C673.612 766.71 673.599 790.994 669.62 813.312C667.528 825.048 664.151 836.308 659.581 846.78C654.674 858.025 648.479 868.143 641.168 876.849C633.247 886.282 624.031 894.024 613.776 899.864C602.655 906.197 590.216 910.334 576.807 912.164C575.593 912.326 574.349 912.475 573.112 912.602C551.485 914.845 529.579 912.015 508.392 909.281C503.478 908.646 498.398 907.99 493.432 907.412C466.489 904.257 442.079 903.653 418.804 905.566C415.877 905.806 412.917 906.094 410.003 906.419C356.866 912.353 304.968 931.388 259.917 961.464C207.122 996.819 167.951 1042.77 149.617 1090.86C139.256 1118.27 136.646 1159.88 154.167 1191.07C164.584 1209.62 180.935 1221.45 201.452 1225.3L201.417 1225.49C190.688 1223.48 181.102 1219.34 172.925 1213.18C165.378 1207.5 159.009 1200.09 153.996 1191.17C146.247 1177.37 141.858 1160.16 141.301 1141.38C140.787 1123.99 143.676 1106.03 149.434 1090.79C159.056 1065.55 174.285 1041.01 194.699 1017.84C213.142 996.904 235.047 977.882 259.809 961.301C304.885 931.208 356.813 912.162 409.98 906.224C412.894 905.899 415.859 905.612 418.787 905.372C442.074 903.458 466.497 904.063 493.453 907.219C498.422 907.796 503.502 908.452 508.416 909.086C529.591 911.822 551.486 914.648 573.089 912.408C574.325 912.279 575.566 912.132 576.778 911.968C624.943 905.398 659.578 868.504 669.424 813.276C678.341 763.263 665.913 711.959 652.42 663.698C651.236 659.466 649.942 654.92 648.228 648.955C646.768 643.876 645.252 638.654 643.784 633.603C636.919 609.975 629.819 585.544 624.288 560.572C618.032 532.334 614.718 507.343 614.157 484.177C613.797 468.136 614.97 452.276 617.646 437.035C620.18 422.599 624.149 408.241 629.437 394.358C639.07 369.081 653.153 344.732 672.491 319.92C688.417 299.38 708.355 275.935 735.489 257.806C761.768 240.311 792.024 227.892 821.284 215.88C826.591 213.702 832.079 211.449 837.387 209.226C908.024 179.662 984.737 152.401 1065.39 128.203L1065.45 128.393Z" fill="white"/>
<path d="M1062.84 129.362C981.853 152.79 905.005 178.867 834.438 206.87C828.435 209.254 822.187 211.655 816.145 213.98C787.361 225.051 757.6 236.498 732.21 253.589C705.253 271.807 686.8 296.097 672.304 317.456C636.63 369.701 620.219 423.931 622.134 483.243C623.753 530.52 635.18 576.399 646.231 620.768C648.463 629.73 650.772 638.997 652.91 647.948C654.219 653.426 655.353 658.264 656.373 662.745C661.107 683.573 666.811 710.963 668.931 738.112C671.061 765.391 669.405 789.235 663.867 811.004C657.828 834.748 646.694 855.722 631.671 871.658C623.317 880.518 613.782 887.789 603.327 893.269C592.039 899.186 579.557 903.071 566.228 904.821C565.015 904.977 563.772 905.12 562.537 905.244C541.113 907.399 519.391 904.943 498.386 902.568C493.305 901.993 488.052 901.399 482.914 900.885C455.826 898.143 431.449 897.852 408.394 899.999C405.475 900.27 402.523 900.589 399.617 900.945C346.637 907.432 295.026 926.983 250.368 957.485C197.887 993.446 159.233 1039.86 141.524 1088.19C129.615 1120.99 131.628 1161.15 146.531 1188.12C156.903 1206.89 173.154 1219.14 193.53 1223.53L193.488 1223.72C182.84 1221.42 173.323 1217.04 165.201 1210.69C157.694 1204.82 151.354 1197.25 146.359 1188.22C138.708 1174.37 134.319 1157.21 133.666 1138.6C133.061 1121.34 135.785 1103.41 141.338 1088.12C150.637 1062.74 165.574 1038.01 185.732 1014.59C203.933 993.457 225.641 974.187 250.254 957.322C294.94 926.803 346.578 907.241 399.592 900.749C402.498 900.393 405.452 900.076 408.374 899.803C431.442 897.657 455.83 897.948 482.931 900.69C488.07 901.203 493.324 901.799 498.406 902.374C519.4 904.748 541.111 907.202 562.514 905.049C563.75 904.925 564.988 904.783 566.2 904.626C613.911 898.367 650.35 863.351 663.677 810.956C675.826 763.191 667.254 711.515 656.183 662.79C655.161 658.311 654.03 653.472 652.72 647.996C650.582 639.046 648.275 629.779 646.042 620.819C634.989 576.44 623.558 530.552 621.94 483.253C621.423 467.268 622.243 451.461 624.374 436.268C626.414 421.737 629.722 407.292 634.207 393.333C642.547 367.374 654.957 342.52 672.143 317.35C686.649 295.976 705.115 271.665 732.102 253.429C757.51 236.325 787.282 224.874 816.077 213.799C822.119 211.474 828.366 209.072 834.368 206.689C904.941 178.684 981.795 152.604 1062.79 129.174L1062.84 129.362Z" fill="white"/>
<path d="M1060.23 130.327C978.901 152.981 901.915 177.88 831.412 204.329C824.933 206.759 818.146 209.195 811.584 211.549C783.05 221.789 753.545 232.376 728.82 249.205C701.919 267.592 684.982 292.716 671.96 314.87C641.109 366.994 627.355 421.765 629.915 482.31C631.801 524.819 640.635 566.527 649.176 606.862C652.114 620.731 654.888 633.832 657.4 646.991C658.424 652.345 659.32 657.201 660.135 661.839C665.377 691.754 667.941 715.683 668.2 737.148C668.527 764.077 665.229 787.479 658.115 808.691C655.354 816.919 651.974 824.781 648.034 832.17C641.051 845.267 632.313 856.884 622.171 866.46C603.815 883.79 581.433 894.224 555.646 897.471C554.426 897.621 553.186 897.758 551.958 897.877C530.756 899.944 509.246 897.857 488.443 895.838C483.172 895.327 477.725 894.797 472.392 894.349C445.147 892.024 420.806 892.05 397.979 894.423C395.069 894.725 392.124 895.075 389.226 895.462C336.403 902.502 285.08 922.571 240.811 953.499C188.646 990.066 150.51 1036.94 133.426 1085.5C121.877 1118.65 124.011 1157.75 138.867 1185.11C149.192 1204.12 165.353 1216.79 185.601 1221.75L185.555 1221.94C174.982 1219.35 165.527 1214.71 157.454 1208.16C149.982 1202.09 143.671 1194.37 138.695 1185.2C131.151 1171.31 126.77 1154.22 126.025 1135.79C125.332 1118.66 127.896 1100.78 133.24 1085.44C142.217 1059.92 156.86 1034.99 176.763 1011.34C194.724 990.002 216.234 970.487 240.697 953.336C284.994 922.391 336.344 902.311 389.2 895.265C392.099 894.879 395.044 894.53 397.957 894.227C420.797 891.852 445.151 891.826 472.405 894.152C477.739 894.6 483.189 895.129 488.459 895.642C509.252 897.66 530.752 899.746 551.936 897.68C553.162 897.56 554.401 897.425 555.62 897.274C603.776 891.213 641.066 858.903 657.926 808.628C673.976 760.769 667.95 707.587 659.939 661.872C659.123 657.237 658.229 652.381 657.206 647.027C654.693 633.87 651.92 620.77 648.982 606.901C640.437 566.559 631.603 524.842 629.717 482.318C629.043 466.367 629.508 450.613 631.099 435.49C632.641 420.843 635.289 406.31 638.971 392.297C645.994 365.573 656.729 340.213 671.789 314.77C684.821 292.597 701.774 267.45 728.706 249.042C753.451 232.199 782.969 221.608 811.513 211.365C818.077 209.009 824.863 206.574 831.339 204.145C901.847 177.694 978.84 152.796 1060.18 130.14L1060.23 130.327Z" fill="white"/>
<path d="M1057.63 131.294C974.796 153.477 899.811 176.536 828.384 201.788C821.569 204.198 814.702 206.485 807.431 208.908C779.008 218.378 749.62 228.171 725.429 244.822C698.364 263.53 682.453 290.702 671.617 312.283C645.531 363.826 634.435 419.138 637.697 481.379C639.738 518.766 646.371 555.818 652.788 591.652C656.16 610.484 659.343 628.271 661.892 646.038C662.651 651.313 663.306 656.187 663.897 660.936C667.534 690.364 668.668 714.275 667.466 736.188C666.007 762.785 661.066 785.745 652.362 806.379C647.889 816.982 642.361 826.932 635.931 835.955C629.124 845.508 621.296 854.024 612.668 861.265C593.541 877.314 570.799 887.024 545.068 890.123C543.849 890.267 542.61 890.398 541.384 890.513C520.436 892.491 499.164 890.767 478.593 889.101C473.104 888.656 467.429 888.196 461.874 887.816C434.466 885.916 410.161 886.255 387.569 888.853C384.666 889.188 381.729 889.568 378.841 889.983C326.174 897.575 275.141 918.161 231.26 949.514C190.839 978.496 159.06 1013.66 139.221 1050.87C133.612 1061.39 128.961 1072.07 125.332 1082.82C114.324 1115.79 116.622 1154.73 131.185 1182.05C141.465 1201.32 157.543 1214.44 177.678 1219.98L177.626 1220.17C167.119 1217.28 157.721 1212.38 149.695 1205.61C142.255 1199.33 135.968 1191.44 131.01 1182.14C123.581 1168.21 119.214 1151.2 118.382 1132.94C117.596 1115.72 119.935 1098.36 125.146 1082.76C133.799 1057.11 148.151 1031.99 167.798 1008.1C185.514 986.553 206.826 966.788 231.143 949.354C275.049 917.983 326.111 897.384 378.81 889.786C381.699 889.37 384.638 888.989 387.544 888.654C410.147 886.056 434.464 885.717 461.885 887.617C467.439 887.997 473.116 888.455 478.606 888.901C499.169 890.567 520.432 892.291 541.362 890.315C542.587 890.199 543.826 890.068 545.043 889.925C593.158 884.128 632.205 853.649 652.179 806.3C672.39 758.387 668.952 703.458 663.7 660.956C663.109 656.207 662.453 651.334 661.696 646.06C659.149 628.297 655.964 610.511 652.592 591.681C646.176 555.843 639.539 518.785 637.499 481.384C635.819 449.339 637.861 419.862 643.74 391.262C649.409 363.681 658.471 337.815 671.441 312.189C678.793 297.545 685.698 286.08 693.167 276.106C702.812 263.229 713.327 252.942 725.316 244.655C749.528 227.988 778.931 218.192 807.368 208.717C814.638 206.296 821.505 204.006 828.318 201.599C899.748 176.347 974.738 153.286 1057.57 131.101L1057.63 131.294Z" fill="white"/>
<path d="M1055.02 132.262C971.833 153.65 896.713 175.562 825.356 199.248C818.297 201.591 811.136 203.794 803.555 206.128C775.151 214.871 745.778 223.909 722.037 240.438C694.92 259.393 680.663 287.407 671.271 309.695C649.866 360.048 641.429 415.902 645.475 480.444C647.54 512.283 652.357 544.117 657.017 574.904C660.699 599.241 664.179 622.228 666.378 645.078C666.878 650.244 667.307 655.276 667.652 660.03C669.724 688.676 669.419 713.272 666.721 735.221C663.492 761.504 656.912 784.023 646.603 804.065C641.358 814.262 635.11 823.778 628.035 832.341C620.617 841.317 612.247 849.299 603.155 856.063C583.309 870.828 560.204 879.816 534.482 882.773C533.27 882.909 532.031 883.035 530.8 883.147C510.144 885.033 489.15 883.666 468.848 882.346C463.104 881.972 457.162 881.585 451.348 881.281C423.766 879.807 399.497 880.461 377.151 883.277C374.255 883.644 371.327 884.055 368.446 884.5C315.936 892.645 265.191 913.749 221.699 945.528C170.17 983.308 133.069 1031.11 117.23 1080.14C106.758 1112.89 109.207 1151.66 123.466 1178.92C133.703 1198.49 149.706 1212.07 169.747 1218.2L169.69 1218.39C159.242 1215.19 149.895 1210.03 141.909 1203.03C134.496 1196.54 128.231 1188.46 123.291 1179.01C115.985 1165.05 111.641 1148.12 110.726 1130.07C109.861 1112.99 112.045 1095.7 117.043 1080.08C125.376 1054.29 139.432 1028.98 158.824 1004.85C176.301 983.099 197.415 963.088 221.581 945.369C265.097 913.57 315.872 892.456 368.414 884.307C371.295 883.86 374.226 883.448 377.124 883.083C399.482 880.264 423.761 879.612 451.355 881.084C457.17 881.387 463.111 881.775 468.858 882.148C489.151 883.469 510.136 884.835 530.778 882.95C532.007 882.838 533.246 882.712 534.456 882.576C583.489 876.938 623.258 849.025 646.425 803.974C665.226 767.421 671.907 721.686 667.452 660.043C667.105 655.291 666.677 650.261 666.178 645.096C663.978 622.252 660.501 599.267 656.817 574.933C652.158 544.142 647.339 512.303 645.274 480.455C643.233 447.913 644.29 418.401 648.501 390.232C652.769 361.694 660.155 335.324 671.084 309.615C680.485 287.304 694.762 259.257 721.92 240.274C745.688 223.728 775.075 214.684 803.492 205.937C811.073 203.605 818.232 201.4 825.288 199.058C896.648 175.37 971.773 153.458 1054.96 132.07L1055.02 132.262Z" fill="white"/>
<path d="M1052.41 133.227C968.871 153.813 893.612 174.575 822.33 196.704C815.094 198.95 807.705 201.039 799.883 203.249C771.429 211.289 742.006 219.605 718.647 236.051C691.448 255.277 678.857 284.122 670.926 307.104C653.851 356.115 648.237 410.896 653.257 479.509C655.194 505.271 658.55 531.226 661.794 556.326C665.734 586.812 669.457 615.608 670.869 644.12C671.125 649.259 671.309 654.307 671.413 659.124C672.016 687.481 670.239 712.056 665.978 734.253C663.592 746.686 660.368 758.497 656.398 769.358C652.161 780.942 646.93 791.841 640.851 801.751C628.514 821.857 612.632 838.379 593.646 850.859C573.141 864.337 549.678 872.601 523.904 875.419C522.686 875.548 521.448 875.669 520.225 875.779C499.908 877.571 479.243 876.555 459.261 875.572C453.211 875.275 446.956 874.967 440.829 874.744C413.062 873.706 388.827 874.674 366.739 877.703C363.85 878.099 360.928 878.543 358.059 879.019C305.703 887.716 255.247 909.336 212.148 941.542C160.938 979.928 124.355 1028.2 109.136 1077.45C92.9838 1130.27 108.534 1198.42 161.823 1216.42L161.76 1216.61C148.429 1212.11 136.995 1204.48 127.77 1193.95C119.346 1184.34 112.906 1172.5 108.633 1158.76C104.66 1145.99 102.717 1132.17 102.857 1117.69C102.991 1103.92 105.096 1089.99 108.947 1077.39C116.957 1051.47 130.722 1025.97 149.859 1001.6C167.096 979.647 188.013 959.389 212.031 941.386C255.157 909.164 305.642 887.53 358.028 878.826C360.9 878.35 363.822 877.906 366.714 877.509C388.811 874.479 413.059 873.511 440.838 874.549C446.965 874.771 453.22 875.079 459.271 875.377C479.247 876.359 499.903 877.375 520.209 875.584C521.431 875.475 522.668 875.356 523.884 875.226C573.418 869.808 614.897 843.677 640.685 801.649C662.513 766.067 672.502 719.45 671.219 659.129C671.114 654.314 670.931 649.268 670.674 644.13C669.264 615.625 665.54 586.834 661.6 556.352C658.355 531.249 654.999 505.292 653.061 479.525C648.039 410.884 653.657 356.078 670.74 307.04C676.069 291.598 681.631 279.425 688.246 268.731C696.702 255.061 706.608 244.32 718.532 235.892C741.917 219.426 771.358 211.107 799.828 203.061C807.648 200.851 815.035 198.763 822.269 196.518C893.557 174.388 968.818 153.625 1052.36 133.039L1052.41 133.227Z" fill="white"/>
<path d="M1049.8 134.193C965.904 153.969 890.509 173.587 819.304 194.162C811.936 196.292 804.368 198.243 796.352 200.307C767.799 207.665 738.273 215.274 715.256 231.667C687.642 251.405 676.534 282.696 670.581 304.515C654.276 363.657 656.606 425.692 661.04 478.575C662.67 497.601 664.864 516.882 666.983 535.529C671.236 572.935 675.254 608.266 675.362 643.162C675.379 648.295 675.317 653.359 675.178 658.217C674.351 686.359 671.1 710.914 665.237 733.281C658.592 758.639 648.454 780.895 635.1 799.436C621.382 818.482 604.235 834.033 584.137 845.652C563.057 857.841 539.234 865.382 513.328 868.069C512.114 868.191 510.876 868.307 509.651 868.413C489.741 870.108 469.478 869.431 449.88 868.777C443.458 868.562 436.818 868.342 430.313 868.208C401.96 867.601 378.452 868.848 356.331 872.128C353.449 872.555 350.538 873.029 347.674 873.536C295.474 882.79 245.307 904.929 202.594 937.559C151.706 976.553 115.639 1025.28 101.041 1074.77C85.4577 1128.11 100.967 1195.02 153.899 1214.65L153.83 1214.83C140.698 1209.96 129.408 1202.1 120.273 1191.46C111.905 1181.72 105.475 1169.83 101.167 1156.14C97.1485 1143.36 95.1244 1129.57 95.1478 1115.13C95.1697 1101.38 97.1431 1087.41 100.851 1074.71C108.539 1048.65 122.011 1022.96 140.892 998.351C157.888 976.196 178.609 955.69 202.476 937.403C245.212 904.752 295.408 882.602 347.637 873.346C350.504 872.839 353.417 872.365 356.3 871.936C378.432 868.653 401.952 867.408 430.316 868.015C436.822 868.148 443.463 868.369 449.885 868.584C469.477 869.237 489.734 869.913 509.633 868.221C510.858 868.116 512.093 868 513.307 867.878C563.667 862.654 606.863 838.308 634.94 799.324C660.122 764.36 673.217 718.202 674.981 658.212C675.12 653.356 675.184 648.293 675.165 643.164C675.057 608.277 671.041 572.951 666.787 535.551C664.667 516.904 662.473 497.621 660.842 478.591C657.862 443.032 656.974 414.297 658.043 388.168C659.303 357.409 663.342 330.03 670.39 304.465C674.648 288.86 679.683 275.964 685.787 265.042C693.645 250.979 703.246 240.009 715.141 231.507C738.187 215.093 767.731 207.48 796.302 200.118C804.316 198.053 811.883 196.103 819.246 193.974C890.455 173.396 965.854 153.78 1049.75 134.002L1049.8 134.193Z" fill="white"/>
<path d="M1047.19 135.159C962.934 154.121 887.402 172.589 816.274 191.62C808.815 193.616 801.101 195.414 792.934 197.317C764.243 204.006 734.575 210.921 711.864 227.281C684.124 247.331 674.82 279.483 670.235 301.925C658.79 357.284 662.823 414.257 668.82 477.64C669.922 489.082 671.153 500.717 672.345 511.972C676.926 555.253 681.663 600.005 679.851 642.205C679.633 647.332 679.325 652.416 678.936 657.313C676.736 684.916 671.875 710.149 664.488 732.311C656.12 757.417 644.296 779.221 629.344 797.125C614.325 815.109 595.913 829.685 574.619 840.449C553.07 851.342 528.889 858.165 502.747 860.727C501.533 860.843 500.297 860.953 499.073 861.054C479.664 862.645 459.897 862.297 440.781 861.96C433.893 861.839 426.772 861.713 419.794 861.682C391.228 861.528 367.754 863.08 345.919 866.564C343.053 867.021 340.147 867.527 337.286 868.065C285.241 877.864 235.363 900.517 193.04 933.577C142.473 973.176 106.925 1022.37 92.9433 1072.09C78.4584 1124.06 92.1199 1191.06 145.971 1212.88L145.897 1213.06C132.961 1207.82 121.817 1199.72 112.772 1188.98C104.457 1179.1 98.04 1167.17 93.6955 1153.52C85.6825 1128.33 85.3387 1098.63 92.7517 1072.04C100.119 1045.84 113.298 1019.96 131.922 995.106C148.68 972.748 169.201 951.995 192.917 933.423C235.264 900.345 285.173 877.678 337.246 867.87C340.109 867.331 343.015 866.825 345.884 866.367C367.73 862.882 391.214 861.329 419.791 861.484C426.77 861.517 433.892 861.64 440.78 861.762C459.891 862.098 479.654 862.446 499.054 860.857C500.276 860.757 501.511 860.646 502.725 860.53C555.027 855.405 598.758 833.437 629.19 797.001C657.369 763.262 674.039 716.261 678.738 657.301C679.126 652.406 679.434 647.326 679.652 642.201C681.464 600.016 676.728 555.269 672.147 511.997C670.955 500.743 669.724 489.108 668.622 477.664C665.997 449.918 663.168 417.754 662.81 387.139C662.438 355.116 664.803 327.231 670.042 301.891C673.305 285.921 677.651 272.66 683.327 261.356C690.484 247.099 700.046 235.586 711.748 227.128C721.922 219.799 734.532 213.687 750.3 208.442C764.222 203.811 778.795 200.415 792.887 197.13C801.052 195.228 808.765 193.43 816.222 191.434C887.353 172.403 962.887 153.933 1047.14 134.971L1047.19 135.159Z" fill="white"/>
<path d="M1044.58 136.127C959.961 154.268 884.292 171.589 813.246 189.081C805.724 190.934 797.893 192.568 789.605 194.297C760.745 200.322 730.903 206.551 708.475 222.899C687.547 238.192 674.926 263.197 669.89 299.34C662.763 349.828 668.393 401.358 674.356 455.917C675.099 462.711 675.866 469.734 676.604 476.709C676.895 479.442 677.19 482.179 677.484 484.913C683.065 536.844 688.837 590.543 684.343 641.249C683.89 646.376 683.337 651.476 682.699 656.408C679.131 683.914 672.753 709.122 663.742 731.333C653.651 756.203 640.142 777.561 623.593 794.809C607.351 811.735 587.674 825.337 565.109 835.234C543.237 844.827 518.698 850.93 492.171 853.373C490.959 853.483 489.723 853.587 488.5 853.684C469.732 855.163 450.605 855.123 432.107 855.087C424.616 855.071 416.869 855.057 409.276 855.142C380.484 855.45 357.044 857.305 335.509 860.984C332.648 861.473 329.753 862.009 326.9 862.578C275.01 872.936 225.419 896.107 183.486 929.593C133.243 969.796 98.2105 1019.45 84.8467 1069.41C71.2168 1120.74 85.2284 1187.84 138.046 1211.1L137.968 1211.29C125.228 1205.67 114.229 1197.33 105.277 1186.49C97.016 1176.48 90.6072 1164.51 86.2309 1150.9C78.1464 1125.76 77.5732 1096.04 84.6576 1069.36C91.7031 1043.02 104.588 1016.95 122.957 991.86C139.473 969.297 159.797 948.296 183.363 929.439C225.321 895.935 274.941 872.748 326.856 862.388C329.709 861.819 332.61 861.282 335.471 860.793C357.017 857.113 380.466 855.254 409.269 854.947C416.863 854.86 424.611 854.877 432.103 854.891C450.595 854.929 469.719 854.967 488.48 853.489C489.703 853.392 490.936 853.288 492.148 853.179C546.087 848.211 591.488 827.98 623.446 794.672C654.993 761.793 674.861 715.265 682.499 656.382C683.136 651.453 683.689 646.355 684.143 641.231C688.637 590.543 682.866 536.854 677.284 484.933C676.989 482.196 676.696 479.462 676.404 476.729C675.667 469.754 674.899 462.731 674.158 455.938C668.195 401.368 662.563 349.823 669.694 299.313C671.968 282.984 675.625 269.36 680.868 257.663C687.431 243.023 696.681 231.274 708.357 222.741C718.402 215.419 730.979 209.449 746.806 204.489C760.769 200.115 775.408 197.059 789.564 194.104C797.85 192.373 805.678 190.741 813.198 188.888C884.246 171.396 959.918 154.074 1044.54 135.934L1044.58 136.127Z" fill="white"/>
<path d="M1041.97 137.093C963.622 153.055 885.649 169.691 810.219 186.539C802.57 188.271 794.553 189.754 786.067 191.325C758.464 196.432 727.177 202.222 705.085 218.516C684.046 234.059 672.421 259.65 669.543 296.752C666.07 340.841 672.13 384.725 678.545 431.188C680.553 445.737 682.632 460.785 684.382 475.777C687.466 501.961 690.49 530.119 691.728 558.606C693.055 589.115 692.106 615.835 688.83 640.296C688.141 645.435 687.344 650.552 686.456 655.507C681.539 682.916 673.635 708.089 662.964 730.328C651.149 754.946 635.969 775.864 617.835 792.498C584.184 823.128 538.344 841.139 481.589 846.029C480.378 846.133 479.143 846.231 477.922 846.324C460.014 847.679 441.753 847.923 424.093 848.158C415.781 848.269 407.186 848.383 398.756 848.614C369.722 849.389 346.316 851.551 325.097 855.417C322.241 855.937 319.354 856.504 316.512 857.103C264.778 868.006 215.477 891.697 173.933 925.608C124.012 966.417 89.4999 1016.53 76.7512 1066.73C63.6277 1118.68 77.7457 1184.35 130.121 1209.33L130.036 1209.51C117.49 1203.52 106.638 1194.94 97.7772 1183.99C89.5701 1173.85 83.1712 1161.84 78.7612 1148.27C74.606 1135.49 72.3362 1121.76 72.013 1107.46C71.7006 1093.58 73.2294 1079.86 76.5585 1066.68C83.2839 1040.2 95.8751 1013.94 113.987 988.611C130.267 965.847 150.391 944.599 173.807 925.457C215.375 891.525 264.706 867.821 316.466 856.91C319.31 856.312 322.201 855.742 325.057 855.222C346.287 851.355 369.702 849.192 398.747 848.415C407.178 848.185 415.773 848.072 424.087 847.961C441.745 847.725 460.003 847.482 477.904 846.128C479.126 846.037 480.36 845.936 481.57 845.835C538.282 840.948 584.083 822.955 617.701 792.354C652.16 760.742 675.869 713.409 686.261 655.472C687.148 650.521 687.946 645.405 688.635 640.27C695.962 585.581 690.455 529.033 684.185 475.801C682.435 460.808 680.357 445.764 678.348 431.214C671.932 384.742 665.871 340.848 669.346 296.739C672.228 259.578 683.879 233.939 704.966 218.359C714.861 211.061 727.371 205.247 743.21 200.583C757.176 196.471 771.845 193.758 786.03 191.132C794.516 189.561 802.53 188.079 810.175 186.346C885.608 169.497 963.58 152.862 1041.93 136.901L1041.97 137.093Z" fill="white"/>
<path d="M1039.36 138.059C961.078 153.173 882.965 168.629 807.191 183.997C799.56 185.557 791.517 186.852 783.001 188.225C755.148 192.712 723.577 197.798 701.69 214.131C680.535 229.933 669.906 256.112 669.192 294.164C668.42 334.019 675.576 374.831 682.5 414.299C685.97 434.089 689.559 454.554 692.159 474.843C696.28 506.874 698.45 533.134 698.99 557.486C699.656 587.514 697.8 614.289 693.317 639.338C692.397 644.48 691.352 649.616 690.212 654.601C684.27 680.574 675.504 704.516 664.141 725.832C663.509 727.017 662.871 728.189 662.224 729.356C648.683 753.785 631.81 774.25 612.077 790.182C602.528 797.86 591.946 804.722 580.623 810.576C569.981 816.078 558.352 820.861 546.058 824.791C523.942 831.863 499.39 836.407 471.005 838.681C469.785 838.777 468.564 838.871 467.341 838.96C450.664 840.168 433.648 840.651 417.192 841.116C407.693 841.386 397.87 841.664 388.231 842.079C358.538 843.351 335.854 845.743 314.679 849.844C311.831 850.396 308.952 850.993 306.117 851.624C254.544 863.08 205.532 887.287 164.377 921.623C114.781 963.036 80.7864 1013.62 68.6528 1064.04C56.3499 1115.33 70.79 1181.09 122.193 1207.55L122.102 1207.73C98.1596 1195.4 80.5896 1173.93 71.2922 1145.65C67.0898 1132.86 64.7387 1119.15 64.3009 1104.9C63.8758 1091.03 65.2749 1077.27 68.4601 1064C74.8626 1037.39 87.1623 1010.93 105.018 985.361C121.058 962.394 140.986 940.898 164.248 921.472C205.43 887.115 254.472 862.894 306.076 851.43C308.912 850.801 311.795 850.201 314.643 849.649C335.829 845.548 358.521 843.153 388.224 841.883C397.865 841.468 407.689 841.189 417.187 840.921C433.642 840.454 450.655 839.972 467.327 838.763C468.55 838.675 469.771 838.583 470.99 838.486C531.306 833.655 577.415 817.805 611.954 790.03C659.677 751.499 680.749 695.093 690.022 654.558C691.16 649.576 692.205 644.445 693.124 639.304C703.434 581.691 697.92 521.163 691.966 474.868C689.368 454.583 685.778 434.12 682.308 414.332C675.385 374.855 668.225 334.035 668.998 294.161C669.317 277.134 671.591 262.782 675.95 250.287C681.326 234.878 689.947 222.66 701.575 213.976C711.376 206.662 723.896 200.973 739.848 196.583C753.903 192.716 768.68 190.334 782.973 188.032C791.486 186.66 799.526 185.366 807.153 183.806C882.927 168.438 961.04 152.982 1039.32 137.866L1039.36 138.059Z" fill="white"/>
<path d="M1036.75 139.024L804.165 181.455C796.57 182.841 788.518 183.947 779.997 185.118C751.873 188.983 719.998 193.365 698.303 209.746C677.324 225.588 667.414 253.119 668.849 291.576C670.228 328.546 678.346 365.923 686.197 402.07C691.316 425.632 696.606 449.995 699.945 473.909C709.981 545.786 708.084 602.914 693.977 653.694C688.124 674.759 680.326 694.461 670.719 712.478C667.807 717.939 664.731 723.241 661.492 728.383C646.214 752.634 627.652 772.647 606.326 787.866C586.559 801.971 563.738 812.348 536.56 819.583C514.857 825.362 490.666 829.095 460.431 831.331C444.474 832.512 428.178 833.205 412.42 833.876C376.758 835.396 339.882 836.967 304.272 844.267C249.653 855.467 197.975 880.839 154.823 917.64C105.555 959.657 72.0759 1010.7 60.5573 1061.36C49.4052 1110.41 61.4554 1176.52 114.268 1205.78L114.172 1205.95C90.5664 1192.87 73.1568 1171.11 63.8252 1143.02C55.3878 1117.62 54.159 1088.61 60.3655 1061.31C66.4478 1034.57 78.4542 1007.92 96.0518 982.114C111.852 958.943 131.584 937.201 154.697 917.49C176.048 899.28 199.65 883.758 224.848 871.353C250.257 858.844 276.964 849.666 304.228 844.075C339.851 836.77 376.737 835.198 412.408 833.678C428.164 833.007 444.458 832.312 460.412 831.132C504.528 827.871 560.967 819.986 606.208 787.704C658.091 750.681 682.469 694.365 693.784 653.64C707.885 602.886 709.78 545.783 699.747 473.935C696.41 450.03 691.118 425.669 686.002 402.111C678.15 365.956 670.03 328.57 668.651 291.581C667.213 253.059 677.149 225.471 698.182 209.588C707.896 202.254 720.433 196.688 736.512 192.572C750.666 188.951 765.563 186.902 779.968 184.923C788.489 183.751 796.536 182.645 804.129 181.261L1036.72 138.829L1036.75 139.024Z" fill="white"/>
<path d="M1023.63 133.369C960.511 142.1 908.476 150.721 859.874 160.498C836.269 165.238 812.769 170.403 790.025 175.848C783.146 177.495 775.989 178.945 768.412 180.48C749.368 184.336 729.676 188.324 712.604 195.894C703.428 199.952 695.941 204.577 689.715 210.033C670.528 226.739 662.699 254.169 666.448 291.561C668.374 310.905 672.296 329.675 675.877 345.484C679.669 362.221 684.562 379.344 689.292 395.905C696.093 419.708 703.124 444.321 707.29 468.972C709.85 483.985 711.456 498.676 712.066 512.639C713.285 540.575 711.464 568.892 706.655 596.804C703.63 614.02 699.397 630.683 694.074 646.327C689.479 659.806 684.018 672.852 677.842 685.106C668.601 703.447 657.592 720.246 645.116 735.036C631.85 750.761 616.827 764.327 600.461 775.352C585.868 785.184 569.794 793.25 551.319 800.008C516.908 812.612 481.729 818.541 454.926 822.298C441.714 824.12 428.401 825.678 415.525 827.186C378.447 831.524 343.427 835.623 308.822 845.668C280.721 853.926 253.789 866.082 228.767 881.804C209.539 893.885 191.311 908.457 174.591 925.113C170.61 929.081 166.68 933.193 162.915 937.33C146.718 955.148 130.958 976.526 116.074 1000.87C101.033 1025.39 90.6675 1048.02 84.3914 1070.05C80.8247 1082.49 78.802 1095.31 78.3758 1108.15C76.8725 1153.49 94.2056 1192.36 124.744 1212.13L124.609 1212.33C116.468 1207.06 109.202 1200.46 103.009 1192.71C97.127 1185.34 92.172 1176.9 88.2811 1167.6C80.9328 1150.03 77.422 1129.47 78.1295 1108.14C78.5554 1095.28 80.582 1082.44 84.1545 1069.98C90.4383 1047.93 100.811 1025.28 115.865 1000.74C130.757 976.383 146.526 954.995 162.735 937.165C166.503 933.023 170.434 928.91 174.419 924.939C191.151 908.269 209.394 893.685 228.638 881.595C253.677 865.862 280.633 853.696 308.751 845.436C343.376 835.385 378.406 831.286 415.494 826.945C428.368 825.439 441.68 823.879 454.889 822.058C481.68 818.304 516.843 812.377 551.232 799.779C569.688 793.028 585.746 784.972 600.322 775.151C632.35 753.572 658.358 723.241 677.622 684.998C683.792 672.754 689.248 659.717 693.84 646.249C699.157 630.615 703.388 613.964 706.41 596.762C711.217 568.868 713.037 540.568 711.818 512.65C711.21 498.696 709.603 484.013 707.046 469.013C702.881 444.376 695.852 419.769 689.053 395.974C684.322 379.41 679.427 362.283 675.635 345.539C672.05 329.722 668.129 310.944 666.202 291.585C664.532 274.937 665.194 260.032 668.168 247.281C671.82 231.618 679.016 219.023 689.553 209.848C695.799 204.376 703.306 199.738 712.504 195.669C729.601 188.089 749.306 184.098 768.363 180.238C775.938 178.704 783.095 177.254 789.969 175.609C812.715 170.161 836.218 164.995 859.827 160.256C908.434 150.478 960.473 141.857 1023.59 133.125L1023.63 133.369Z" fill="white"/>
<path d="M1010.5 127.71C947.895 133.626 893.847 141.69 845.27 152.364C821.553 157.555 798.21 163.568 775.888 170.237C769.965 172.007 763.917 173.646 757.514 175.382C738.34 180.583 718.514 185.961 701.961 194.999C693.584 199.552 686.77 204.561 681.127 210.316C659.518 232.351 659.911 266.648 664.043 291.541C666.943 309.163 671.673 326.366 676.674 343.904C681.051 359.254 686.489 374.4 692.245 390.434C700.791 414.233 709.626 438.843 714.633 464.031C717.65 479.003 719.266 493.81 719.434 508.041C719.751 534.551 716.513 561.67 709.539 590.949C705.635 607.333 700.464 623.488 694.167 638.962C688.839 652.01 682.708 664.601 675.938 676.385C665.873 693.919 654.074 710.012 640.867 724.221C626.996 739.144 611.426 752.137 594.591 762.839C579.842 772.216 563.513 780.157 544.67 787.116C510.48 799.77 475.807 807.739 449.42 813.266C439.652 815.311 429.89 817.245 420.447 819.115C382.843 826.562 347.323 833.594 313.374 847.067C288.001 857.135 263.832 870.74 241.541 887.502C224.675 900.184 209.242 914.93 194.362 932.579C190.929 936.653 187.551 940.858 184.322 945.076C170.155 963.612 157.333 984.62 142.042 1010.16C130.972 1028.54 117.123 1052.94 108.22 1078.73C103.97 1090.93 101.213 1103.44 100.021 1115.92C95.8275 1159.86 108.985 1198.19 135.218 1218.47L135.038 1218.71C128.081 1213.33 121.982 1206.7 116.906 1199C112.07 1191.66 108.134 1183.31 105.204 1174.17C99.6381 1156.82 97.7434 1136.66 99.7269 1115.89C100.921 1103.39 103.683 1090.86 107.94 1078.64C116.85 1052.82 130.711 1028.4 141.787 1010C157.083 984.46 169.909 963.445 184.084 944.896C187.317 940.675 190.697 936.467 194.132 932.387C209.028 914.722 224.475 899.962 241.361 887.266C263.674 870.487 287.863 856.87 313.261 846.791C347.234 833.309 382.766 826.272 420.385 818.824C429.825 816.954 439.587 815.021 449.353 812.974C475.731 807.447 510.391 799.482 544.564 786.837C563.386 779.887 579.698 771.955 594.429 762.588C627.532 741.544 654.869 712.489 675.68 676.236C682.442 664.461 688.569 651.883 693.89 638.847C700.182 623.388 705.349 607.248 709.248 590.878C716.218 561.624 719.452 534.528 719.137 508.04C718.968 493.827 717.355 479.039 714.34 464.084C709.337 438.918 700.505 414.319 691.965 390.529C686.206 374.489 680.767 359.34 676.388 343.98C671.383 326.434 666.653 309.224 663.749 291.584C661.069 275.447 660.772 260.78 662.863 247.989C665.398 232.48 671.472 219.734 680.914 210.104C686.578 204.329 693.415 199.302 701.817 194.736C718.4 185.682 738.244 180.301 757.434 175.095C763.834 173.359 769.881 171.718 775.8 169.951C798.13 163.279 821.481 157.265 845.206 152.071C893.795 141.397 947.853 133.33 1010.47 127.414L1010.5 127.71Z" fill="white"/>
<path d="M997.369 122.053C934.413 125.262 879.884 132.515 830.666 144.231C806.836 149.877 783.65 156.74 761.75 164.628C757.069 166.312 752.156 167.998 747.406 169.628C727.783 176.358 707.494 183.317 691.321 194.103C683.703 199.152 677.559 204.547 672.54 210.595C653.275 233.809 655.978 267.415 661.636 291.519C665.432 307.835 671.035 323.888 676.455 339.414L677.47 342.321C682.383 356.413 688.528 370.45 695.034 385.314C705.394 408.983 716.106 433.455 721.974 459.091C725.453 474.042 727.078 488.965 726.802 503.446C726.322 528.695 721.751 554.643 712.419 585.099C707.594 600.848 701.484 616.493 694.256 631.599C688.193 644.216 681.389 656.351 674.028 667.668C651.757 701.937 623.054 729.748 588.718 750.33C573.874 759.227 557.292 767.045 538.021 774.224C505.452 786.397 473.673 795.725 443.915 804.233C439.926 805.375 435.968 806.498 432.042 807.614C391.31 819.188 352.837 830.119 317.931 848.463C295.143 860.438 273.74 875.492 254.317 893.203C240.058 906.206 226.914 921.529 214.134 940.044C211.257 944.218 208.429 948.517 205.729 952.822C198.951 963.658 192.462 975.524 185.592 988.088C180.073 998.18 174.367 1008.61 168.011 1019.45C155.661 1040.33 141.666 1063.99 132.051 1087.43C127.09 1099.52 123.597 1111.73 121.67 1123.7C114.831 1166.21 123.814 1204.01 145.701 1224.83L145.464 1225.08C139.693 1219.59 134.76 1212.93 130.802 1205.29C127.016 1197.98 124.096 1189.72 122.124 1180.75C118.352 1163.6 118.078 1143.85 121.329 1123.65C123.26 1111.65 126.76 1099.42 131.731 1087.3C141.356 1063.84 155.36 1040.16 167.714 1019.27C174.065 1008.45 179.772 998.015 185.289 987.927C192.162 975.358 198.653 963.488 205.438 952.642C208.142 948.335 210.972 944.031 213.851 939.853C226.645 921.314 239.806 905.973 254.086 892.953C273.532 875.221 294.958 860.151 317.772 848.162C352.709 829.802 391.2 818.865 431.95 807.287C435.876 806.171 439.833 805.045 443.823 803.906C473.575 795.399 505.345 786.076 537.904 773.906C557.154 766.733 573.719 758.925 588.545 750.038C622.838 729.484 651.502 701.708 673.744 667.483C681.096 656.179 687.894 644.056 693.949 631.454C701.169 616.363 707.273 600.733 712.094 585.001C721.416 554.575 725.982 528.658 726.462 503.443C726.737 488.992 725.115 474.097 721.642 459.172C715.781 433.568 705.075 409.111 694.72 385.456C688.211 370.586 682.064 356.541 677.148 342.438L676.133 339.531C670.71 323.997 665.103 307.935 661.303 291.601C655.626 267.421 652.923 233.701 672.278 210.379C677.32 204.304 683.486 198.887 691.133 193.821C707.341 183.011 727.653 176.044 747.297 169.308C752.046 167.679 756.959 165.993 761.637 164.31C783.548 156.419 806.747 149.552 830.59 143.903C879.828 132.183 934.376 124.926 997.353 121.717L997.369 122.053Z" fill="white"/>
<path d="M984.238 116.395C921.812 116.876 865.23 123.504 816.066 136.098C792.124 142.199 769.096 149.91 747.619 159.016C744.518 160.331 741.316 161.663 738.218 162.954C717.759 171.474 696.6 180.285 680.689 193.201C673.827 198.729 668.357 204.507 663.96 210.869C647.099 235.271 652.082 268.181 659.231 291.494C663.622 305.944 669.558 320.039 675.299 333.67C676.294 336.028 677.284 338.385 678.267 340.739C683.667 353.672 690.46 366.694 697.65 380.479C709.874 403.916 722.513 428.15 729.32 454.151C733.316 469.421 734.905 484.042 734.176 498.855C732.652 529.839 723.781 556.885 715.307 579.255C709.574 594.384 702.526 609.52 694.352 624.242C687.558 636.42 680.08 648.099 672.127 658.954C648.558 691.146 618.522 717.681 582.852 737.821C568.012 746.203 551.176 753.893 531.38 761.335C511.413 768.869 492.43 775.688 474.07 782.283C461.592 786.765 449.806 790.999 438.423 795.202C395.395 811.087 356.971 826.165 322.499 849.857C302.308 863.735 283.668 880.235 267.098 898.9C255.222 912.278 244.677 927.724 233.91 947.505C231.593 951.776 229.314 956.169 227.14 960.563C223.851 967.244 220.673 974.276 217.311 981.719C210.858 996.002 203.543 1012.19 193.983 1028.74C190.342 1035.04 186.541 1041.42 182.864 1047.59C173.406 1063.47 163.627 1079.88 155.881 1096.13C150.195 1108.06 145.967 1119.96 143.318 1131.49C133.889 1172.54 138.702 1209.81 156.19 1231.2L155.886 1231.45C151.306 1225.85 147.541 1219.16 144.694 1211.57C141.96 1204.29 140.057 1196.13 139.038 1187.33C137.076 1170.38 138.423 1151.04 142.934 1131.4C145.589 1119.85 149.825 1107.92 155.525 1095.96C163.278 1079.7 173.062 1063.28 182.525 1047.39C186.201 1041.22 190.002 1034.84 193.642 1028.54C203.194 1012.01 210.505 995.836 216.954 981.56C220.318 974.113 223.497 967.08 226.79 960.392C228.966 955.993 231.246 951.596 233.566 947.32C244.347 927.51 254.91 912.042 266.805 898.642C283.395 879.954 302.058 863.431 322.277 849.536C337.847 838.833 355.574 829.027 376.468 819.555C395.172 811.075 414.708 803.541 438.287 794.835C449.671 790.634 461.458 786.4 473.937 781.917C492.294 775.322 511.277 768.503 531.24 760.972C551.017 753.537 567.835 745.855 582.658 737.485C618.28 717.372 648.274 690.875 671.81 658.727C679.754 647.885 687.222 636.221 694.008 624.057C702.173 609.352 709.215 594.233 714.939 579.121C723.404 556.779 732.262 529.769 733.784 498.84C734.511 484.067 732.927 469.484 728.94 454.256C722.145 428.299 709.516 404.083 697.302 380.665C690.108 366.871 683.312 353.843 677.906 340.895C676.923 338.541 675.931 336.187 674.939 333.829C669.194 320.19 663.254 306.085 658.857 291.617C654.206 276.45 651.979 262.247 652.24 249.403C652.548 234.189 656.383 221.152 663.638 210.655C668.056 204.262 673.553 198.456 680.442 192.905C696.396 179.954 717.581 171.133 738.066 162.601C741.163 161.311 744.366 159.978 747.465 158.664C768.958 149.552 792.007 141.836 815.967 135.729C842.072 129.043 870.447 123.991 900.3 120.717C926.686 117.823 954.926 116.241 984.233 116.014L984.238 116.395Z" fill="white"/>
<path d="M971.105 110.735C908.335 108.517 851.26 114.313 801.465 127.962C777.411 134.52 754.542 143.078 733.489 153.399C732.487 153.89 731.485 154.381 730.48 154.873C708.573 165.597 685.919 176.686 670.061 192.292C663.916 198.338 659.116 204.502 655.384 211.134C640.991 236.719 648.225 268.939 656.827 291.461C661.834 304.685 668.235 317.467 674.424 329.827C675.956 332.883 677.538 336.044 679.067 339.145C684.889 350.96 692.259 362.987 700.064 375.719C714.26 398.88 728.939 422.827 736.667 449.203C741.137 464.463 742.734 479.2 741.551 494.258C739.219 523.923 728.945 549.831 718.193 573.407C711.561 587.944 703.571 602.571 694.445 616.881C686.92 628.618 678.77 639.839 670.221 650.236C645.522 680.302 614.152 705.561 576.985 725.307C562.101 733.216 545.499 740.567 524.739 748.438C485.351 763.433 457.037 775.066 432.935 786.157C384.999 808.216 353.34 827.679 327.076 851.233C309.492 867.002 293.617 884.95 279.887 904.58C270.363 918.199 262.282 933.734 253.692 954.95C251.937 959.3 250.209 963.787 248.558 968.288C247.007 972.545 245.503 976.907 243.91 981.525C238.028 998.58 231.362 1017.91 219.958 1038.02C213.948 1048.62 207.33 1059.2 200.931 1069.42C193.659 1081.04 186.139 1093.06 179.714 1104.82C173.272 1116.62 168.309 1128.21 164.969 1139.27C153.018 1178.82 153.662 1215.57 166.69 1237.57L166.31 1237.79C162.925 1232.08 160.328 1225.36 158.59 1217.84C156.911 1210.58 156.025 1202.52 155.955 1193.89C155.816 1177.14 158.786 1158.2 164.546 1139.14C167.897 1128.06 172.87 1116.44 179.326 1104.61C185.757 1092.83 193.281 1080.81 200.557 1069.19C206.954 1058.97 213.569 1048.4 219.575 1037.81C230.957 1017.73 237.617 998.42 243.493 981.386C245.086 976.764 246.593 972.4 248.144 968.141C249.797 963.634 251.527 959.144 253.282 954.789C261.887 933.541 269.98 917.979 279.526 904.332C293.275 884.674 309.173 866.701 326.781 850.909C353.081 827.323 384.773 807.84 432.751 785.76C456.861 774.666 485.184 763.028 524.583 748.03C545.327 740.164 561.912 732.821 576.779 724.922C613.895 705.202 645.22 679.98 669.882 649.959C678.419 639.576 686.558 628.367 694.074 616.648C703.189 602.354 711.169 587.746 717.793 573.227C728.529 549.686 738.787 523.825 741.114 494.228C742.294 479.226 740.701 464.539 736.246 449.333C728.535 423.014 713.872 399.091 699.691 375.956C691.882 363.215 684.505 351.18 678.674 339.347C677.147 336.247 675.565 333.086 674.034 330.03C667.838 317.66 661.433 304.869 656.418 291.623C650.803 276.925 647.613 262.953 646.934 250.096C646.139 235.034 648.857 221.853 655.004 210.922C658.756 204.252 663.582 198.057 669.755 191.982C685.667 176.325 708.352 165.219 730.292 154.481C731.296 153.989 732.301 153.498 733.3 153.007C754.377 142.675 777.274 134.106 801.354 127.541C851.193 113.881 908.312 108.08 971.126 110.299L971.105 110.735Z" fill="white"/>
<path d="M722.605 564.696C722.087 565.667 721.575 566.624 721.068 567.563C713.544 581.531 704.615 595.651 694.529 609.524C686.275 620.814 677.452 631.579 668.308 641.521C655.251 655.73 640.297 669.002 623.86 680.975C607.986 692.537 590.24 703.242 571.111 712.795C552.368 722.155 532.932 729.869 518.093 735.544C483.43 748.854 452.932 762.841 427.444 777.115C386.164 800.235 355.724 824.222 331.647 852.607C317.122 869.731 303.83 889.325 293.164 909.328C292.999 909.638 292.835 909.946 292.671 910.257C283.568 927.472 278.06 945.488 273.466 962.391C272.277 966.793 271.098 971.375 269.967 976.011C269.353 978.555 268.754 981.111 268.121 983.816C263.662 1002.9 258.606 1024.52 245.925 1047.31C238.201 1061.19 229.12 1074.72 220.337 1087.81C214.665 1096.27 208.802 1105.01 203.537 1113.52C196.3 1125.22 190.604 1136.5 186.61 1147.06C172.222 1185.06 168.698 1221.29 177.184 1243.95L176.725 1244.13C172.374 1232.5 171.073 1217.81 172.856 1200.46C174.561 1183.89 179.158 1165.36 186.153 1146.89C190.159 1136.3 195.867 1124.99 203.123 1113.26C208.393 1104.74 214.26 1096 219.933 1087.54C228.712 1074.46 237.788 1060.93 245.5 1047.07C258.15 1024.34 263.196 1002.75 267.649 983.706C268.281 980.999 268.879 978.442 269.494 975.897C270.628 971.258 271.806 966.671 272.998 962.265C277.6 945.334 283.117 927.287 292.241 910.03C303.006 889.671 316.503 869.708 331.278 852.292C343.705 837.643 357.559 824.404 373.629 811.822C389.108 799.705 406.633 788.212 427.208 776.691C452.716 762.405 483.237 748.408 517.921 735.09C532.751 729.421 552.173 721.713 570.895 712.362C609.711 692.979 642.365 669.033 667.952 641.193C677.084 631.265 685.895 620.514 694.138 609.24C704.211 595.384 713.128 581.285 720.64 567.335C732.394 545.507 745.201 519.712 748.434 489.618C750.071 474.385 748.47 459.599 743.544 444.415C734.892 417.748 718.105 394.178 701.87 371.38C693.52 359.653 685.632 348.578 679.436 337.805C677.451 334.353 675.385 330.837 673.387 327.436C666.635 315.946 659.655 304.067 653.974 291.64C647.409 277.399 643.252 263.656 641.619 250.797C639.725 235.886 641.319 222.566 646.359 211.205C649.469 204.193 653.623 197.608 659.059 191.073C673.589 173.6 695.764 160.425 719.126 147.362C739.496 135.971 762.873 126.289 786.732 119.363C813.183 111.645 842.099 106.557 872.674 104.244C899.913 102.183 928.625 102.301 958.013 104.594L957.974 105.083C894.863 100.157 837.296 105.119 786.87 119.835C763.045 126.75 739.703 136.416 719.366 147.79C696.045 160.831 673.914 173.98 659.435 191.387C654.029 197.887 649.9 204.435 646.808 211.404C637.551 232.28 640.253 260.703 654.421 291.436C660.092 303.84 667.066 315.709 673.81 327.188C675.81 330.59 677.877 334.109 679.862 337.56C686.046 348.314 693.927 359.381 702.271 371.095C710.236 382.281 718.474 393.847 725.838 406.007C734.187 419.791 740.131 432.303 744.012 444.262C748.96 459.514 750.568 474.365 748.924 489.67C747.475 503.167 744.065 516.687 738.503 531.003C733.786 543.122 727.934 554.702 722.605 564.696Z" fill="white"/>
<path d="M738.279 537.388C733.572 546.218 728.523 554.418 723.945 561.721C715.526 575.15 705.658 588.76 694.614 602.169C685.637 613.007 676.143 623.317 666.394 632.809C639.72 658.813 606.629 680.884 565.236 700.285C547.186 708.747 528.765 715.975 511.447 722.65C477.319 735.863 447.212 751.143 421.956 768.07C384.814 792.964 357.571 820.259 336.222 853.97C324.057 873.178 313.419 894.601 305.455 915.924C298.788 933.772 295.766 952.337 293.238 969.825C292.613 974.204 291.985 978.882 291.374 983.726C291.223 984.938 291.075 986.162 290.923 987.402C288.445 1007.77 285.64 1030.82 272.561 1055.35C272.34 1055.77 272.119 1056.18 271.891 1056.59C262.875 1073.1 251.473 1088.78 240.444 1103.95C236.072 1109.96 231.551 1116.18 227.354 1122.22C219.159 1134.02 212.906 1144.69 208.243 1154.85C191.281 1191.78 183.779 1226.6 187.667 1250.36L187.134 1250.44C185.212 1238.7 186.116 1223.68 189.744 1207.01C193.313 1190.62 199.541 1172.5 207.751 1154.62C212.428 1144.44 218.695 1133.74 226.909 1121.91C231.109 1115.86 235.632 1109.64 240.004 1103.63C251.022 1088.48 262.413 1072.81 271.413 1056.34C285.02 1031.43 287.868 1008 290.382 987.338C290.533 986.1 290.682 984.874 290.831 983.661C291.442 978.812 292.07 974.132 292.698 969.75C295.228 952.232 298.259 933.634 304.943 915.738C312.92 894.382 323.575 872.924 335.759 853.684C346.338 836.977 358.257 822.026 372.195 807.976C386.55 793.505 402.725 780.305 421.65 767.624C446.938 750.677 477.083 735.376 511.245 722.149C528.557 715.477 546.967 708.254 565 699.799C606.337 680.424 639.378 658.386 666.011 632.424C675.743 622.945 685.225 612.65 694.189 601.827C705.219 588.437 715.075 574.847 723.478 561.437C737.621 538.872 751.763 514.385 755.746 485.001C757.84 469.54 756.233 454.653 750.832 439.493C741.212 412.485 721.354 388.28 703.833 366.923C695.017 356.178 686.691 346.028 680.188 336.261C677.842 332.737 675.391 329.142 673.022 325.666C665.606 314.791 657.939 303.547 651.52 291.653C644.014 277.851 638.891 264.338 636.29 251.49C633.305 236.733 633.779 223.272 637.702 211.484C640.153 204.116 643.636 197.14 648.345 190.16C661.506 170.658 683.321 155.348 704.937 141.709C724.895 129.114 748.118 118.558 772.097 111.178C798.72 102.942 827.907 97.8363 858.844 96.0031C886.51 94.3648 915.458 95.3318 944.888 98.8797L944.823 99.4144C882.266 91.8731 822.593 96.119 772.255 111.691C748.322 119.056 725.142 129.593 705.224 142.162C683.659 155.769 661.899 171.039 648.793 190.459C644.11 197.398 640.65 204.33 638.213 211.65C630.971 233.416 635.864 261.735 651.993 291.392C658.398 303.262 666.058 314.494 673.466 325.358C675.837 328.835 678.288 332.43 680.637 335.957C687.125 345.703 695.443 355.843 704.249 366.578C721.795 387.969 741.686 412.213 751.339 439.309C756.769 454.554 758.384 469.523 756.279 485.072C754.45 498.565 750.39 512.007 743.86 526.167C742.105 530.001 740.221 533.747 738.279 537.388Z" fill="white"/>
<path d="M749.445 520.96C749.378 521.086 749.311 521.211 749.244 521.337C742.56 533.798 734.501 545.235 726.819 555.883C717.498 568.804 706.689 581.901 694.696 594.815C685 605.199 674.833 615.051 664.48 624.097C637.047 648.088 603.647 668.322 559.364 687.775C543.418 694.781 526.845 701.207 510.819 707.423C508.814 708.2 506.809 708.979 504.805 709.758C470.614 723.099 440.895 739.674 416.474 759.021C383.035 785.514 358.281 817.016 340.798 855.328C331.212 876.336 323.412 899.248 318.241 921.586C314.161 939.212 313.48 956.492 313.012 977.253C312.925 981.465 312.85 985.973 312.781 991.438L312.779 991.744C312.674 1002.3 312.555 1014.27 310.659 1026.75C308.482 1041.09 304.289 1053.89 297.864 1065.88C287.836 1084.58 274.168 1101.82 260.948 1118.5C257.709 1122.59 254.359 1126.81 251.178 1130.92C242.057 1142.7 235.091 1153.08 229.883 1162.64C210.707 1197.86 199.143 1232.17 198.152 1256.78L197.565 1256.75C198.049 1244.7 201.189 1229.76 206.645 1213.56C212.109 1197.33 219.968 1179.63 229.368 1162.36C234.591 1152.77 241.574 1142.37 250.714 1130.56C253.898 1126.45 257.247 1122.22 260.487 1118.14C273.69 1101.48 287.342 1084.25 297.346 1065.6C297.39 1065.52 297.435 1065.44 297.48 1065.35C311.723 1038.64 311.982 1012.64 312.191 991.737L312.194 991.43C312.263 985.963 312.337 981.454 312.425 977.241C312.894 956.444 313.576 939.133 317.669 921.452C322.848 899.076 330.662 876.127 340.264 855.083C348.82 836.335 358.803 819.672 370.789 804.138C383.704 787.398 398.529 772.489 416.111 758.56C440.578 739.176 470.347 722.572 504.593 709.209C506.597 708.43 508.604 707.652 510.609 706.875C526.629 700.662 543.197 694.238 559.129 687.238C603.357 667.812 636.709 647.608 664.097 623.657C674.436 614.624 684.588 604.785 694.27 594.417C706.248 581.52 717.04 568.441 726.345 555.541C743.017 532.437 758.371 509.301 763.082 480.39C765.638 464.701 764.024 449.715 758.146 434.578C747.527 407.234 725.258 383.516 705.609 362.587C696.41 352.79 687.72 343.535 680.969 334.723C678.372 331.332 675.66 327.873 673.036 324.528C664.832 314.07 656.35 303.256 649.093 291.672C640.65 278.29 634.557 265.006 630.984 252.19C626.913 237.582 626.268 223.984 629.071 211.775C630.809 204.205 633.537 196.989 637.405 189.733C637.489 189.576 637.573 189.418 637.66 189.26C649.804 166.768 672.422 149.017 690.771 136.065C710.319 122.268 733.388 110.834 757.485 102.998C784.282 94.2434 813.739 89.1196 845.041 87.7699C873.129 86.5596 902.315 88.3763 931.79 93.1753L931.695 93.7565C887.839 86.6173 822.047 82.5258 757.668 103.559C733.626 111.374 710.611 122.782 691.11 136.546C672.813 149.459 650.262 167.154 638.178 189.539C634.193 196.907 631.409 204.222 629.646 211.906C624.454 234.527 631.538 262.744 649.591 291.36C656.831 302.917 665.304 313.719 673.498 324.166C676.124 327.512 678.837 330.973 681.436 334.365C688.169 343.154 696.848 352.398 706.037 362.184C725.722 383.15 748.034 406.913 758.694 434.363C764.612 449.601 766.236 464.688 763.662 480.483C761.478 493.87 756.827 507.116 749.445 520.96Z" fill="white"/>
<path d="M759.272 508.403C757.839 511.091 756.288 513.791 754.615 516.511C747.297 528.415 738.65 539.167 729.693 550.046C719.309 562.659 707.889 574.898 694.779 587.464C684.371 597.388 673.533 606.783 662.564 615.386C634.757 637.224 601.117 655.691 553.491 675.264C541.664 680.126 529.487 684.797 517.71 689.314C511.299 691.774 504.67 694.314 498.161 696.864C463.673 710.422 434.347 728.289 410.994 749.969C380.137 778.613 358.673 813.517 345.372 856.679C338.345 879.482 333.383 903.882 331.022 927.239C329.126 946.002 330.84 964.142 332.656 983.348L332.781 984.676C333.069 987.678 333.366 990.716 333.664 993.791C333.838 995.562 334.012 997.345 334.186 999.144C335.304 1010.37 336.307 1022.39 335.281 1035.02C334.089 1049.68 330.346 1062.81 323.837 1075.17C312.997 1095.74 297.071 1114.13 281.666 1131.9C279.467 1134.44 277.193 1137.07 275.001 1139.62C264.722 1151.61 257.263 1161.4 251.522 1170.44C230.339 1203.8 214.703 1237.61 208.625 1263.2L208.005 1263.05C214.099 1237.4 229.764 1203.52 250.985 1170.1C256.741 1161.03 264.22 1151.21 274.518 1139.21C276.713 1136.65 278.986 1134.02 281.187 1131.49C296.402 1113.93 312.13 1095.77 322.925 1075.53C323.042 1075.31 323.158 1075.09 323.274 1074.87C337.105 1048.61 336.028 1024.09 333.554 999.204C333.379 997.406 333.205 995.623 333.032 993.851C332.731 990.776 332.436 987.741 332.147 984.735L332.021 983.408C330.203 964.17 328.485 945.999 330.388 927.174C332.751 903.775 337.722 879.332 344.762 856.489C358.096 813.218 379.619 778.221 410.559 749.499C433.972 727.767 463.365 709.857 497.929 696.269C504.44 693.72 511.069 691.177 517.481 688.718C529.254 684.204 541.428 679.534 553.248 674.674C600.819 655.125 634.412 636.684 662.171 614.886C673.123 606.293 683.946 596.912 694.338 587.002C707.429 574.455 718.833 562.234 729.2 549.64C744.939 530.523 764.528 506.732 770.403 475.771C773.425 459.854 771.803 444.77 765.445 429.658C753.8 401.976 729.016 378.805 707.153 358.361C697.654 349.48 688.682 341.091 681.741 333.183C679.036 330.102 676.217 326.956 673.49 323.913C664.344 313.708 654.888 303.156 646.656 291.69C637.275 278.707 630.213 265.653 625.665 252.889C620.512 238.426 618.751 224.692 620.431 212.066C621.509 203.964 623.645 196.21 626.961 188.36C631.402 177.847 638.063 167.689 647.318 157.302C655.151 148.514 664.725 139.72 676.591 130.418C695.728 115.416 718.643 103.106 742.861 94.8171C769.831 85.5408 799.562 80.4003 831.225 79.5349C859.738 78.7552 889.161 81.4234 918.68 87.4673L918.552 88.0925C856.229 75.3346 793.907 77.9369 743.068 95.4211C718.916 103.688 696.065 115.963 676.985 130.921C651.42 150.963 635.711 169.291 627.549 188.609C624.254 196.406 622.133 204.105 621.061 212.151C617.064 242.188 633.055 271.782 647.172 291.318C655.383 302.755 664.829 313.295 673.964 323.488C676.692 326.532 679.513 329.68 682.219 332.762C689.139 340.646 698.101 349.025 707.588 357.895C729.499 378.382 754.335 401.603 766.032 429.411C772.44 444.643 774.075 459.847 771.03 475.892C768.966 486.766 765.098 497.476 759.272 508.403Z" fill="white"/>
<path d="M768.466 497.886C758.703 516.197 744.614 531.294 732.561 544.21C721.223 556.362 708.889 568.106 694.856 580.113C683.744 589.574 672.234 598.513 660.646 606.678C625.928 631.163 585.804 648.101 547.615 662.755C539.818 665.748 531.842 668.718 524.13 671.589C513.421 675.574 502.348 679.697 491.517 683.969C456.621 697.788 427.684 716.946 405.512 740.91C376.831 771.91 358.652 810.219 349.939 858.024C345.452 882.638 343.329 908.525 343.799 932.888C344.16 951.679 347.83 969.372 351.717 988.103C351.992 989.43 352.269 990.761 352.543 992.097L352.694 992.822C353.642 997.377 354.621 1002.09 355.586 1006.85C357.927 1018.27 360.066 1030.61 359.874 1043.46C359.65 1058.38 356.358 1071.79 349.807 1084.45C338.308 1106.68 320.104 1125.88 302.501 1144.44C301.267 1145.74 300.038 1147.03 298.819 1148.33C287.231 1160.58 279.316 1169.8 273.155 1178.23C250.257 1209.56 230.549 1242.87 219.084 1269.62L218.453 1269.35C229.935 1242.56 249.671 1209.2 272.599 1177.83C278.778 1169.37 286.71 1160.13 298.319 1147.85C299.538 1146.56 300.767 1145.27 302.003 1143.97C319.573 1125.44 337.738 1106.28 349.196 1084.14C363.423 1056.64 359.606 1029.89 354.912 1006.98C353.947 1002.23 352.968 997.516 352.022 992.962L351.871 992.237C351.595 990.9 351.319 989.57 351.045 988.242C347.151 969.479 343.474 951.756 343.111 932.902C342.641 908.494 344.77 882.558 349.264 857.902C353.395 835.238 359.517 815.145 367.977 796.477C377.416 775.653 389.874 756.802 405.008 740.445C427.25 716.406 456.271 697.19 491.264 683.332C502.101 679.056 513.177 674.932 523.888 670.946C531.6 668.075 539.573 665.108 547.367 662.116C585.515 647.476 625.594 630.561 660.248 606.119C671.819 597.965 683.313 589.04 694.409 579.592C708.421 567.603 720.736 555.878 732.058 543.744C749.443 525.114 771.079 501.927 777.725 471.162C781.213 455.017 779.583 439.836 772.745 424.748C760.04 396.723 732.646 374.164 708.474 354.26C698.762 346.261 689.589 338.708 682.512 331.652C679.894 329.042 677.174 326.373 674.543 323.792C664.253 313.693 653.612 303.249 644.218 291.718C633.895 279.117 625.86 266.291 620.339 253.598C614.108 239.277 611.231 225.405 611.788 212.368C612.15 203.901 613.613 195.76 616.261 187.471C619.829 176.306 625.911 165.05 634.338 154.014C641.718 144.351 651.161 134.515 662.407 124.782C681.131 108.578 703.893 95.3902 728.232 86.6432C755.378 76.8466 785.379 71.6859 817.406 71.3057C846.34 70.9618 876.003 74.4807 905.57 81.7662L905.405 82.4325C842.756 66.9941 779.918 68.7184 728.466 87.2883C704.206 96.0083 681.519 109.152 662.858 125.301C638.669 146.234 623.639 166.639 616.916 187.68C614.287 195.908 612.835 203.993 612.474 212.398C611.149 243.417 629.293 272.416 644.749 291.283C654.119 302.786 664.746 313.215 675.023 323.3C677.654 325.882 680.374 328.554 682.996 331.165C690.05 338.198 699.211 345.742 708.91 353.729C720.539 363.305 733.718 374.158 745.258 385.864C758.479 399.276 767.675 411.902 773.37 424.464C776.663 431.728 778.784 439.188 779.675 446.639C780.632 454.652 780.203 462.952 778.397 471.307C776.333 480.867 772.831 489.699 768.466 497.886Z" fill="white"/>
<path d="M777.302 488.696C774.074 494.75 770.104 500.779 765.357 506.851C756.008 518.812 745.075 529.203 735.431 538.374C723.274 549.931 709.647 561.501 694.933 572.761C683.128 581.754 670.946 590.236 658.725 597.966C623.669 620.164 585.003 634.775 541.739 650.245C537.894 651.619 533.979 653.01 530.191 654.353C515.28 659.645 499.862 665.116 484.874 671.074C449.504 685.179 420.959 705.627 400.033 731.851C373.636 764.93 358.316 807.834 354.506 859.367C352.55 885.811 353.263 913.186 356.571 938.534C359.062 957.619 364.622 975.201 370.508 993.815C371.107 995.707 371.706 997.605 372.307 999.513C373.806 1004.26 375.408 1009.37 376.983 1014.54C380.311 1025.4 383.804 1038.33 384.464 1051.9C385.204 1067.09 382.364 1080.78 375.779 1093.73C363.727 1117.45 343.222 1137.2 323.392 1156.3L322.637 1157.02C312.93 1166.38 302.835 1176.36 294.788 1186.02C270.259 1215.47 247.086 1247.44 229.539 1276.03L228.913 1275.65C246.478 1247.03 269.671 1215.03 294.223 1185.55C302.294 1175.86 312.405 1165.86 322.127 1156.49L322.881 1155.77C342.667 1136.71 363.128 1117 375.122 1093.4C388.974 1066.14 383.864 1039.5 376.277 1014.76C374.703 1009.59 373.099 1004.48 371.602 999.731C371.003 997.824 370.402 995.924 369.805 994.034C363.909 975.388 358.339 957.774 355.84 938.626C352.524 913.23 351.81 885.803 353.769 859.31C355.558 835.133 359.869 812.7 366.582 792.64C374.253 769.72 385.313 749.112 399.456 731.388C420.462 705.063 449.109 684.539 484.6 670.388C499.601 664.426 515.025 658.951 529.944 653.656C533.73 652.312 537.646 650.922 541.49 649.547C584.713 634.093 623.337 619.497 658.332 597.34C670.534 589.621 682.698 581.152 694.487 572.171C709.18 560.927 722.785 549.377 734.924 537.836C753.953 519.747 777.634 497.232 785.054 466.537C789.012 450.165 787.376 434.887 780.052 419.827C766.253 391.453 734.828 368.615 709.578 350.263C699.742 343.115 690.452 336.365 683.295 330.111C681.039 328.141 678.708 326.122 676.452 324.17C664.735 314.031 652.619 303.543 641.793 291.733C624.916 273.409 604.514 244.818 603.16 212.662C602.786 203.784 603.576 195.249 605.574 186.575C610.726 163.836 625.08 141.146 648.234 119.136C666.546 101.729 689.154 87.6628 713.614 78.4581C740.934 68.1402 771.208 62.9604 803.6 63.0663C818.458 63.1138 833.724 64.2955 848.976 66.575C863.545 68.7524 878.178 71.9427 892.47 76.0564L892.267 76.7638C829.292 58.6345 765.937 59.4808 713.872 79.1469C689.502 88.3179 666.981 102.33 648.738 119.67C625.691 141.576 611.409 164.143 606.289 186.738C604.305 195.349 603.522 203.818 603.892 212.631C605.235 244.565 625.538 273.001 642.333 291.233C653.13 303.015 665.231 313.485 676.931 323.614C679.187 325.566 681.52 327.584 683.778 329.557C690.91 335.788 700.186 342.531 710.009 349.668C722.715 358.902 737.116 369.368 749.823 380.906C764.425 394.165 774.529 406.791 780.712 419.506C784.239 426.759 786.486 434.242 787.39 441.742C788.365 449.823 787.819 458.225 785.766 466.71C783.968 474.16 781.167 481.448 777.302 488.696Z" fill="white"/>
<path d="M785.856 480.45C781.987 487.705 776.968 494.856 770.725 502.024C760.613 513.64 748.756 523.68 738.294 532.539C725.123 543.692 710.56 554.751 695.006 565.409C682.513 573.937 669.66 581.961 656.801 589.257C621.432 609.341 582.816 622.153 541.936 635.719C539.913 636.391 537.889 637.061 535.862 637.735C516.865 644.051 497.22 650.58 478.231 658.181C442.347 672.585 414.194 694.322 394.552 722.789C369.88 758.544 357.942 804.948 359.066 860.711C359.628 888.604 363.277 918.247 369.34 944.181C373.917 963.763 381.367 981.483 389.256 1000.24C390.19 1002.47 391.127 1004.69 392.062 1006.93C393.936 1011.41 396.152 1016.73 398.377 1022.25C402.517 1032.48 407.472 1046.05 409.033 1060.33C410.724 1075.8 408.344 1089.76 401.752 1103.02C396.296 1113.9 388.322 1124.86 377.373 1136.54C367.973 1146.57 357.809 1155.69 346.453 1165.73C336.035 1174.87 325.138 1184.57 316.416 1193.83C290.581 1221.26 264.869 1251.08 239.989 1282.45L239.375 1281.97C264.268 1250.58 289.998 1220.74 315.845 1193.29C324.591 1184 335.505 1174.29 345.934 1165.14C364.969 1148.31 388.663 1127.37 401.049 1102.67C415.112 1074.38 407.725 1047.44 397.647 1022.54C395.424 1017.03 393.209 1011.71 391.337 1007.24C390.401 1005 389.464 1002.77 388.531 1000.55C380.63 981.757 373.167 964.006 368.575 944.36C362.5 918.374 358.844 888.673 358.282 860.727C357.155 804.795 369.142 758.235 393.908 722.343C403.404 708.581 414.983 696.264 428.322 685.737C442.634 674.441 459.33 664.926 477.942 657.453C496.951 649.843 516.607 643.309 535.617 636.991C537.645 636.318 539.669 635.644 541.692 634.973C582.535 621.421 621.115 608.618 656.416 588.573C669.256 581.287 682.092 573.276 694.565 564.761C710.096 554.117 724.638 543.075 737.789 531.938C758.457 514.436 784.179 492.652 792.382 461.925C796.825 445.28 795.182 429.903 787.359 414.919C772.491 386.161 738.109 364.119 710.483 346.407C700.603 340.071 691.271 334.088 684.079 328.583C682.596 327.448 681.103 326.307 679.602 325.162C666.046 314.816 652.027 304.117 639.367 291.76C621.133 274.036 598.551 245.98 594.531 212.969C593.409 203.76 593.525 194.838 594.886 185.69C596.744 172.957 601.288 160.087 608.388 147.437C614.871 135.887 623.508 124.47 634.057 113.502C651.952 94.8946 674.405 79.9498 698.989 70.2858C726.481 59.4439 757.031 54.2467 789.786 54.8378C804.816 55.1084 820.232 56.6231 835.604 59.3402C850.327 61.9421 865.052 65.6483 879.368 70.3594L879.122 71.1044C816.739 50.5758 751.188 50.5441 699.276 71.0147C674.798 80.6394 652.439 95.5191 634.618 114.046C612.645 136.89 599.174 161.704 595.658 185.806C594.307 194.884 594.192 203.738 595.305 212.875C599.299 245.658 621.767 273.563 639.911 291.198C652.538 303.522 666.536 314.206 680.075 324.538C681.576 325.683 683.07 326.824 684.554 327.96C691.718 333.446 701.039 339.421 710.904 345.746C738.609 363.51 773.091 385.616 788.054 414.558C791.824 421.781 794.203 429.283 795.122 436.851C796.11 444.995 795.443 453.499 793.141 462.127C791.474 468.355 789.061 474.438 785.856 480.45Z" fill="white"/>
<path d="M794.222 472.875C789.814 481.142 783.808 489.187 776.093 497.196C765.177 508.526 752.414 518.185 741.156 526.706C726.928 537.475 711.423 548.024 695.078 558.062C681.912 566.122 668.385 573.687 654.876 580.552C621.617 597.458 586.199 608.179 548.701 619.53C542.57 621.385 536.232 623.305 529.981 625.228C508.014 631.995 489.675 637.997 471.585 645.291C435.163 660.006 407.401 683.03 389.068 713.727C366.032 752.298 357.47 802.205 363.619 862.058C366.675 891.792 373.237 922.964 382.098 949.832C388.774 970.072 398.165 988.12 408.108 1007.23C409.34 1009.59 410.576 1011.97 411.809 1014.36C414.011 1018.61 416.906 1024.23 419.759 1029.95C431.808 1054.07 442.179 1082.72 427.716 1112.31C427.263 1113.23 426.792 1114.15 426.308 1115.05C414.217 1137.73 392.903 1156.1 370.259 1174.44L368.841 1175.58C357.581 1184.65 346.946 1193.21 338.036 1201.63C304.458 1233.37 273.579 1264.92 250.43 1288.87L249.83 1288.29C272.987 1264.34 303.873 1232.78 337.463 1201.03C346.396 1192.58 357.045 1184.01 368.318 1174.93L369.736 1173.79C393.209 1154.78 415.254 1135.74 426.968 1111.94C441.27 1082.69 430.973 1054.27 419.014 1030.33C416.164 1024.6 413.271 1018.99 411.07 1014.74C409.836 1012.35 408.6 1009.98 407.369 1007.61C397.411 988.476 388.003 970.4 381.307 950.095C372.426 923.172 365.851 891.938 362.789 862.145C359.947 834.493 360.288 808.529 363.799 784.974C367.828 757.948 376.09 733.833 388.351 713.3C406.777 682.444 434.677 659.302 471.271 644.518C489.388 637.215 507.745 631.207 529.732 624.433C535.984 622.507 542.324 620.588 548.455 618.731C585.916 607.392 621.3 596.682 654.493 579.807C667.985 572.953 681.491 565.399 694.637 557.351C710.961 547.328 726.441 536.796 740.648 526.042C762.951 509.162 790.707 488.154 799.7 457.31C804.616 440.45 802.966 424.978 794.657 410.011C778.609 380.886 741.178 359.691 711.102 342.661C701.289 337.104 692.019 331.854 684.855 327.053L684.691 326.944C668.649 316.191 652.062 305.071 636.929 291.788C623.717 280.226 612.764 268.095 604.371 255.732C594.909 241.792 588.691 227.508 585.889 213.276C584.014 203.754 583.456 194.442 584.185 184.808C586.101 158.75 598.438 132.144 619.866 107.868C628.49 98.0981 638.401 89.2104 649.324 81.4471C660.31 73.6397 672.099 67.1339 684.358 62.1088C712.025 50.7422 742.847 45.5257 775.969 46.6056C805.741 47.5756 836.963 53.8182 866.259 64.6578L865.969 65.4393C803.267 42.2383 737.188 41.3048 684.673 62.8798C660.092 72.9564 637.897 88.7039 620.497 108.42C599.191 132.559 586.925 158.993 585.023 184.87C584.3 194.429 584.854 203.666 586.713 213.115C591.946 239.687 609.503 266.674 637.484 291.161C652.577 304.41 669.142 315.513 685.16 326.251L685.324 326.361C692.462 331.145 701.718 336.387 711.517 341.937C741.684 359.021 779.228 380.28 795.389 409.609C799.396 416.825 801.901 424.35 802.835 431.969C803.842 440.184 803.057 448.788 800.506 457.546C798.983 462.761 796.896 467.859 794.222 472.875Z" fill="white"/>
<path d="M452.142 1124.64C446.735 1134.78 438.873 1144.77 428.196 1155.08C417.587 1165.33 405.527 1174.62 394.075 1183.15C391.996 1184.69 389.927 1186.21 387.872 1187.73C377.643 1195.27 367.981 1202.39 359.661 1209.43C326.493 1237.49 295.649 1264.65 265.822 1290.91L260.879 1295.27L260.297 1294.6L265.24 1290.25C295.071 1263.99 325.918 1236.82 359.093 1208.76C367.434 1201.7 377.107 1194.57 387.35 1187.02C389.404 1185.5 391.473 1183.98 393.549 1182.44C417.058 1164.94 441.003 1145.81 452.896 1121.21C467.455 1090.94 453.86 1060.89 440.39 1038.1C436.948 1032.27 433.463 1026.56 430.811 1022.24C429.35 1019.85 427.887 1017.48 426.427 1015.11C414.328 995.47 402.899 976.921 394.047 955.821C382.367 927.97 372.869 895.204 367.306 863.555C362.145 834.192 360.487 806.456 362.379 781.113C364.55 752.044 371.421 726.184 382.802 704.252C399.806 671.186 427.333 646.731 464.608 631.576C485.286 623.184 506.162 616.905 523.858 611.867C533.487 609.127 543.276 606.472 552.743 603.903C586.255 594.813 620.908 585.411 652.58 571.034C666.73 564.614 680.909 557.514 694.719 549.936C711.788 540.546 728.206 530.522 743.517 520.139C767.449 503.91 797.233 483.714 807.027 452.69C812.417 435.614 810.76 420.047 801.962 405.097C784.686 375.591 744.094 355.317 711.478 339.029C701.833 334.211 692.721 329.662 685.643 325.516C669.685 316.173 651.258 305.092 634.505 291.807C620.301 280.566 608.373 268.669 599.052 256.445C588.508 242.617 581.177 228.194 577.262 213.577C574.667 203.892 573.402 193.913 573.498 183.92C573.617 169.648 576.628 155.169 582.451 140.881C587.902 127.5 595.721 114.497 605.686 102.231C614.091 91.8862 623.858 82.4812 634.718 74.2773C645.645 66.0225 657.427 59.175 669.733 53.9282C683.91 47.8734 699.175 43.4944 715.102 40.9145C730.193 38.4691 746.026 37.6133 762.16 38.3681C792.344 39.7807 823.813 46.8997 853.16 58.9537L852.824 59.771C789.803 33.8871 723.196 32.0539 670.08 54.7403C645.737 65.1216 623.112 82.1836 606.372 102.788C585.673 128.264 574.611 156.321 574.381 183.928C574.285 193.841 575.541 203.74 578.115 213.349C585.492 240.891 604.647 267.056 635.053 291.116C651.759 304.367 670.155 315.428 686.088 324.755C693.142 328.885 702.239 333.429 711.872 338.239C727.962 346.275 746.201 355.384 762.729 366.261C781.907 378.881 794.988 391.438 802.723 404.649C806.966 411.857 809.599 419.403 810.549 427.075C811.576 435.362 810.674 444.07 807.868 452.954C806.454 457.437 804.626 461.695 802.466 465.745C789.534 489.999 764.615 506.896 744.011 520.868C728.677 531.265 712.234 541.305 695.141 550.706C681.312 558.296 667.113 565.405 652.943 571.835C621.205 586.242 586.517 595.652 552.972 604.752C543.508 607.32 533.722 609.975 524.098 612.713C506.425 617.743 485.578 624.013 464.938 632.391C427.863 647.463 400.497 671.775 383.584 704.653C356.842 756.191 360.441 819.425 368.172 863.398C373.724 894.984 383.201 927.683 394.859 955.475C403.683 976.512 415.094 995.034 427.174 1014.64C428.634 1017.01 430.096 1019.39 431.558 1021.77C434.211 1026.1 437.699 1031.81 441.145 1037.65C446.8 1047.22 454.72 1061.72 458.202 1077.2C459.893 1084.72 460.457 1092.06 459.881 1099.03C459.238 1106.79 457.154 1114.38 453.687 1121.59C453.198 1122.61 452.682 1123.63 452.142 1124.64Z" fill="white"/>
<path d="M477.972 1134.23C472.559 1144.38 464.557 1154.27 453.607 1164.35C442.271 1174.79 429.188 1184.11 417.885 1191.85C414.409 1194.22 410.912 1196.58 407.529 1198.86C398.075 1205.23 389.143 1211.25 381.285 1217.23C353.063 1238.68 325.25 1260.12 298.351 1280.85C289.453 1287.71 280.254 1294.8 271.329 1301.66L270.761 1300.93C279.686 1294.06 288.885 1286.97 297.782 1280.11C324.682 1259.38 352.498 1237.94 380.723 1216.48C388.602 1210.49 397.544 1204.47 407.01 1198.09C410.392 1195.81 413.887 1193.45 417.361 1191.08C440.799 1175.03 466.811 1155.78 478.821 1130.48C493.534 1099.39 477.434 1068.94 461.765 1045.88C457.752 1039.97 453.665 1034.15 450.552 1029.73C448.956 1027.47 447.357 1025.21 445.762 1022.96C431.417 1002.69 417.867 983.556 406.792 961.545C392.388 932.919 379.971 898.618 371.827 864.966C360.607 818.165 352.443 750.724 377.258 695.209C392.976 659.869 420.125 634.105 457.952 618.637C474.952 611.69 493.467 605.729 517.991 599.307C530.384 596.061 543.048 593.035 555.293 590.109C587.152 582.494 620.095 574.623 650.677 562.266C665.495 556.282 680.343 549.64 694.81 542.525C712.318 533.905 729.674 524.388 746.397 514.242C772.003 498.614 803.873 479.165 814.363 448.077C820.169 431.061 818.457 414.95 809.279 400.191C790.724 370.283 744.99 350.192 711.596 335.524C702.224 331.407 693.372 327.52 686.443 323.987C671.041 316.14 650.946 305.394 632.093 291.834C599.413 268.356 578.066 242.13 568.648 213.885C565.312 203.967 563.354 193.587 562.825 183.037C562.063 168.025 564.314 152.745 569.518 137.62C574.422 123.371 581.822 109.571 591.516 96.6004C599.737 85.677 609.367 75.7611 620.138 67.1247C631.015 58.4051 642.784 51.215 655.118 45.7521C669.374 39.4342 684.755 34.9194 700.835 32.3365C716.074 29.8879 732.063 29.1486 748.361 30.1377C778.958 31.9972 810.671 39.9916 840.073 53.2557L839.689 54.1051C776.351 25.5279 709.214 22.7945 655.498 46.6037C631.134 57.3944 608.676 75.3481 592.264 97.1571C572.131 124.098 562.275 153.777 563.758 182.988C564.282 193.452 566.226 203.747 569.534 213.586C578.89 241.644 600.12 267.715 632.639 291.076C651.441 304.599 671.497 315.322 686.869 323.156C693.775 326.673 702.615 330.557 711.974 334.669C729.235 342.252 748.801 350.847 766.722 361.453C787.588 373.804 801.769 386.313 810.073 399.698C814.557 406.908 817.323 414.476 818.292 422.196C819.344 430.565 818.32 439.372 815.25 448.374C810.53 462.358 801.242 475.165 786.855 487.529C774.349 498.275 759.758 507.181 746.887 515.037C730.14 525.199 712.759 534.727 695.227 543.361C680.738 550.486 665.87 557.138 651.031 563.131C620.386 575.514 587.407 583.395 555.516 591.017C543.274 593.941 530.616 596.967 518.234 600.21C493.753 606.622 475.273 612.573 458.312 619.503C420.705 634.877 393.725 660.475 378.106 695.59C353.4 750.867 361.545 818.089 372.731 864.75C380.858 898.335 393.248 932.564 407.623 961.13C418.666 983.079 432.197 1002.19 446.521 1022.42C448.118 1024.67 449.716 1026.93 451.313 1029.2C454.428 1033.61 458.52 1039.44 462.536 1045.36C478.345 1068.62 494.579 1099.36 479.662 1130.88C479.13 1132 478.566 1133.12 477.972 1134.23Z" fill="white"/>
<path d="M503.838 1143.76C489.048 1171.5 456.501 1191.52 427.647 1209.28C418.781 1214.73 410.406 1219.88 402.906 1225.03L281.777 1308.06L281.224 1307.25L402.353 1224.22C409.872 1219.06 418.257 1213.9 427.135 1208.44C457.104 1190 491.072 1169.1 504.747 1139.75C519.596 1107.87 501 1077 483.142 1053.66C477.302 1046.02 471.261 1038.44 465.419 1031.11C449.444 1011.04 432.924 990.3 419.532 967.274C408.899 948.991 398.76 927.916 390.215 906.33C380.84 882.649 373.427 858.693 368.182 835.132C362.4 809.155 359.419 784.286 359.322 761.22C359.216 735.708 362.658 712.465 369.554 692.134C383.369 651.405 410.866 622.324 451.284 605.703C484.87 591.889 521.31 584.357 556.551 577.073C587.227 570.733 618.944 564.176 648.761 553.5C683.2 541.168 717.014 525.976 749.263 508.344C776.434 493.488 810.252 475 821.685 443.458C831.341 416.82 822.42 393.683 794.407 372.729C770.58 354.905 737.772 342.282 711.412 332.138C702.428 328.682 693.943 325.417 687.229 322.455C650.217 306.131 621.735 288.77 600.158 269.382C586.696 257.284 575.888 244.263 568.036 230.681C559.265 215.51 553.914 199.182 552.133 182.155C550.593 167.423 551.788 152.385 555.686 137.453C559.397 123.24 565.466 109.429 573.724 96.4012C589.963 70.7799 613.674 49.8893 640.484 37.5787C654.816 30.9968 670.315 26.3475 686.549 23.7597C701.935 21.3071 718.082 20.6833 734.543 21.9084C765.552 24.2167 797.512 33.0873 826.964 47.5614L826.532 48.4428C763.812 17.6223 694.414 13.8944 640.894 38.4733C584.058 64.5732 547.137 124.958 553.108 182.056C559.023 238.618 603.024 284.25 687.624 321.56C694.316 324.512 702.791 327.773 711.763 331.225C738.181 341.39 771.059 354.04 794.994 371.945C808.031 381.698 817.105 392.168 821.967 403.062C824.699 409.188 826.18 415.607 826.365 422.139C826.561 429.09 825.297 436.376 822.608 443.795C821.509 446.827 820.184 449.801 818.63 452.715C812.967 463.334 804.252 473.215 792.205 482.71C778.634 493.407 762.609 502.168 749.733 509.208C717.439 526.863 683.58 542.077 649.091 554.428C619.209 565.13 587.456 571.691 556.748 578.039C521.552 585.313 485.157 592.835 451.655 606.615C411.512 623.126 384.2 652.006 370.481 692.454C342.729 774.273 376.893 892.014 420.378 966.787C433.733 989.75 450.23 1010.47 466.184 1030.5C472.028 1037.84 478.073 1045.43 483.919 1053.07C495.774 1068.56 503.229 1081.6 507.376 1094.09C509.963 1101.88 511.213 1109.51 511.09 1116.76C510.953 1124.81 509.118 1132.69 505.635 1140.17C505.069 1141.38 504.47 1142.57 503.838 1143.76Z" fill="white"/>
</g>
</svg>
