<svg width="520" height="421" viewBox="0 0 520 421" fill="none" xmlns="http://www.w3.org/2000/svg">
<circle cx="254.428" cy="160.643" r="129.107" stroke="#FEFEFE" stroke-width="1.78694" stroke-dasharray="13.4 13.4"/>
<circle cx="162.5" cy="290.643" r="129.107" stroke="#FEFEFE" stroke-width="1.78694" stroke-dasharray="13.4 13.4"/>
<circle cx="357.5" cy="290.643" r="129.107" stroke="#FEFEFE" stroke-width="1.78694" stroke-dasharray="13.4 13.4"/>
<circle cx="383.5" cy="163.428" r="32.5" fill="white"/>
<g clip-path="url(#clip0_773_6677)">
<path d="M378.278 164.571C376.028 164.571 374.197 166.401 374.197 168.651V178.848C374.197 181.098 376.028 182.928 378.278 182.928C380.528 182.928 382.358 181.098 382.358 178.848V168.651C382.358 166.401 380.528 164.571 378.278 164.571Z" fill="#FF4340"/>
<path d="M371.914 164.571H367.964C365.786 164.571 364.014 166.343 364.014 168.521C364.014 170.699 365.786 172.471 367.964 172.471C370.142 172.471 371.914 170.699 371.914 168.521V164.571Z" fill="#FF4340"/>
<path d="M364.001 158.205C364.001 160.455 365.831 162.286 368.081 162.286H378.278C380.528 162.286 382.358 160.455 382.358 158.205C382.358 155.955 380.528 154.125 378.278 154.125H368.081C365.831 154.125 364.001 155.955 364.001 158.205V158.205Z" fill="#36C6FF"/>
<path d="M378.409 151.84H382.36V147.889C382.36 145.711 380.587 143.939 378.409 143.939C376.231 143.939 374.459 145.711 374.459 147.889C374.459 150.067 376.231 151.84 378.409 151.84Z" fill="#36C6FF"/>
<path d="M388.724 162.285C390.974 162.285 392.804 160.455 392.804 158.205V148.008C392.804 145.758 390.974 143.928 388.724 143.928C386.474 143.928 384.644 145.758 384.644 148.008V158.205C384.644 160.455 386.474 162.285 388.724 162.285Z" fill="#0DC46E"/>
<path d="M395.089 162.286H399.039C401.217 162.286 402.989 160.514 402.989 158.336C402.989 156.157 401.217 154.385 399.039 154.385C396.861 154.385 395.089 156.157 395.089 158.336V162.286Z" fill="#0DC46E"/>
<path d="M403.001 168.651C403.001 166.401 401.171 164.571 398.921 164.571H388.724C386.474 164.571 384.644 166.401 384.644 168.651C384.644 170.901 386.474 172.732 388.724 172.732H398.921C401.171 172.732 403.001 170.901 403.001 168.651Z" fill="#FDCB02"/>
<path d="M388.594 175.017H384.644V178.967C384.644 181.145 386.416 182.917 388.594 182.917C390.772 182.917 392.544 181.145 392.544 178.967C392.544 176.789 390.772 175.017 388.594 175.017Z" fill="#FDCB02"/>
</g>
<circle cx="32.5" cy="280.428" r="32.5" fill="white"/>
<g clip-path="url(#clip1_773_6677)">
<path d="M50.7803 269.46H33.7178C33.045 269.46 32.499 270.006 32.499 270.679C32.499 271.352 33.045 271.898 33.7178 271.898H47.2288L39.7408 277.721L34.371 274.306L33.0645 276.363L39.1583 280.239C39.3557 280.366 39.5848 280.429 39.8115 280.429C40.0748 280.429 40.3405 280.344 40.5598 280.173L49.5615 273.17V288.96H33.7178C33.045 288.96 32.499 289.506 32.499 290.179C32.499 290.852 33.045 291.398 33.7178 291.398H50.7803C51.453 291.398 51.999 290.852 51.999 290.179V270.679C51.999 270.006 51.453 269.46 50.7803 269.46Z" fill="#1976D2"/>
<path d="M34.4963 262.428C34.2184 262.197 33.8455 262.097 33.4945 262.17L13.9945 265.826C13.4168 265.933 13 266.435 13 267.023V293.835C13 294.42 13.4168 294.925 13.9945 295.032L33.4945 298.688C33.5676 298.703 33.6432 298.71 33.7188 298.71C34.0015 298.71 34.2769 298.613 34.4963 298.43C34.7766 298.199 34.9375 297.852 34.9375 297.492V263.367C34.9375 263.003 34.7766 262.66 34.4963 262.428Z" fill="#2196F3"/>
<path d="M23.9697 288.96C20.6109 288.96 17.876 285.679 17.876 281.647C17.876 277.616 20.6109 274.335 23.9697 274.335C27.3286 274.335 30.0635 277.616 30.0635 281.647C30.0635 285.679 27.3286 288.96 23.9697 288.96ZM23.9697 276.772C21.9539 276.772 20.3135 278.959 20.3135 281.647C20.3135 284.336 21.9539 286.522 23.9697 286.522C25.9855 286.522 27.626 284.336 27.626 281.647C27.626 278.959 25.9855 276.772 23.9697 276.772Z" fill="#FAFAFA"/>
</g>
<circle cx="487.5" cy="280.428" r="32.5" fill="white"/>
<g clip-path="url(#clip2_773_6677)">
<path d="M487.465 273.248L479.371 287.287H479.348L484.036 293.004L473.518 297.417C473.312 297.302 473.152 297.142 473.061 296.982L468.122 287.836C467.87 287.333 468.076 286.944 468.144 286.716L481.383 263.851C481.475 263.714 481.612 263.576 481.795 263.462H481.818L488.609 265.566L487.465 273.248Z" fill="#59C36A"/>
<path d="M507 287.288L497.831 293.004L495.658 287.288L487.465 273.248L481.817 263.462C481.977 263.348 482.183 263.279 482.366 263.279H492.64C492.869 263.348 493.326 263.325 493.623 263.851L506.862 286.716C506.954 286.876 507 287.082 507 287.288Z" fill="#FFDA2D"/>
<path d="M493.624 263.852C493.327 263.326 492.87 263.349 492.641 263.28H487.466V273.249L495.659 287.288L497.831 293.005L507 287.288C507 287.083 506.954 286.877 506.863 286.717L493.624 263.852Z" fill="#FDBF00"/>
<path d="M507 287.288C507 287.493 506.954 287.699 506.885 287.836L501.946 296.982C501.763 297.28 501.329 297.577 500.94 297.577H474.066C473.883 297.577 473.678 297.508 473.518 297.417L479.348 287.288H507Z" fill="#4086F4"/>
<path d="M487.466 297.577H500.941C501.33 297.577 501.764 297.28 501.947 296.982L506.886 287.836C506.955 287.699 507 287.493 507 287.288H487.466V297.577H487.466Z" fill="#4175DF"/>
</g>
<circle cx="124.429" cy="163.428" r="32.5" fill="white"/>
<g clip-path="url(#clip3_773_6677)">
<path d="M112.59 173.108V169.974L117.883 173.038L124.429 166.91V180.838L112.59 173.108Z" fill="#0093EB"/>
<path d="M106.253 164.821L113.148 158.553L124.43 165.518L117.883 171.646L106.253 164.821Z" fill="#0093EB"/>
<path d="M113.147 158.553L104.929 152.285L116.768 146.017L125.125 151.588L113.147 158.553Z" fill="#0093EB"/>
<path d="M136.267 173.178L124.428 180.838V166.91L131.183 172.76L136.267 169.556V173.178Z" fill="#0093EB"/>
<path d="M131.183 171.367L124.428 165.517L135.78 158.274L142.605 164.124L131.183 171.367Z" fill="#0093EB"/>
<path d="M135.779 158.274L125.124 151.588L133.481 146.017L143.928 152.285L135.779 158.274Z" fill="#0093EB"/>
</g>
<circle cx="260" cy="372.357" r="32.5" fill="white"/>
<g clip-path="url(#clip4_773_6677)">
<path d="M276.026 364.435H244.034C243.403 364.435 242.892 363.924 242.892 363.292V356.284C242.892 354.394 244.429 352.857 246.319 352.857H273.741C275.631 352.857 277.169 354.394 277.169 356.284V363.292C277.169 363.924 276.658 364.435 276.026 364.435Z" fill="#E3E7EA"/>
<path d="M273.741 352.857H260.03V364.435H276.026C276.658 364.435 277.169 363.924 277.169 363.292V356.285C277.169 354.395 275.631 352.857 273.741 352.857Z" fill="#BABAC0"/>
<path d="M242.848 377.003C242.849 377.001 242.849 377.001 242.849 377.001L240.576 366.172C240.416 365.143 240.69 364.115 241.33 363.361C241.993 362.584 242.952 362.15 243.958 362.15H276.042C277.047 362.15 278.007 362.584 278.669 363.361C279.309 364.115 279.584 365.143 279.424 366.126L277.15 377.006L279.424 387.835C279.584 388.863 279.309 389.892 278.669 390.645C278.007 391.423 277.047 391.857 276.042 391.857H243.958C242.952 391.857 241.993 391.423 241.33 390.645C240.69 389.891 240.416 388.863 240.576 387.881C240.576 387.881 242.809 377.192 242.848 377.003Z" fill="#4086F4"/>
<path d="M242.849 377.001C242.849 377.001 242.849 377.001 242.848 377.003H277.151L279.424 366.126C279.584 365.143 279.309 364.115 278.669 363.361C278.007 362.584 277.047 362.15 276.042 362.15H243.958C242.952 362.15 241.993 362.584 241.33 363.361C240.69 364.115 240.416 365.143 240.576 366.172L242.849 377.001Z" fill="#4175DF"/>
<path d="M248.573 359.712C249.204 359.712 249.716 359.201 249.716 358.57C249.716 357.939 249.204 357.427 248.573 357.427C247.942 357.427 247.431 357.939 247.431 358.57C247.431 359.201 247.942 359.712 248.573 359.712Z" fill="#FFF5F5"/>
<path d="M271.425 359.712C272.056 359.712 272.567 359.201 272.567 358.57C272.567 357.939 272.056 357.427 271.425 357.427C270.794 357.427 270.282 357.939 270.282 358.57C270.282 359.201 270.794 359.712 271.425 359.712Z" fill="#E3E7EA"/>
<path d="M255.429 385.001C253.496 385.001 251.764 383.777 251.12 381.954C250.909 381.359 251.22 380.706 251.816 380.497C252.408 380.285 253.063 380.598 253.273 381.193C253.596 382.103 254.463 382.716 255.429 382.716C256.689 382.716 257.714 381.691 257.714 380.431C257.714 379.171 256.689 378.146 255.429 378.146H254.009C253.378 378.146 252.866 377.635 252.866 377.003C252.866 376.372 253.378 375.861 254.009 375.861H255.429C256.689 375.861 257.714 374.835 257.714 373.575C257.714 372.316 256.689 371.29 255.429 371.29C254.463 371.29 253.596 371.903 253.273 372.813C253.063 373.409 252.407 373.722 251.816 373.51C251.22 373.3 250.909 372.647 251.12 372.052C251.764 370.229 253.496 369.005 255.429 369.005C257.95 369.005 259.999 371.055 259.999 373.575C259.999 374.939 259.399 376.165 258.448 377.003C259.399 377.841 259.999 379.067 259.999 380.431C259.999 382.952 257.95 385.001 255.429 385.001Z" fill="#FFF5F5"/>
<path d="M251.816 373.51C252.407 373.722 253.063 373.409 253.273 372.813C253.596 371.903 254.463 371.29 255.429 371.29C256.689 371.29 257.714 372.316 257.714 373.575C257.714 374.835 256.689 375.861 255.429 375.861H254.009C253.378 375.861 252.866 376.372 252.866 377.003H258.448C259.399 376.165 259.999 374.939 259.999 373.575C259.999 371.055 257.95 369.005 255.429 369.005C253.496 369.005 251.764 370.229 251.12 372.052C250.909 372.647 251.22 373.3 251.816 373.51Z" fill="#E3E7EA"/>
<path d="M266.856 385.001C266.224 385.001 265.713 384.49 265.713 383.858V372.282L264.062 373.383C263.535 373.731 262.827 373.591 262.477 373.066C262.127 372.541 262.269 371.832 262.794 371.482L266.222 369.197C266.572 368.964 267.024 368.941 267.395 369.14C267.766 369.339 267.998 369.726 267.998 370.148V383.858C267.998 384.49 267.487 385.001 266.856 385.001Z" fill="#FFF5F5"/>
<path d="M264.062 373.384L265.713 372.283V377.003H267.998V370.148C267.998 369.726 267.766 369.339 267.395 369.14C267.024 368.942 266.572 368.964 266.222 369.197L262.794 371.482C262.269 371.833 262.127 372.541 262.477 373.067C262.827 373.591 263.535 373.732 264.062 373.384Z" fill="#E3E7EA"/>
</g>
<circle cx="257.215" cy="32.5" r="32.5" fill="white"/>
<g clip-path="url(#clip5_773_6677)">
<path d="M271.841 17.8748H242.591V47.1248H271.841V17.8748Z" fill="#ECEFF1"/>
<path d="M257.214 35.5762L271.839 47.1251V24.3247L257.214 35.5762Z" fill="#CFD8DC"/>
<path d="M273.059 17.875H271.84L257.215 29.4239L242.59 17.875H241.371C239.353 17.875 237.715 19.513 237.715 21.5313V43.4688C237.715 45.487 239.353 47.125 241.371 47.125H242.59V24.3246L257.215 35.5737L271.84 24.3222V47.125H273.059C275.077 47.125 276.715 45.487 276.715 43.4688V21.5313C276.715 19.513 275.077 17.875 273.059 17.875Z" fill="#F44336"/>
</g>
<circle cx="259.071" cy="248.857" r="46.4286" fill="white"/>
<path d="M236.77 237.825V245.939C236.77 248.41 239.856 249.728 241.742 247.998L250.744 239.884C252.716 238.113 251.43 234.983 248.729 234.983H239.727C238.098 234.983 236.77 236.26 236.77 237.825Z" fill="#5986EF"/>
<path d="M279.378 234.983H270.376C267.719 234.983 266.39 238.113 268.362 239.884L277.364 247.998C279.25 249.687 282.336 248.41 282.336 245.939V237.825C282.336 236.26 281.007 234.983 279.378 234.983Z" fill="#5986EF"/>
<path d="M261.589 254.794L277.364 269.046C279.25 270.734 282.337 269.457 282.337 266.986V258.79C282.337 258.007 281.994 257.266 281.393 256.73L261.589 238.813C260.432 237.784 258.674 237.784 257.517 238.813L237.713 256.73C237.112 257.266 236.77 258.007 236.77 258.79V266.986C236.77 269.457 239.856 270.775 241.742 269.046L257.517 254.794C258.674 253.765 260.432 253.765 261.589 254.794Z" fill="#5986EF"/>
<defs>
<clipPath id="clip0_773_6677">
<rect width="39" height="39" fill="white" transform="translate(364 143.928)"/>
</clipPath>
<clipPath id="clip1_773_6677">
<rect width="39" height="39" fill="white" transform="translate(13 260.928)"/>
</clipPath>
<clipPath id="clip2_773_6677">
<rect width="39" height="39" fill="white" transform="translate(468 260.928)"/>
</clipPath>
<clipPath id="clip3_773_6677">
<rect width="39" height="39" fill="white" transform="translate(104.929 143.928)"/>
</clipPath>
<clipPath id="clip4_773_6677">
<rect width="39" height="39" fill="white" transform="translate(240.5 352.857)"/>
</clipPath>
<clipPath id="clip5_773_6677">
<rect width="39" height="39" fill="white" transform="translate(237.715 13)"/>
</clipPath>
</defs>
</svg>
