<svg width="24" height="24" viewBox="0 0 24 24" fill="none" xmlns="http://www.w3.org/2000/svg">
<path d="M11.9835 0C5.98798 0 1.11035 4.87795 1.11035 10.8735C1.11035 16.509 5.45323 21.222 11.0377 21.7038L8.88485 22.7951C8.61898 22.9409 8.46073 23.2691 8.61823 23.5282L8.69435 23.7251C8.8526 23.9842 9.19535 24.0761 9.46045 23.9309L13.0537 22.0912C13.0582 22.0882 13.0631 22.0889 13.0676 22.0859L13.3087 21.9539C13.4419 21.8808 13.53 21.7612 13.5652 21.6281C13.602 21.495 13.5851 21.3468 13.506 21.2178L13.3631 20.9835C13.3609 20.9789 13.3564 20.976 13.3537 20.9718L11.1345 17.5038C10.977 17.2447 10.635 17.1528 10.3684 17.298L10.194 17.4195C9.9281 17.5646 9.91048 17.9396 10.068 18.198L11.3775 20.2294C11.3704 20.229 11.364 20.2263 11.3572 20.226C6.4522 19.9042 2.61033 15.7954 2.61033 10.8735C2.61035 5.70487 6.8152 1.5 11.9835 1.5C17.1525 1.5 21.381 5.70487 21.381 10.8735C21.381 13.8495 20.0141 16.5829 17.631 18.3728C17.2999 18.6218 17.2331 19.092 17.4818 19.4232C17.7307 19.755 18.201 19.821 18.5321 19.5724C21.2963 17.496 22.8814 14.3254 22.8814 10.8735C22.881 4.87802 17.9794 0 11.9835 0Z" fill="#24B0C4"/>
</svg>
