<svg width="26" height="26" viewBox="0 0 26 26" fill="none" xmlns="http://www.w3.org/2000/svg">
<path d="M13.0003 2.16675C7.02683 2.16675 2.16699 6.05483 2.16699 10.8334C2.16699 13.9837 4.22316 16.8091 7.58366 18.3452V23.8334L13.3687 19.4947C19.1721 19.3398 23.8337 15.5134 23.8337 10.8334C23.8337 6.05483 18.9738 2.16675 13.0003 2.16675ZM13.0003 17.3334H12.6396L9.75033 19.5001V16.8817L9.05591 16.6141C6.14283 15.4928 4.33366 13.2774 4.33366 10.8334C4.33366 7.24866 8.22174 4.33341 13.0003 4.33341C17.7789 4.33341 21.667 7.24866 21.667 10.8334C21.667 14.4182 17.7789 17.3334 13.0003 17.3334Z" fill="#909090"/>
</svg>
