<svg width="32" height="32" viewBox="0 0 32 32" fill="none" xmlns="http://www.w3.org/2000/svg">
<g clip-path="url(#clip0_293_22)">
<path d="M0 5.12057V11.1749C0 13.0189 2.16745 14.0024 3.492 12.7116L9.81373 6.65721C11.1985 5.3357 10.2954 3 8.39887 3H2.07714C0.933208 3 0 3.95272 0 5.12057Z" fill="#24B0C4"/>
<path d="M29.9234 3H23.6017C21.7353 3 20.8021 5.3357 22.1868 6.65721L28.5086 12.7116C29.8331 13.9716 32.0006 13.0189 32.0006 11.1749V5.12057C32.0006 3.95272 31.0674 3 29.9234 3Z" fill="#24B0C4"/>
<path d="M17.4299 17.7827L28.508 28.4163C29.8325 29.6763 32 28.7236 32 26.8796V20.7638C32 20.1799 31.7592 19.6267 31.3377 19.2271L17.4299 5.85835C16.6171 5.09002 15.3829 5.09002 14.5701 5.85835L0.662277 19.2271C0.240828 19.6267 0 20.1799 0 20.7638V26.8796C0 28.7236 2.16745 29.707 3.492 28.4163L14.5701 17.7827C15.3829 17.0144 16.6171 17.0144 17.4299 17.7827Z" fill="#24B0C4"/>
</g>
<defs>
<clipPath id="clip0_293_22">
<rect width="32" height="26" fill="white" transform="translate(0 3)"/>
</clipPath>
</defs>
</svg>
