<svg width="512" height="512" viewBox="0 0 512 512" fill="none" xmlns="http://www.w3.org/2000/svg">
<g clip-path="url(#clip0_293_23)">
<path d="M505.744 475.582L360.145 329.984C388.348 295.147 405.329 250.881 405.329 202.668C405.329 90.9252 314.407 0.00305176 202.664 0.00305176C90.9211 0.00305176 0 90.9242 0 202.667C0 314.41 90.9221 405.332 202.665 405.332C250.878 405.332 295.144 388.351 329.981 360.149L475.579 505.747C479.739 509.907 485.2 511.998 490.662 511.998C496.124 511.998 501.585 509.907 505.745 505.747C514.086 497.406 514.086 483.923 505.744 475.582ZM202.665 362.666C114.431 362.666 42.6666 290.901 42.6666 202.667C42.6666 114.433 114.431 42.6686 202.665 42.6686C290.899 42.6686 362.663 114.433 362.663 202.667C362.663 290.901 290.898 362.666 202.665 362.666Z" fill="#909090"/>
</g>
<defs>
<clipPath id="clip0_293_23">
<rect width="512" height="512" fill="white"/>
</clipPath>
</defs>
</svg>
