<svg width="24" height="24" viewBox="0 0 24 24" fill="none" xmlns="http://www.w3.org/2000/svg">
<path d="M12 12C13.0609 12 14.0783 11.5786 14.8284 10.8284C15.5786 10.0783 16 9.06087 16 8C16 6.93913 15.5786 5.92172 14.8284 5.17157C14.0783 4.42143 13.0609 4 12 4C10.9391 4 9.92172 4.42143 9.17157 5.17157C8.42143 5.92172 8 6.93913 8 8C8 9.06087 8.42143 10.0783 9.17157 10.8284C9.92172 11.5786 10.9391 12 12 12Z" stroke="white" stroke-width="1.5" stroke-linecap="round" stroke-linejoin="round"/>
<path d="M5 20.0005V19.0005C4.99976 17.8195 5.29833 16.6576 5.86794 15.623C6.43754 14.5884 7.25965 13.7147 8.25773 13.0833C9.25582 12.452 10.3974 12.0834 11.5763 12.0119C12.7551 11.9404 13.9329 12.1683 15 12.6745M16.635 16.4155L17.674 14.2125C17.7021 14.1495 17.7479 14.096 17.8057 14.0585C17.8636 14.021 17.931 14.001 18 14.001C18.069 14.001 18.1364 14.021 18.1943 14.0585C18.2521 14.096 18.2979 14.1495 18.326 14.2125L19.366 16.4155L21.689 16.7715C21.987 16.8165 22.105 17.2005 21.889 17.4205L20.209 19.1335L20.605 21.5545C20.656 21.8655 20.345 22.1025 20.078 21.9555L18 20.8125L15.922 21.9555C15.655 22.1025 15.344 21.8655 15.395 21.5555L15.791 19.1335L14.111 17.4205C13.895 17.2005 14.013 16.8165 14.311 16.7705L16.635 16.4155Z" stroke="white" stroke-width="1.5" stroke-linecap="round" stroke-linejoin="round"/>
</svg>
