<svg width="24" height="24" viewBox="0 0 24 24" fill="none" xmlns="http://www.w3.org/2000/svg">
<circle cx="12" cy="12" r="12" fill="#038ADA"/>
<path d="M11.984 8.808C11.7067 8.808 11.472 8.712 11.28 8.52C11.088 8.328 10.992 8.09333 10.992 7.816C10.992 7.53867 11.088 7.304 11.28 7.112C11.472 6.92 11.7067 6.824 11.984 6.824C12.2507 6.824 12.4747 6.92 12.656 7.112C12.848 7.304 12.944 7.53867 12.944 7.816C12.944 8.09333 12.848 8.328 12.656 8.52C12.4747 8.712 12.2507 8.808 11.984 8.808ZM12.688 10.232V19H11.232V10.232H12.688Z" fill="white"/>
</svg>
