<svg width="32" height="32" viewBox="0 0 32 32" fill="none" xmlns="http://www.w3.org/2000/svg">
<g clip-path="url(#clip0_879_1094)">
<path d="M31.9813 13.9129L30.9413 9.88937C30.892 9.69862 30.7509 9.545 30.5651 9.47981C30.3792 9.41462 30.1731 9.44625 30.0152 9.56425L26.6877 12.0536C26.5937 12.1239 26.5229 12.2204 26.4841 12.331L24.9196 16.7855C24.5077 16.4059 24.0592 16.0654 23.5799 15.7703L24.1539 10.8294C25.6099 8.88069 26.2035 6.92406 25.9172 5.01124C25.4757 2.06173 23.0962 0.335793 22.9951 0.26373C22.7832 0.11273 22.4973 0.118042 22.2911 0.27723C22.085 0.436356 22.0074 0.711544 22.0998 0.954919L22.3768 1.68348C22.8265 2.8668 22.3765 4.21724 21.3071 4.89443C19.6097 5.96924 19.0216 8.1275 19.939 9.91488L20.2343 10.4901L20.001 14.5399C19.6862 14.5051 19.3664 14.4867 19.0425 14.4867C18.3659 14.4867 17.6971 14.5662 17.0475 14.7192L16.9425 14.2471C17.1017 14.1434 17.2391 14.007 17.3442 13.8419C17.5377 13.5376 17.6012 13.1762 17.523 12.8243C17.4448 12.4722 17.2342 12.1717 16.93 11.9781C16.7743 11.8791 16.6037 11.8146 16.4272 11.7852L16.2859 11.1494C16.2267 10.8827 16.24 10.6135 16.3227 10.411C16.6508 9.60694 16.4615 8.53437 15.8725 7.86056L12.69 4.21961C12.5478 4.05693 12.3277 3.98486 12.117 4.03174C11.9059 4.07861 11.7374 4.23705 11.6775 4.44474L10.3368 9.09106C10.0888 9.95088 10.3716 11.0026 11.0094 11.592C11.17 11.7404 11.2961 11.9786 11.3555 12.2454L11.4968 12.8813C11.3493 12.9828 11.2221 13.1134 11.1231 13.2689C10.9295 13.5731 10.866 13.9346 10.9441 14.2865C11.0223 14.6386 11.233 14.9391 11.5372 15.1327C11.7025 15.2379 11.8846 15.3045 12.073 15.3311L12.5378 17.4218C12.1328 17.8803 11.7756 18.3813 11.4741 18.9176C11.3136 18.8903 11.1521 18.8701 10.9903 18.8549L8.35102 14.776C8.26583 14.6444 8.13195 14.552 7.9787 14.5193C7.82564 14.4863 7.66545 14.5158 7.53389 14.6009L1.184 18.7108C0.910064 18.8881 0.831689 19.254 1.00894 19.5279L3.36063 23.1625C1.43425 23.6329 0 25.3722 0 27.4411C0 29.87 1.976 31.846 4.40488 31.846H26.8463C29.2752 31.846 31.2512 29.87 31.2512 27.4411C31.2512 25.7019 30.2246 24.1762 28.7334 23.4642L31.9666 14.2566C32.0055 14.146 32.0106 14.0264 31.9813 13.9129ZM30.0179 11.0384L30.1736 11.6412C30.0587 11.6271 29.9449 11.6009 29.8339 11.5619C29.7229 11.5229 29.6176 11.4722 29.5192 11.4115L30.0179 11.0384ZM27.3229 13.5088C27.6395 13.7294 27.9749 13.9198 28.3238 14.0795L26.6186 18.9358C26.387 18.5226 26.1227 18.1301 25.8291 17.7621L27.3229 13.5088ZM21.9394 5.89287C23.0501 5.18949 23.6972 3.98236 23.7299 2.72455C24.1805 3.3663 24.6005 4.19768 24.7484 5.1863C24.9797 6.73224 24.4948 8.34531 23.308 9.98506L21.2101 9.80306L20.9905 9.37525C20.354 8.13543 20.7619 6.63843 21.9394 5.89287ZM21.3387 11.8667L21.3884 11.0048L22.9282 11.1383L22.8285 11.996L21.3387 11.8667ZM22.6921 13.1703L22.4578 15.1875C22.0448 15.01 21.6155 14.8636 21.1725 14.7514L21.2707 13.0469L22.6921 13.1703ZM11.811 10.7238C11.4996 10.4359 11.3474 9.85037 11.472 9.4185L12.1706 6.99724L12.5897 8.88262C12.6508 9.15806 12.895 9.34537 13.1658 9.34537C13.2083 9.34537 13.2514 9.34075 13.2946 9.33119C13.6132 9.26037 13.814 8.94475 13.7432 8.62618L13.3241 6.74093L14.9825 8.63818C15.2783 8.97662 15.3885 9.57162 15.2282 9.96444C15.0543 10.3906 15.0202 10.9024 15.132 11.4057L15.252 11.9458L12.6287 12.5288L12.5087 11.9888C12.3968 11.4854 12.1491 11.0361 11.811 10.7238ZM12.4118 14.1324C12.4099 14.1328 12.4081 14.1335 12.4061 14.1339L12.2985 14.1579C12.242 14.1703 12.1983 14.1527 12.1715 14.1356C12.1446 14.1184 12.1101 14.0863 12.0976 14.03C12.0851 13.9738 12.1028 13.93 12.12 13.9032C12.137 13.8763 12.1692 13.8418 12.2255 13.8292L12.3085 13.8108L16.1686 12.9528C16.1818 12.9499 16.1943 12.9486 16.2062 12.9486C16.2445 12.9486 16.2749 12.962 16.2955 12.9751C16.3223 12.9921 16.3568 13.0244 16.3693 13.0807C16.3818 13.1369 16.3642 13.1808 16.347 13.2075C16.33 13.2344 16.2978 13.2689 16.2415 13.2815L12.4118 14.1324ZM15.9147 15.0696C15.3892 15.2728 14.8822 15.5263 14.4017 15.8311C14.099 16.0231 13.8093 16.233 13.5342 16.4592L13.2449 15.158L15.8075 14.5884L15.9147 15.0696ZM2.32175 19.3819L7.6797 15.9139L9.59396 18.8723C8.45639 19.0088 7.38526 19.4405 6.45964 20.141C5.58964 20.7994 4.89432 21.6775 4.44713 22.6668L2.32175 19.3819ZM30.0695 27.4411C30.0695 29.2184 28.6235 30.6642 26.8464 30.6642H4.40488C2.62769 30.6642 1.18175 29.2184 1.18175 27.4411C1.18175 25.6638 2.62776 24.218 4.40488 24.218C4.48295 24.218 4.56795 24.2217 4.66495 24.2295C4.94401 24.2517 5.19839 24.0765 5.27801 23.8095C5.94626 21.5707 8.04583 20.0071 10.3838 20.0071C10.8081 20.0071 11.234 20.0584 11.6493 20.1596C11.9181 20.2249 12.1961 20.0954 12.3188 19.8475C13.5939 17.2698 16.1703 15.6686 19.0424 15.6686C23.1768 15.6686 26.5403 19.0321 26.5403 23.1665C26.5403 23.2993 26.5358 23.4425 26.5266 23.604C26.5082 23.9269 26.7526 24.2046 27.0752 24.2272C28.7542 24.3447 30.0695 25.7565 30.0695 27.4411ZM27.7138 22.8009C27.6809 22.012 27.5426 21.2498 27.3119 20.5283L29.4389 14.4708C29.8108 14.5642 30.1913 14.6243 30.576 14.65L27.7138 22.8009ZM28.0059 12.5434L28.5341 12.1484C28.7987 12.3788 29.1054 12.5585 29.4424 12.6769C29.7429 12.7824 30.0551 12.8354 30.3681 12.8354C30.4058 12.8354 30.4436 12.8334 30.4814 12.8318L30.6465 13.4709C29.7002 13.4061 28.7846 13.0846 28.0059 12.5434Z" fill="black"/>
<path d="M18.3484 23.805C18.3468 23.805 18.3452 23.805 18.3435 23.805C17.4109 22.4771 15.9152 21.6948 14.275 21.6948C11.5311 21.6948 9.29883 23.9271 9.29883 26.671C9.29883 26.9973 9.56333 27.2618 9.8897 27.2618C10.2161 27.2618 10.4806 26.9973 10.4806 26.671C10.4806 24.5787 12.1827 22.8766 14.275 22.8766C15.6175 22.8766 16.8334 23.5643 17.5274 24.7161C17.6445 24.9105 17.8624 25.0205 18.0887 24.9994C18.1782 24.991 18.2655 24.9867 18.3484 24.9867C19.8589 24.9867 21.0878 26.2156 21.0878 27.7261C21.0878 28.0524 21.3523 28.317 21.6787 28.317C22.005 28.317 22.2695 28.0524 22.2695 27.7261C22.2695 25.564 20.5106 23.805 18.3484 23.805Z" fill="black"/>
</g>
<defs>
<clipPath id="clip0_879_1094">
<rect width="32" height="32" fill="white"/>
</clipPath>
</defs>
</svg>
