<svg width="20" height="20" viewBox="0 0 20 20" fill="none" xmlns="http://www.w3.org/2000/svg">
<g clip-path="url(#clip0_845_453)">
<path d="M0.713867 16.7061H14.2463" stroke="#909090" stroke-width="1.57" stroke-linecap="round" stroke-linejoin="round"/>
<path d="M8.09496 12.4003L4.4043 13.0646L5.01941 9.32473L13.2988 1.06995C13.4132 0.954645 13.5492 0.863124 13.6991 0.800667C13.849 0.73821 14.0098 0.706055 14.1722 0.706055C14.3346 0.706055 14.4954 0.73821 14.6454 0.800667C14.7953 0.863124 14.9313 0.954645 15.0457 1.06995L16.3497 2.37399C16.465 2.48835 16.5566 2.62441 16.619 2.77433C16.6815 2.92424 16.7136 3.08504 16.7136 3.24744C16.7136 3.40985 16.6815 3.57064 16.619 3.72056C16.5566 3.87047 16.465 4.00653 16.3497 4.1209L8.09496 12.4003Z" stroke="#909090" stroke-width="1.57" stroke-linecap="round" stroke-linejoin="round"/>
</g>
<defs>
<clipPath id="clip0_845_453">
<rect width="20" height="20" fill="white"/>
</clipPath>
</defs>
</svg>
