<svg width="746" height="740" viewBox="0 0 746 740" fill="none" xmlns="http://www.w3.org/2000/svg">
<g opacity="0.2">
<path d="M142.483 348.385C138.96 352.034 135.244 355.309 131.377 358.171C123.266 364.171 114.418 368.408 105.078 370.762C95.0411 373.294 84.3299 373.671 73.2415 371.887C50.9548 368.301 30.5127 357.535 10.7428 347.123C6.86018 345.079 2.84599 342.965 -1.08872 340.955C-27.9134 327.264 -53.8003 317.747 -80.2266 311.857C-132.943 300.108 -188.749 301.284 -241.613 315.26C-302.749 331.423 -354.883 361.929 -388.414 401.16C-408.12 424.218 -423.323 465.147 -414.25 498.759C-408.865 518.708 -395.305 532.99 -375.036 540.059L-375.101 540.244C-385.73 536.536 -394.529 530.896 -401.253 523.479C-407.421 516.676 -411.858 508.376 -414.441 498.81C-418.548 483.595 -417.9 465.669 -412.568 446.969C-407.64 429.69 -399.116 413.376 -388.564 401.031C-371.016 380.501 -348.489 362.397 -321.608 347.223C-297.24 333.469 -270.343 322.65 -241.665 315.068C-188.77 301.084 -132.932 299.906 -80.1856 311.662C-53.7425 317.557 -27.8417 327.08 -1.00162 340.778C2.93445 342.786 6.95006 344.901 10.8313 346.946C30.5859 357.352 51.0139 368.11 73.2687 371.69C94.793 375.154 114.304 370.551 131.256 358.008C154.733 340.639 171.769 308.468 176.822 271.951C184.106 219.329 172.007 166.245 160.308 114.909C158.257 105.911 156.136 96.6073 154.177 87.531C149.088 63.9647 143.038 32.8624 141.405 1.26393C139.736 -31.0346 142.825 -59.2347 150.85 -84.9503C155.761 -100.691 163.022 -115.388 172.43 -128.633C181.119 -140.868 191.927 -152.262 204.552 -162.502C226.208 -180.067 253.788 -194.888 288.865 -207.816C357.936 -233.268 431.881 -253.915 508.646 -269.183C581.608 -283.695 657.769 -293.486 735.007 -298.286L735.019 -298.089C574.908 -288.141 424.824 -257.707 288.932 -207.631C212.158 -179.339 168.34 -140.339 151.037 -84.8926C133.432 -28.4848 142.234 31.2923 154.368 87.4888C156.327 96.5623 158.448 105.866 160.499 114.864C172.203 166.217 184.306 219.317 177.017 271.976C174.662 288.993 169.5 305.71 162.088 320.318C158.173 328.035 153.658 335.105 148.669 341.335C146.685 343.822 144.619 346.173 142.483 348.385Z" fill="white"/>
<path d="M138.026 337.187C129.041 346.493 118.947 353.403 108.014 357.732C95.8234 362.559 82.6273 364.141 68.7932 362.437C67.5683 362.285 66.3235 362.106 65.0907 361.903C42.9572 358.273 22.5236 347.914 2.76317 337.893C-1.23144 335.869 -5.36185 333.774 -9.41136 331.784C-33.5251 319.939 -56.6228 311.409 -80.0241 305.713C-82.9053 305.012 -85.8276 304.345 -88.7115 303.735C-141.43 292.559 -197.101 294.313 -249.707 308.805C-310.712 325.638 -362.476 356.731 -395.462 396.359C-414.727 419.538 -429.595 460.533 -420.741 494.041C-415.438 514.106 -402.101 528.675 -382.171 536.178L-382.24 536.362C-392.686 532.43 -401.336 526.607 -407.945 519.055C-414.016 512.119 -418.386 503.721 -420.931 494.092C-424.964 478.834 -424.354 460.927 -419.167 442.31C-414.374 425.102 -406.01 408.74 -395.616 396.235C-378.343 375.485 -356.044 357.118 -329.34 341.642C-305.151 327.624 -278.376 316.513 -249.76 308.618C-197.124 294.116 -141.421 292.364 -88.6717 303.544C-85.7865 304.156 -82.8614 304.823 -79.9787 305.525C-56.5622 311.225 -33.4519 319.759 -9.32558 331.611C-5.27471 333.599 -1.14429 335.694 2.85172 337.719C22.6009 347.732 43.0192 358.085 65.1221 361.71C66.3507 361.911 67.5955 362.09 68.8176 362.242C97.4105 365.769 120.681 355.151 138.068 337.143C138.163 337.045 138.257 336.947 138.353 336.848C138.242 336.96 138.135 337.074 138.026 337.187ZM141.636 333.251C156.94 315.68 167.19 292.197 171.934 268.143C182.083 216.173 172.269 162.303 162.78 110.207C162.388 108.06 161.999 105.917 161.609 103.773C160.755 99.067 159.747 93.4923 158.76 87.8423C154.338 62.5007 149.684 32.5057 148.701 2.1873C147.654 -30.0723 150.89 -58.1668 158.59 -83.7019C163.328 -99.3863 170.232 -114.13 179.112 -127.522C187.339 -139.931 197.537 -151.592 209.419 -162.178C229.948 -180.466 256.056 -196.234 289.237 -210.382C321.572 -224.19 349.325 -234.409 376.577 -242.538C415.198 -254.042 454.829 -262.254 488.503 -268.772C566.883 -283.833 648.888 -293.687 732.239 -298.061L732.25 -297.866C648.909 -293.492 566.912 -283.639 488.541 -268.58C454.871 -262.063 415.247 -253.852 376.636 -242.351C349.391 -234.222 321.645 -224.007 289.317 -210.2C217.035 -179.38 175.553 -139.166 158.78 -83.6442C141.393 -25.9984 149.754 35.0823 158.955 87.8096C159.941 93.4611 160.949 99.0331 161.804 103.741C162.192 105.883 162.583 108.028 162.975 110.174C172.468 162.287 182.285 216.176 172.129 268.184C169.589 281.058 165.506 293.425 159.99 304.94C154.853 315.656 148.691 325.159 141.636 333.251Z" fill="white"/>
<path d="M134.102 325.798C133.021 326.917 131.923 328.006 130.808 329.063C121.421 337.963 110.981 344.509 99.7775 348.514C87.5247 352.894 74.3562 354.225 60.6377 352.465C59.4168 352.307 58.1733 352.123 56.9433 351.918C34.9742 348.248 14.5559 338.293 -5.18663 328.666C-9.30164 326.659 -13.5579 324.584 -17.7319 322.616C-42.0657 311.123 -65.215 302.907 -88.5057 297.5C-91.3864 296.832 -94.3095 296.197 -97.1956 295.617C-149.916 285.016 -205.452 287.347 -257.799 302.357C-318.671 319.857 -370.066 351.536 -402.51 391.562C-420.749 414.125 -436.266 454.333 -427.238 489.29C-422.022 509.487 -408.904 524.36 -389.303 532.301L-389.378 532.483C-399.647 528.323 -408.147 522.311 -414.646 514.618C-420.623 507.543 -424.922 499.039 -427.427 489.34C-431.378 474.041 -430.8 456.163 -425.758 437.633C-421.097 420.503 -412.893 404.098 -402.662 391.44C-385.662 370.47 -363.593 351.837 -337.067 336.061C-313.055 321.78 -286.405 310.377 -257.852 302.169C-205.473 287.152 -149.906 284.821 -97.1559 295.427C-94.2684 296.008 -91.3439 296.641 -88.4604 297.311C-65.1571 302.723 -41.9939 310.944 -17.6475 322.444C-13.4721 324.414 -9.21581 326.488 -5.1008 328.495C14.6319 338.115 35.0348 348.063 56.9775 351.73C58.2075 351.936 59.4469 352.12 60.665 352.276C116.408 359.424 154.26 313.256 167.044 264.333C180.307 212.792 172.805 157.728 165.55 104.478L165.476 103.931C164.77 98.7715 164.043 93.4373 163.343 88.1512C155.96 32.3794 150.109 -26.7356 166.33 -82.4584C170.895 -98.0912 177.445 -112.882 185.795 -126.418C193.562 -139.008 203.148 -150.933 214.288 -161.86C233.708 -180.912 258.346 -197.625 289.608 -212.954C322.431 -229.096 348.618 -239.806 374.52 -247.683C411.45 -258.879 451.212 -265.874 486.293 -272.045C564.58 -285.611 646.396 -294.291 729.467 -297.846L729.474 -297.651C646.412 -294.096 564.604 -285.416 486.325 -271.853C451.25 -265.682 411.495 -258.688 374.576 -247.495C348.684 -239.623 322.505 -228.915 289.693 -212.78C221.928 -179.551 182.787 -138.124 166.515 -82.4048C150.305 -26.7182 156.152 32.3718 163.534 88.1229C164.234 93.4089 164.963 98.7445 165.667 103.903L165.741 104.45C169.356 130.986 173.094 158.425 174.211 185.237C175.465 215.367 173.182 241.255 167.23 264.381C160.926 288.501 149.239 310.121 134.102 325.798Z" fill="white"/>
<path d="M726.7 -297.441C643.916 -294.704 562.297 -287.197 484.112 -275.13C480.811 -274.608 477.5 -274.09 474.178 -273.568C440.381 -268.275 405.433 -262.801 372.519 -252.645C340.62 -242.761 312.942 -228.253 290.074 -215.364C226.86 -179.874 190.059 -137.233 174.255 -81.1709C158.092 -23.5622 163.65 38.5354 168.117 88.432C168.385 91.4268 168.659 94.4216 168.932 97.4205C169.133 99.634 169.334 101.849 169.533 104.062C172.093 132.488 174.179 158.111 173.814 183.843C173.395 213.239 169.641 238.337 162.336 260.577C155.491 281.42 144.473 300.108 130.844 314.226C128.361 316.798 125.794 319.216 123.146 321.47C113.478 329.702 102.85 335.703 91.5576 339.306C79.236 343.238 66.0895 344.311 52.4797 342.498C51.2615 342.334 50.0206 342.145 48.7919 341.936C26.9956 338.225 6.60649 328.677 -13.1098 319.444C-17.3563 317.455 -21.7497 315.398 -26.058 313.448C-50.6202 302.307 -73.8237 294.403 -96.9929 289.283C-99.8759 288.646 -102.8 288.046 -105.685 287.496C-158.408 277.471 -213.808 280.378 -265.896 295.902C-326.637 314.07 -377.657 346.336 -409.563 386.756C-431.325 414.437 -441.27 454.627 -433.749 484.49C-428.625 504.836 -415.723 520.023 -396.442 528.414L-396.521 528.594C-406.616 524.201 -414.974 517.997 -421.363 510.153C-427.245 502.932 -431.476 494.314 -433.94 484.538C-437.802 469.205 -437.254 451.357 -432.353 432.926C-427.821 415.878 -419.783 399.439 -409.717 386.635C-392.991 365.445 -371.151 346.549 -344.804 330.472C-320.97 315.93 -294.44 304.233 -265.952 295.711C-213.832 280.177 -158.402 277.27 -105.647 287.301C-102.759 287.851 -99.8334 288.452 -96.9505 289.089C-73.7673 294.212 -50.5526 302.121 -25.9779 313.266C-21.6682 315.218 -17.2763 317.273 -13.0283 319.264C6.67679 328.492 27.0533 338.032 48.8233 341.739C50.0506 341.948 51.2886 342.137 52.504 342.301C111.044 350.099 148.156 303.115 162.149 260.514C178.843 209.686 173.793 153.581 169.338 104.078C169.137 101.863 168.935 99.65 168.736 97.4365C168.462 94.439 168.19 91.4428 167.922 88.448C165.373 59.9667 163.1 32.077 163.289 4.01178C163.506 -28.2634 167.033 -56.1452 174.068 -81.2258C178.462 -96.8139 184.654 -111.65 192.476 -125.322C199.785 -138.101 208.762 -150.29 219.156 -161.552C237.487 -181.413 260.656 -199.072 289.98 -215.537C312.856 -228.429 340.546 -242.944 372.463 -252.833C405.391 -262.995 440.347 -268.469 474.151 -273.764C477.472 -274.283 480.784 -274.803 484.086 -275.325C562.276 -287.394 643.904 -294.901 726.697 -297.638L726.7 -297.441Z" fill="white"/>
<path d="M723.927 -297.229C639.85 -295.271 558.42 -288.939 481.899 -278.406C477.32 -277.775 472.621 -277.146 468.077 -276.537C435.53 -272.171 401.876 -267.658 370.462 -257.794C339.133 -247.905 312.437 -232.103 290.453 -217.947C231.828 -180.375 197.364 -136.52 181.993 -79.9357C167.403 -25.8957 169.984 29.9699 172.48 83.9959L172.753 89.9278C172.97 94.6134 173.192 99.4571 173.399 104.221C175.706 158.117 176.221 210.337 157.44 256.771C152.883 268.039 147.111 278.554 140.286 288.031C132.956 298.206 124.6 306.897 115.448 313.862C105.508 321.427 94.6999 326.886 83.3243 330.087C70.945 333.57 57.8219 334.39 44.3235 332.524C43.1038 332.353 41.8656 332.159 40.6424 331.946C19.03 328.2 -1.31602 319.06 -20.9922 310.22C-25.3828 308.247 -29.9242 306.208 -34.3793 304.274C-59.1767 293.49 -82.4317 285.897 -105.474 281.062C-108.354 280.459 -111.28 279.889 -114.169 279.372C-166.893 269.921 -222.156 273.404 -273.989 289.445C-334.596 308.285 -385.247 341.137 -416.613 381.956C-437.837 409.711 -447.564 449.885 -440.264 479.649C-435.236 500.159 -422.549 515.679 -403.576 524.533L-403.659 524.712C-413.587 520.08 -421.805 513.675 -428.085 505.677C-433.875 498.303 -438.037 489.563 -440.455 479.7C-444.222 464.333 -443.698 446.528 -438.94 428.204C-434.536 411.245 -426.661 394.779 -416.768 381.839C-400.315 360.428 -378.706 341.269 -352.536 324.89C-328.879 310.084 -302.473 298.096 -274.048 289.26C-222.186 273.209 -166.889 269.725 -114.135 279.181C-111.244 279.7 -108.315 280.269 -105.436 280.873C-82.3809 285.709 -59.1133 293.306 -34.3033 304.097C-29.8482 306.031 -25.3053 308.071 -20.9148 310.044C-1.24974 318.878 19.0865 328.015 40.6739 331.756C41.8929 331.967 43.1296 332.16 44.3479 332.333C101.827 340.278 140.361 298.474 157.257 256.7C176.024 210.304 175.508 158.105 173.202 104.232C172.995 99.4689 172.773 94.6252 172.556 89.9396L172.283 84.0077C171.059 57.4882 169.79 30.0663 170.651 2.44415C171.625 -28.84 175.273 -55.8027 181.801 -79.985C186.025 -95.5354 191.863 -110.419 199.152 -124.221C206.005 -137.197 214.371 -149.651 224.018 -161.237C241.278 -181.968 262.974 -200.57 290.345 -218.112C312.339 -232.273 339.048 -248.085 370.401 -257.979C401.83 -267.85 435.493 -272.365 468.048 -276.73C472.593 -277.34 477.291 -277.97 481.871 -278.599C558.398 -289.135 639.835 -295.467 723.92 -297.424L723.927 -297.229Z" fill="white"/>
<path d="M721.153 -297.015C636.96 -295.883 555.718 -290.724 479.686 -281.679C473.972 -280.999 468.076 -280.339 462.375 -279.701C430.951 -276.182 398.457 -272.543 368.406 -262.938C337.364 -252.959 311.774 -235.901 290.834 -220.527C236.838 -181.096 204.713 -136.028 189.732 -78.6952C176.736 -28.5877 176.984 23.0933 177.221 73.0735C177.247 78.3328 177.271 83.771 177.281 89.0555C177.292 95.2612 177.288 99.9896 177.265 104.384C177.138 127.913 176.527 155.485 172.958 181.59C169.173 209.253 162.497 232.601 152.546 252.971C147.313 263.682 140.975 273.583 133.707 282.399C125.902 291.865 117.168 299.894 107.748 306.259C97.5423 313.156 86.5557 318.071 75.0914 320.873C62.66 323.91 49.563 324.475 36.1663 322.554C34.9549 322.378 33.718 322.179 32.4933 321.962C11.0815 318.184 -9.2075 309.45 -28.8297 301.006C-33.3809 299.047 -38.0859 297.022 -42.703 295.104C-67.7454 284.675 -91.0519 277.395 -113.959 272.846C-116.839 272.275 -119.765 271.739 -122.656 271.252C-175.381 262.375 -230.51 266.436 -282.085 282.993C-342.557 302.501 -392.836 335.941 -423.664 377.153C-441.147 400.659 -455.078 439.957 -446.791 474.762C-441.863 495.455 -429.388 511.324 -410.714 520.651L-410.801 520.826C-420.566 515.95 -428.647 509.337 -434.82 501.172C-440.518 493.636 -444.61 484.767 -446.981 474.807C-450.646 459.413 -450.143 441.657 -445.525 423.451C-441.246 406.584 -433.538 390.102 -423.82 377.036C-407.641 355.405 -386.26 335.981 -360.271 319.302C-336.791 304.235 -310.507 291.955 -282.145 282.807C-230.541 266.24 -175.38 262.177 -122.625 271.058C-119.733 271.545 -116.804 272.083 -113.922 272.656C-91.0038 277.207 -67.6848 284.49 -42.6298 294.923C-38.01 296.842 -33.305 298.867 -28.7538 300.826C-9.14268 309.267 11.1365 317.994 32.5247 321.769C33.748 321.984 34.982 322.183 36.1921 322.358C84.3113 329.259 127.742 303.287 152.366 252.882C174.667 207.236 176.796 154.492 177.067 104.381C177.09 99.9862 177.093 95.2592 177.081 89.0535C177.072 83.769 177.047 78.3308 177.021 73.0715C176.905 48.4664 176.783 23.0247 178.318 -2.50608C180.051 -31.3772 183.723 -56.3175 189.541 -78.7487C193.598 -94.2725 199.078 -109.201 205.835 -123.122C212.233 -136.308 219.99 -149.026 228.885 -160.925C245.085 -182.588 265.31 -202.137 290.715 -220.689C311.667 -236.069 337.274 -253.142 368.341 -263.128C398.412 -272.74 430.915 -276.378 462.348 -279.898C468.049 -280.537 473.945 -281.197 479.659 -281.877C555.698 -290.92 636.947 -296.081 721.147 -297.215L721.153 -297.015Z" fill="white"/>
<path d="M718.377 -296.8C634.067 -296.499 553.012 -292.513 477.47 -284.952C471.043 -284.308 464.376 -283.713 457.928 -283.136C427.211 -280.39 395.451 -277.55 366.346 -268.084C335.423 -257.963 311.013 -239.67 291.212 -223.11C242.569 -182.661 211.905 -135.017 197.468 -77.4573C186.051 -31.5512 184.447 15.7021 182.897 61.4007C182.584 70.6312 182.261 80.1754 181.86 89.37C181.616 94.9962 181.378 99.9604 181.13 104.549C179.965 125.876 177.933 153.78 172.521 180.469C167.082 207.284 158.946 229.758 147.647 249.172C135.323 270.347 118.86 287.46 100.041 298.661C89.5764 304.888 78.4113 309.263 66.854 311.663C54.3761 314.255 41.3065 314.565 28.0088 312.59C26.8 312.408 25.5659 312.203 24.3439 311.984C3.15079 308.176 -17.0631 299.854 -36.6092 291.805C-41.3378 289.858 -46.2256 287.844 -51.0257 285.94C-76.3213 275.869 -99.6821 268.9 -122.441 264.636C-125.322 264.096 -128.249 263.592 -131.141 263.137C-183.867 254.835 -238.861 259.471 -290.177 276.546C-350.512 296.723 -400.42 330.75 -430.711 372.358C-451.164 400.629 -460.251 439.8 -453.323 469.828C-448.501 490.724 -436.234 506.958 -417.846 516.774L-417.939 516.947C-427.548 511.818 -435.496 504.989 -441.563 496.652C-447.171 488.946 -451.192 479.935 -453.515 469.872C-457.072 454.457 -456.584 436.756 -452.104 418.682C-447.948 401.917 -440.408 385.423 -430.871 372.242C-414.965 350.391 -393.813 330.704 -368.003 313.723C-344.7 298.392 -318.537 285.82 -290.241 276.358C-238.895 259.274 -183.871 254.635 -131.111 262.942C-128.219 263.397 -125.291 263.903 -122.407 264.443C-99.6354 268.71 -76.2635 275.682 -50.9553 285.757C-46.1553 287.661 -41.2659 289.676 -36.5373 291.623C-17.0011 299.668 3.20305 307.987 24.3753 311.79C25.5972 312.01 26.8272 312.213 28.036 312.395C75.6324 319.471 120.282 295.799 147.477 249.074C172.268 206.476 178.208 154.433 180.934 104.54C181.181 99.9528 181.421 94.9886 181.664 89.3638C182.064 80.1706 182.389 70.6263 182.702 61.3972C184.253 15.6889 185.855 -31.5741 197.279 -77.5011C201.169 -93.0137 206.296 -107.989 212.515 -122.014C218.464 -135.427 225.61 -148.41 233.753 -160.601C248.897 -183.275 267.652 -203.769 291.086 -223.256C310.901 -239.828 335.33 -258.138 366.286 -268.267C395.412 -277.741 427.184 -280.582 457.912 -283.329C464.36 -283.906 471.026 -284.502 477.453 -285.146C553.001 -292.707 634.062 -296.694 718.377 -296.995L718.377 -296.8Z" fill="white"/>
<path d="M715.603 -296.587C631.175 -297.124 550.312 -294.31 475.257 -288.226C468.36 -287.667 461.165 -287.187 454.209 -286.725C423.961 -284.709 392.683 -282.626 364.288 -273.229C333.374 -262.931 310.192 -243.419 291.591 -225.69C247.619 -184.034 219.361 -135.141 205.206 -76.2184C195.353 -34.8244 192.402 7.70664 189.545 48.8375C188.564 62.9802 187.637 76.3395 186.441 89.6828C185.956 95.1121 185.484 100.028 184.995 104.711C181.826 134.916 177.724 158.63 172.083 179.342C165.006 205.327 155.412 226.925 142.75 245.369C137.837 252.524 132.429 259.157 126.613 265.18C116.303 275.858 104.713 284.632 92.3315 291.056C69.9246 302.683 45.5388 306.573 19.8507 302.618C18.6362 302.428 17.4061 302.219 16.1924 301.997C-4.76248 298.166 -24.8735 290.256 -44.3239 282.605C-49.2521 280.667 -54.3452 278.663 -59.3504 276.768C-84.9104 267.055 -108.324 260.4 -130.926 256.417C-133.808 255.909 -136.735 255.437 -139.628 255.014C-192.355 247.286 -247.215 252.499 -298.273 270.09C-358.47 290.937 -408.007 325.55 -437.762 367.553C-457.966 396.263 -466.644 434.447 -459.866 464.828C-455.156 485.947 -443.093 502.564 -424.982 512.888L-425.079 513.059C-434.536 507.668 -442.355 500.615 -448.318 492.094C-453.837 484.206 -457.787 475.048 -460.057 464.871C-463.499 449.441 -463.022 431.808 -458.679 413.875C-454.645 397.217 -447.272 380.727 -437.922 367.439C-422.288 345.369 -401.365 325.416 -375.736 308.136C-352.608 292.544 -326.568 279.681 -298.337 269.903C-247.249 252.303 -192.359 247.086 -139.6 254.818C-136.705 255.242 -133.778 255.714 -130.893 256.222C-108.279 260.207 -84.8526 266.866 -59.2829 276.582C-54.2777 278.477 -49.1818 280.481 -44.2549 282.421C-24.8144 290.068 -4.71164 297.975 16.2252 301.802C17.4374 302.023 18.6661 302.233 19.8792 302.422C67.85 309.81 112.575 288.974 142.586 245.257C171.154 203.641 179.955 150.847 184.798 104.689C185.286 100.008 185.759 95.0934 186.243 89.6641C187.438 76.3223 188.367 62.9643 189.348 48.8216C192.203 7.68385 195.157 -34.8556 205.014 -76.265C208.743 -91.7885 213.514 -106.81 219.195 -120.916C224.697 -134.577 231.232 -147.825 238.618 -160.29C252.706 -184.06 269.989 -205.5 291.454 -225.833C310.07 -243.578 333.274 -263.107 364.224 -273.417C392.641 -282.822 423.932 -284.905 454.191 -286.921C461.149 -287.385 468.343 -287.864 475.237 -288.422C550.298 -294.507 631.168 -297.319 715.601 -296.782L715.603 -296.587Z" fill="white"/>
<path d="M712.829 -296.374C627.092 -297.774 548.658 -296.18 473.043 -291.501C465.828 -291.054 458.597 -290.739 450.94 -290.404C421.01 -289.099 390.062 -287.748 362.231 -278.375C331.07 -267.813 308.314 -246.051 291.971 -228.272C252.74 -185.868 226.891 -135.725 212.946 -74.9787C204.647 -38.4668 200.857 -1.01688 197.193 35.2016C195.267 54.2366 193.447 72.2138 191.022 89.9978C190.304 95.2786 189.596 100.146 188.861 104.875C184.282 134.171 178.81 157.474 171.64 178.216C162.938 203.392 151.885 224.114 137.852 241.567C130.641 250.535 122.595 258.586 113.936 265.498C104.768 272.816 94.904 278.857 84.6195 283.452C61.8228 293.636 37.2887 296.731 11.6955 292.649C10.4837 292.453 9.25627 292.239 8.04534 292.013C-12.6407 288.166 -32.6225 280.671 -51.9466 273.422C-57.1023 271.489 -62.4339 269.488 -67.6707 267.599C-93.5047 258.25 -116.97 251.905 -139.407 248.203C-142.291 247.728 -145.219 247.288 -148.111 246.894C-200.839 239.741 -255.562 245.53 -306.363 263.637C-353.185 280.412 -393.396 305.509 -422.686 335.844C-430.966 344.42 -438.368 353.408 -444.808 362.751C-464.441 391.432 -472.921 429.515 -466.413 459.775C-461.818 481.134 -449.957 498.159 -432.114 509.008L-432.216 509.176C-441.528 503.516 -449.22 496.227 -455.08 487.515C-460.513 479.438 -464.39 470.118 -466.606 459.817C-469.927 444.38 -469.457 426.825 -465.248 409.046C-461.276 392.262 -454.264 376.215 -444.971 362.643C-429.61 340.353 -408.915 320.137 -383.466 302.555C-360.517 286.699 -334.599 273.542 -306.431 263.451C-255.602 245.334 -200.847 239.54 -148.086 246.697C-145.194 247.089 -142.263 247.529 -139.377 248.005C-116.929 251.71 -93.4525 258.057 -67.606 267.411C-62.3692 269.3 -57.0362 271.299 -51.8791 273.234C-32.5634 280.479 -12.5899 287.973 8.07944 291.817C9.28897 292.041 10.5163 292.255 11.7254 292.452C59.5838 300.083 105.497 281.49 137.699 241.441C170.283 200.915 182.052 147.151 188.666 104.839C189.401 100.11 190.108 95.2446 190.827 89.9652C193.253 72.1853 195.071 54.2081 196.997 35.176C200.662 -1.04672 204.451 -38.5036 212.754 -75.028C219.933 -106.303 229.986 -134.089 243.488 -159.977C256.509 -184.943 272.322 -207.329 291.827 -228.411C302.916 -240.475 312.702 -249.605 322.622 -257.146C335.43 -266.882 348.365 -273.888 362.168 -278.566C390.024 -287.948 420.987 -289.298 450.933 -290.605C458.588 -290.939 465.819 -291.256 473.032 -291.701C548.649 -296.38 627.089 -297.974 712.831 -296.574L712.829 -296.374Z" fill="white"/>
<path d="M710.054 -296.159C624.196 -298.422 545.946 -297.968 470.828 -294.775C463.397 -294.46 455.907 -294.305 447.976 -294.142C418.263 -293.53 387.537 -292.9 360.172 -283.521C328.895 -272.737 307.496 -249.711 292.348 -230.857C257.946 -188.311 234.504 -136.918 220.682 -73.743C213.93 -42.56 209.825 -10.6263 205.856 20.2574C202.718 44.6708 199.756 67.7296 195.599 90.3061C194.662 95.4104 193.693 100.367 192.721 105.033C186.851 133.148 179.807 156.715 171.19 177.082C160.871 201.469 148.364 221.318 132.95 237.761C125.108 246.127 116.489 253.563 107.335 259.855C97.7384 266.451 87.4993 271.829 76.8994 275.839C53.763 284.59 29.0792 286.891 3.53365 282.676C2.33006 282.474 1.10398 282.255 -0.109822 282.025C-20.4908 278.169 -40.303 271.094 -59.4633 264.252C-64.8841 262.316 -70.4918 260.314 -75.9992 258.425C-102.118 249.438 -125.635 243.407 -147.895 239.982C-150.78 239.539 -153.709 239.131 -156.601 238.769C-209.331 232.19 -263.919 238.557 -314.463 257.179C-374.382 279.367 -423.179 315.155 -451.862 357.947C-470.921 386.566 -479.208 424.526 -472.977 454.653C-468.504 476.276 -456.842 493.728 -439.253 505.125L-439.36 505.289C-448.529 499.349 -456.1 491.815 -461.859 482.897C-467.205 474.617 -471.012 465.129 -473.171 454.692C-476.363 439.258 -475.896 421.791 -471.821 404.177C-467.966 387.518 -461.121 371.495 -452.026 357.838C-436.936 335.328 -416.473 314.846 -391.204 296.965C-368.429 280.849 -342.634 267.401 -314.532 256.994C-263.96 238.359 -209.34 231.99 -156.58 238.574C-153.686 238.935 -150.755 239.343 -147.868 239.787C-125.595 243.213 -102.069 249.249 -75.9386 258.238C-70.4299 260.125 -64.8234 262.129 -59.3999 264.065C-40.248 270.904 -20.4442 277.977 -0.0771465 281.83C1.13525 282.059 2.36132 282.277 3.56214 282.479C52.2601 290.515 98.1619 274.588 132.804 237.625C160.915 207.635 179.891 165.489 192.524 104.991C193.495 100.326 194.464 95.3723 195.401 90.268C199.555 67.6971 202.52 44.641 205.656 20.2305C209.626 -10.6575 213.73 -42.5966 220.485 -73.788C227.454 -105.641 236.569 -133.729 248.35 -159.661C260.286 -185.932 274.625 -209.263 292.191 -230.984C307.354 -249.86 328.779 -272.911 360.105 -283.712C387.501 -293.1 418.242 -293.731 447.969 -294.343C455.898 -294.505 463.387 -294.661 470.815 -294.976C545.937 -298.17 624.191 -298.623 710.053 -296.359L710.054 -296.159Z" fill="white"/>
<path d="M707.28 -295.948C621.302 -299.078 543.235 -299.767 468.617 -298.051C461.042 -297.878 453.364 -297.896 445.236 -297.918C415.667 -297.996 385.092 -298.075 358.117 -288.671C326.685 -277.648 306.661 -253.365 292.728 -233.443C262.857 -191 242.425 -139.863 228.421 -72.5069C223.214 -47.2021 219.317 -21.3227 215.548 3.70402C210.97 34.1005 206.648 62.8123 200.18 90.6174C199.016 95.6287 197.808 100.534 196.586 105.194C189.383 132.628 180.93 155.772 170.741 175.947C165.034 187.248 158.693 197.721 151.894 207.075C144.64 217.052 136.619 226.096 128.053 233.957C110.673 249.905 90.8654 261.435 69.1838 268.225C45.7676 275.558 20.9369 277.065 -4.6209 272.701C-5.82741 272.491 -7.05079 272.267 -8.25764 272.038C-28.2862 268.184 -47.8787 261.536 -66.8238 255.107C-72.5596 253.161 -78.4895 251.148 -84.3202 249.253C-110.737 240.634 -134.306 234.914 -156.377 231.764C-159.265 231.352 -162.196 230.977 -165.086 230.647C-217.818 224.641 -272.27 231.584 -322.554 250.725C-382.332 273.583 -430.757 309.957 -458.909 353.145C-488.937 399.5 -492.687 469.301 -446.385 501.241L-446.498 501.403C-458.08 493.413 -466.984 482.945 -472.964 470.289C-478.426 458.73 -481.369 445.576 -481.707 431.193C-482.023 417.82 -480.099 403.999 -475.99 390.115C-472.083 376.911 -466.234 364.089 -459.076 353.038C-444.258 330.308 -424.023 309.563 -398.933 291.381C-376.333 275.003 -350.659 261.263 -322.623 250.543C-272.31 231.394 -217.826 224.446 -165.063 230.454C-162.17 230.784 -159.239 231.159 -156.349 231.571C-134.268 234.722 -110.686 240.445 -84.2582 249.067C-78.4275 250.963 -72.4976 252.976 -66.7604 254.923C-47.8209 261.349 -28.2367 267.995 -8.21933 271.845C-7.01385 272.076 -5.79182 272.302 -4.58672 272.511C44.5321 280.895 91.5899 267.15 127.922 233.814C158.677 205.589 181.077 163.503 196.397 105.146C197.618 100.487 198.827 95.5849 199.99 90.5737C206.457 62.7755 210.778 34.0679 215.355 3.67557C219.124 -21.3539 223.02 -47.2361 228.229 -72.5451C242.237 -139.929 262.681 -191.088 292.566 -233.555C301.929 -246.942 310.617 -257.121 319.914 -265.588C331.797 -276.414 344.27 -284.024 358.05 -288.856C385.055 -298.271 415.649 -298.191 445.234 -298.114C453.36 -298.093 461.037 -298.073 468.609 -298.247C543.233 -299.963 621.303 -299.274 707.285 -296.142L707.28 -295.948Z" fill="white"/>
<path d="M704.507 -295.733C618.406 -299.741 540.522 -301.569 466.404 -301.325C458.735 -301.3 450.922 -301.501 442.648 -301.716C413.172 -302.476 382.691 -303.263 356.059 -293.816C324.087 -282.415 304.819 -255.374 293.106 -236.026C261.196 -183.63 246.411 -123.337 236.161 -71.2684C232.508 -52.5246 229.325 -33.3827 226.246 -14.8697C220.07 22.2675 214.236 57.344 204.763 90.9298C203.371 95.8702 201.922 100.723 200.455 105.357C191.936 132.191 182.072 154.911 170.295 174.81C156.945 197.37 141.088 215.99 123.159 230.154C104.74 244.704 83.9841 254.951 61.4685 260.609C37.8533 266.544 12.8757 267.258 -12.7737 262.732C-13.9747 262.516 -15.1968 262.288 -16.4038 262.053C-36.0143 258.219 -55.3136 252.007 -73.9794 246C-80.0958 244.03 -86.42 241.996 -92.6395 240.083C-119.737 231.717 -142.684 226.465 -164.856 223.548C-167.745 223.167 -170.674 222.824 -173.568 222.526C-226.302 217.099 -280.62 224.619 -330.647 244.274C-390.283 267.805 -438.339 304.764 -465.958 348.346C-495.582 395.361 -499.03 463.954 -453.519 497.362L-453.635 497.52C-464.926 489.231 -473.625 478.571 -479.49 465.838C-484.863 454.169 -487.783 440.976 -488.167 426.623C-488.526 413.238 -486.686 399.417 -482.702 385.54C-478.908 372.326 -473.174 359.428 -466.125 348.24C-451.579 325.288 -431.574 304.281 -406.664 285.798C-384.24 269.158 -358.688 255.126 -330.718 244.091C-280.662 224.423 -226.314 216.899 -173.55 222.333C-170.655 222.632 -167.723 222.976 -164.833 223.354C-142.65 226.271 -119.692 231.529 -92.5831 239.897C-86.3636 241.811 -80.0379 243.846 -73.9215 245.815C-55.2613 251.82 -35.9677 258.029 -16.3682 261.863C-15.1612 262.099 -13.9419 262.327 -12.7408 262.543C37.119 271.34 85.3384 259.783 123.036 230.002C156.846 203.292 182.107 162.5 200.267 105.297C201.734 100.666 203.184 95.8153 204.574 90.8777C214.044 57.3002 219.877 22.2293 226.051 -14.9023C229.13 -33.4153 232.313 -52.56 235.967 -71.3066C242.861 -106.319 249.892 -134.193 258.092 -159.026C267.745 -188.258 279.143 -213.478 292.936 -236.127C301.313 -249.964 309.694 -260.982 318.561 -269.81C329.978 -281.176 342.221 -289.09 355.992 -294.001C382.658 -303.46 413.157 -302.673 442.651 -301.911C450.924 -301.698 458.736 -301.495 466.401 -301.522C540.523 -301.767 618.41 -299.937 704.515 -295.93L704.507 -295.733Z" fill="white"/>
<path d="M701.731 -295.522C615.509 -300.412 537.808 -303.382 464.188 -304.603C456.468 -304.73 448.557 -305.118 440.181 -305.53C410.756 -306.972 380.329 -308.465 354.001 -298.965C321.823 -287.299 304.052 -258.935 293.484 -238.613C267.285 -188.52 255.528 -132.628 243.899 -70.0334C241.819 -58.7278 239.81 -47.2015 237.867 -36.0523C230.394 6.82414 222.667 51.1578 209.343 91.2401C207.726 96.111 206.034 100.915 204.317 105.517C194.626 131.457 183.027 154.386 169.841 173.67C154.904 195.516 137.55 213.238 118.258 226.351C98.8803 239.522 77.1752 248.486 53.7449 252.993C30.0339 257.553 4.90804 257.477 -20.9333 252.766C-22.1316 252.545 -23.351 252.311 -24.5552 252.073C-43.656 248.276 -62.5687 242.516 -80.8579 236.946C-87.448 234.939 -94.2614 232.864 -100.963 230.919C-128.39 222.931 -151.388 217.981 -173.341 215.338C-176.223 214.992 -179.156 214.68 -182.054 214.413C-234.79 209.552 -288.97 217.647 -338.742 237.822C-398.235 262.022 -445.918 299.568 -473.009 343.545C-501.2 389.543 -506.452 457.723 -460.656 493.482L-460.777 493.635C-471.778 485.046 -480.27 474.194 -486.02 461.384C-491.306 449.606 -494.202 436.373 -494.633 422.051C-495.425 395.63 -487.605 366.978 -473.179 343.442C-458.904 320.272 -439.128 298.999 -414.399 280.215C-392.148 263.314 -366.72 248.99 -338.817 237.64C-289.018 217.454 -234.805 209.355 -182.04 214.214C-179.138 214.482 -176.206 214.793 -173.321 215.14C-151.357 217.785 -128.349 222.736 -100.912 230.728C-94.2091 232.674 -87.3945 234.748 -80.8043 236.755C-62.5193 242.323 -43.6108 248.082 -24.5198 251.878C-23.3169 252.118 -22.0989 252.35 -20.9005 252.571C30.8001 261.997 78.8812 252.874 118.144 226.189C154.501 201.479 183.43 160.858 204.13 105.451C205.846 100.851 207.536 96.0505 209.153 91.1824C222.472 51.1141 230.199 6.78602 237.669 -36.0821C239.612 -47.2313 241.622 -58.7576 243.703 -70.0646C248.793 -97.4651 254.9 -129.171 262.958 -158.708C271.389 -189.605 281.316 -215.769 293.308 -238.698C300.829 -253.16 308.647 -264.719 317.208 -274.031C328.003 -285.776 340.357 -294.223 353.931 -299.145C365.726 -303.4 379.529 -305.817 396.131 -306.533C410.79 -307.165 425.735 -306.431 440.188 -305.723C448.561 -305.311 456.472 -304.923 464.189 -304.795C537.812 -303.575 615.515 -300.605 701.741 -295.715L701.731 -295.522Z" fill="white"/>
<path d="M698.956 -295.308C612.609 -301.086 535.092 -305.197 461.974 -307.875C454.232 -308.158 446.254 -308.736 437.809 -309.347C408.404 -311.474 377.998 -313.674 351.944 -304.109C327.623 -295.147 308.624 -274.566 293.863 -241.193C273.153 -194.6 264.425 -143.503 255.185 -89.4027C254.035 -82.6657 252.845 -75.7019 251.64 -68.7919C251.17 -66.0836 250.703 -63.3713 250.235 -60.6616C241.349 -9.19271 232.163 44.0283 213.925 91.5541C212.082 96.3596 210.151 101.113 208.184 105.68C197.204 131.15 184.152 153.641 169.392 172.525C152.863 193.671 134.011 210.501 113.364 222.545C93.0997 234.364 70.4456 242.043 46.0306 245.367C22.3658 248.59 -2.90542 247.724 -29.0849 242.793C-30.2806 242.566 -31.4973 242.327 -32.7002 242.084C-51.1532 238.356 -69.5347 233.068 -87.3124 227.957C-94.5113 225.886 -101.957 223.746 -109.282 221.744C-137.054 214.138 -160.102 209.488 -181.82 207.116C-184.706 206.801 -187.637 206.522 -190.536 206.286C-243.276 202.005 -297.322 210.677 -346.835 231.369C-406.182 256.24 -453.497 294.372 -480.058 338.744C-507.252 384.361 -512.195 452.735 -467.79 489.6L-467.915 489.753C-478.625 480.86 -486.913 469.819 -492.545 456.934C-497.742 445.045 -500.618 431.772 -501.091 417.483C-501.966 391.09 -494.361 362.356 -480.227 338.645C-466.224 315.253 -446.678 293.717 -422.129 274.633C-400.055 257.469 -374.747 242.852 -346.911 231.187C-297.369 210.485 -243.291 201.806 -190.526 206.092C-187.626 206.328 -184.69 206.607 -181.804 206.922C-160.075 209.296 -137.017 213.944 -109.236 221.554C-101.909 223.555 -94.4632 225.698 -87.2629 227.767C-69.4908 232.879 -51.1122 238.164 -32.6661 241.891C-31.4632 242.133 -30.2492 242.372 -29.0535 242.599C24.1781 252.625 73.3878 245.631 113.26 222.374C152.619 199.415 184.493 160.126 207.999 105.6C209.964 101.035 211.895 96.2852 213.738 91.4825C231.97 43.9735 241.156 -9.23785 250.037 -60.697C250.505 -63.4094 250.973 -66.119 251.442 -68.8272C252.648 -75.7372 253.837 -82.701 254.989 -89.4366C264.231 -143.548 272.962 -194.659 293.681 -241.273C300.349 -256.351 307.604 -268.448 315.856 -278.256C326.186 -290.533 338.305 -299.292 351.875 -304.294C363.544 -308.578 377.276 -310.867 393.856 -311.293C408.484 -311.667 423.399 -310.588 437.822 -309.544C446.266 -308.934 454.241 -308.356 461.98 -308.073C535.101 -305.395 612.621 -301.285 698.969 -295.505L698.956 -295.308Z" fill="white"/>
<path d="M696.182 -295.094C616.463 -301.247 536.918 -306.65 459.761 -311.15C451.93 -311.583 443.814 -312.357 435.223 -313.176C407.277 -315.84 375.603 -318.859 349.887 -309.254C325.39 -300.082 307.188 -278.664 294.239 -243.776C278.8 -202.334 272.583 -158.471 266 -112.032C263.938 -97.4898 261.807 -82.4498 259.376 -67.5529C255.155 -41.5276 250.335 -13.6213 243.707 14.1118C236.61 43.8136 228.364 69.2474 218.501 91.8699C216.428 96.6226 214.258 101.324 212.044 105.845C199.794 130.852 185.284 152.89 168.92 171.346C150.802 191.777 130.464 207.725 108.461 218.744C67.6958 238.962 18.6733 243.701 -37.2452 232.827C-38.4382 232.594 -39.6522 232.349 -40.8524 232.104C-58.4446 228.492 -76.0708 223.716 -93.1172 219.095C-101.141 216.921 -109.437 214.671 -117.606 212.58C-145.739 205.356 -168.839 201.011 -190.304 198.906C-193.193 198.623 -196.125 198.375 -199.023 198.172C-251.762 194.458 -305.672 203.708 -354.928 224.916C-414.131 250.457 -461.073 289.177 -487.107 333.943C-513.985 380.301 -518.431 447.321 -474.924 485.721L-475.054 485.867C-485.476 476.67 -493.556 465.437 -499.072 452.481C-504.181 440.477 -507.036 427.165 -507.554 412.911C-508.043 399.483 -506.457 385.657 -502.844 371.817C-499.334 358.381 -494.098 345.605 -487.279 333.845C-473.547 310.234 -454.23 288.432 -429.862 269.048C-407.961 251.625 -382.777 236.716 -355.007 224.736C-305.723 203.515 -251.781 194.26 -199.014 197.973C-196.114 198.178 -193.179 198.424 -190.289 198.707C-168.813 200.815 -145.703 205.162 -117.561 212.386C-109.391 214.479 -101.094 216.728 -93.0692 218.904C-76.0242 223.523 -58.4008 228.3 -40.8155 231.911C-39.6153 232.159 -38.4013 232.401 -37.2096 232.635C18.6657 243.5 67.6467 238.768 108.372 218.568C150.183 197.627 185.972 158.619 211.866 105.758C214.077 101.24 216.249 96.5398 218.321 91.7912C240.375 41.2132 250.599 -14.6749 259.18 -67.5841C261.611 -82.481 263.742 -97.5183 265.803 -112.06C272.388 -158.509 278.606 -202.381 294.053 -243.843C307.023 -278.786 325.263 -300.243 349.816 -309.438C361.334 -313.74 374.96 -315.897 391.47 -316.035C406.029 -316.157 420.879 -314.739 435.24 -313.372C443.831 -312.553 451.944 -311.779 459.771 -311.347C536.932 -306.847 616.476 -301.444 696.197 -295.29L696.182 -295.094Z" fill="white"/>
<path d="M693.408 -294.881C613.984 -301.832 534.629 -308.407 457.546 -314.425C449.78 -315.019 441.69 -315.981 433.125 -316.998C405.11 -320.328 373.355 -324.101 347.826 -314.403C323.147 -305.013 305.741 -282.756 294.611 -246.362C282.931 -208.248 278.612 -167.04 274.438 -127.187C272.344 -107.204 270.178 -86.5405 267.11 -66.317C262.282 -34.3843 257.162 -8.53726 250.998 15.0281C243.397 44.0854 234.264 69.3227 223.078 92.1796C220.783 96.8725 218.369 101.524 215.904 106.005C203.062 129.349 188.062 149.967 171.285 167.346C170.353 168.312 169.417 169.263 168.475 170.208C148.749 189.983 126.908 205.031 103.559 214.936C92.2705 219.699 80.2111 223.393 67.7167 225.915C55.973 228.285 43.4775 229.692 30.5774 230.098C7.36909 230.829 -17.487 228.46 -45.4054 222.856C-46.6055 222.614 -47.8056 222.369 -49.0059 222.119C-65.3738 218.704 -81.8691 214.498 -97.821 210.43C-107.03 208.082 -116.552 205.653 -125.935 203.407C-154.836 196.481 -177.306 192.556 -198.793 190.688C-201.683 190.437 -204.616 190.221 -207.514 190.049C-260.251 186.911 -314.025 196.738 -363.023 218.461C-422.08 244.673 -468.651 283.98 -494.158 329.141C-520.064 375.081 -524.227 442.283 -482.06 481.837L-482.195 481.979C-501.836 463.556 -512.839 438.09 -514.016 408.337C-514.548 394.888 -513.047 381.062 -509.557 367.237C-506.159 353.785 -501.037 340.935 -494.33 329.042C-480.871 305.211 -461.782 283.146 -437.596 263.461C-415.868 245.778 -390.806 230.577 -363.105 218.281C-314.075 196.545 -260.27 186.713 -207.501 189.852C-204.601 190.025 -201.665 190.239 -198.774 190.49C-177.276 192.361 -154.798 196.286 -125.887 203.216C-116.502 205.463 -106.979 207.891 -97.7716 210.24C-81.8211 214.307 -65.3286 218.513 -48.9648 221.926C-47.7646 222.177 -46.5657 222.423 -45.367 222.664C13.9587 234.573 62.6479 231.986 103.483 214.756C159.948 190.802 195.692 142.345 215.733 105.911C218.195 101.433 220.608 96.7854 222.902 92.094C248.628 39.5235 259.938 -20.1938 266.917 -66.3455C269.986 -86.5648 272.15 -107.227 274.244 -127.207C278.422 -167.068 282.739 -208.286 294.425 -246.418C299.405 -262.703 305.531 -275.88 313.152 -286.699C322.55 -300.041 334.194 -309.423 347.758 -314.583C359.19 -318.926 372.79 -320.961 389.335 -320.804C403.912 -320.666 418.775 -318.9 433.151 -317.191C441.713 -316.174 449.8 -315.212 457.562 -314.619C534.645 -308.601 614 -302.026 693.425 -295.077L693.408 -294.881Z" fill="white"/>
<path d="M690.635 -294.669L455.334 -317.7C447.65 -318.452 439.604 -319.598 431.088 -320.81C402.984 -324.812 371.13 -329.347 345.772 -319.549C321.251 -310.072 304.166 -286.318 294.992 -248.944C286.171 -213.016 283.72 -174.846 281.35 -137.932C279.805 -113.87 278.206 -88.9901 274.854 -65.078C264.778 6.79326 247.275 61.207 219.773 106.166C208.364 124.816 195.458 141.621 181.276 156.309C176.977 160.762 172.564 165.016 168.037 169.072C146.691 188.198 123.349 202.349 98.6651 211.131C75.7858 219.269 50.9932 222.984 22.873 222.483C0.417906 222.083 -23.8685 219.034 -53.557 212.886C-69.2254 209.642 -85.0854 205.837 -100.423 202.157C-135.132 193.832 -171.023 185.222 -207.27 182.469C-262.865 178.248 -319.522 188.463 -371.117 212.009C-430.025 238.89 -476.226 278.784 -501.206 324.338C-525.392 368.443 -531.949 435.327 -489.194 477.956L-489.333 478.094C-508.443 459.04 -519.212 433.337 -520.476 403.764C-521.619 377.025 -514.837 348.784 -501.379 324.243C-488.189 300.192 -469.33 277.862 -445.326 257.878C-423.774 239.932 -398.832 224.44 -371.198 211.83C-345.668 200.179 -318.713 191.73 -291.077 186.717C-263.211 181.662 -235.01 180.165 -207.259 182.272C-170.999 185.024 -135.098 193.635 -100.38 201.964C-85.0443 205.642 -69.1858 209.446 -53.5201 212.69C-10.203 221.662 46.233 229.569 98.5966 210.942C158.648 189.58 197.545 142.117 219.602 106.061C247.092 61.1256 264.585 6.7356 274.656 -65.1078C278.007 -89.0102 279.605 -113.889 281.151 -137.946C283.522 -174.867 285.975 -213.047 294.8 -248.994C303.99 -286.431 321.115 -310.233 345.7 -319.733C357.053 -324.12 370.636 -326.032 387.228 -325.577C401.832 -325.175 416.719 -323.056 431.114 -321.006C439.63 -319.794 447.672 -318.65 455.353 -317.897L690.654 -294.867L690.635 -294.669Z" fill="white"/>
<path d="M679.566 -303.709C616.478 -312.636 564.075 -318.627 514.655 -322.563C490.656 -324.484 466.641 -325.967 443.276 -326.972C436.209 -327.276 428.929 -327.846 421.222 -328.45C401.851 -329.968 381.82 -331.538 363.326 -328.944C353.389 -327.56 344.92 -325.168 337.436 -321.63C314.4 -310.831 299.344 -286.602 292.687 -249.618C289.23 -230.487 287.85 -211.362 286.956 -195.177C286.009 -178.043 286.014 -160.234 286.017 -143.011C286.024 -118.255 286.031 -92.6572 283.272 -67.8095C281.613 -52.671 279.126 -38.1033 275.88 -24.5085C269.385 2.68942 259.862 29.4195 247.578 54.939C239.944 70.6639 231.301 85.5257 221.889 99.1081C213.77 110.808 204.939 121.855 195.637 131.944C181.717 147.044 166.52 160.177 150.464 170.975C133.392 182.456 115.223 191.377 96.4599 197.488C79.7289 202.937 62.0585 206.281 42.4375 207.71C5.88955 210.386 -29.5658 206.433 -56.3713 202.689C-69.5757 200.815 -82.8057 198.66 -95.6003 196.576C-132.445 190.572 -167.246 184.902 -203.279 185.065C-232.567 185.293 -261.801 189.591 -290.177 197.842C-311.983 204.182 -333.51 213.192 -354.159 224.62C-359.077 227.343 -363.984 230.218 -368.739 233.164C-389.205 245.852 -410.227 262.084 -431.22 281.407C-452.414 300.861 -468.592 319.777 -480.672 339.234C-487.516 350.219 -492.979 361.99 -496.913 374.222C-510.802 417.407 -504.802 459.541 -480.862 486.933L-481.048 487.094C-487.43 479.792 -492.605 471.449 -496.433 462.295C-500.068 453.599 -502.514 444.115 -503.704 434.107C-505.949 415.199 -503.682 394.464 -497.148 374.145C-493.208 361.894 -487.736 350.105 -480.881 339.103C-468.787 319.626 -452.597 300.695 -431.386 281.226C-410.381 261.891 -389.347 245.652 -368.868 232.955C-364.107 230.007 -359.198 227.131 -354.277 224.406C-333.612 212.968 -312.067 203.95 -290.244 197.606C-261.849 189.349 -232.589 185.048 -203.284 184.822C-167.23 184.659 -132.42 190.332 -95.5642 196.336C-82.771 198.421 -69.5424 200.575 -56.3408 202.449C-29.5478 206.191 5.89088 210.142 42.4166 207.466C62.0168 206.039 79.6694 202.699 96.381 197.256C133.102 185.295 166.435 163.267 195.455 131.779C204.749 121.699 213.574 110.659 221.685 98.9688C231.089 85.3949 239.727 70.5443 247.354 54.8321C259.632 29.328 269.149 2.61456 275.639 -24.5666C278.883 -38.1517 281.368 -52.7111 283.026 -67.837C285.782 -92.6709 285.776 -118.263 285.769 -143.01C285.765 -160.236 285.759 -178.049 286.707 -195.191C287.601 -211.384 288.984 -230.518 292.444 -249.662C295.407 -266.129 300.134 -280.28 306.493 -291.726C314.304 -305.785 324.68 -315.921 337.331 -321.851C344.838 -325.399 353.331 -327.799 363.292 -329.188C381.813 -331.785 401.856 -330.214 421.241 -328.696C428.946 -328.092 436.226 -327.522 443.287 -327.218C466.656 -326.214 490.674 -324.731 514.677 -322.809C564.101 -318.871 616.508 -312.879 679.602 -303.953L679.566 -303.709Z" fill="white"/>
<path d="M668.496 -312.754C606.672 -324.246 552.486 -331.325 502.845 -334.393C478.614 -335.91 454.516 -336.534 431.221 -336.247C425.04 -336.171 418.775 -336.255 412.141 -336.342C392.276 -336.603 371.735 -336.873 353.338 -332.725C344.032 -330.646 336.106 -327.7 329.1 -323.714C302.273 -308.455 293.238 -275.368 290.38 -250.297C288.332 -232.556 288.159 -214.714 288.155 -196.478C288.152 -180.516 289.224 -164.459 290.358 -147.461C292.044 -122.23 293.786 -96.1405 291.688 -70.5456C290.481 -55.3208 287.97 -40.6388 284.227 -26.9075C277.256 -1.32856 266.7 23.8605 251.958 50.1008C243.707 64.785 234.302 78.9 224 92.0515C215.295 103.136 205.944 113.561 196.2 123.035C181.709 137.133 165.946 149.37 149.347 159.41C131.913 169.952 113.375 178.173 94.2493 183.844C77.4934 188.814 59.6115 191.968 39.5828 193.488C3.23239 196.273 -32.2964 194.42 -59.187 192.493C-69.1415 191.779 -79.0589 190.96 -88.6526 190.166C-126.857 187.007 -162.943 184.021 -199.286 187.659C-226.447 190.377 -253.422 196.827 -279.458 206.828C-299.157 214.394 -318.044 224.338 -337.197 237.225C-341.615 240.201 -346.018 243.317 -350.281 246.487C-368.991 260.424 -387.086 277.106 -408.798 297.464C-424.488 312.102 -444.503 331.769 -460.142 354.128C-467.577 364.691 -473.661 375.965 -478.233 387.637C-494.323 428.734 -492.192 469.209 -472.532 495.911L-472.769 496.086C-477.983 489.006 -482.028 480.954 -484.796 472.158C-487.433 463.774 -488.925 454.663 -489.236 445.075C-489.824 426.856 -486.115 406.957 -478.508 387.53C-473.929 375.836 -467.832 364.54 -460.385 353.959C-444.732 331.578 -424.701 311.896 -409.001 297.249C-387.282 276.883 -369.182 260.195 -350.46 246.249C-346.193 243.078 -341.787 239.958 -337.365 236.978C-318.193 224.08 -299.288 214.126 -279.566 206.551C-253.505 196.54 -226.508 190.084 -199.319 187.362C-162.95 183.723 -126.851 186.707 -88.6328 189.869C-79.0418 190.662 -69.1244 191.482 -59.1714 192.194C-32.2891 194.119 3.2258 195.972 39.5569 193.19C59.5634 191.673 77.4259 188.522 94.1624 183.559C131.77 172.408 166.031 151.97 195.992 122.82C205.726 113.354 215.07 102.941 223.765 91.8656C234.057 78.7267 243.456 64.6243 251.698 49.9528C266.429 23.7349 276.975 -1.43317 283.941 -26.9899C287.679 -40.7044 290.187 -55.3668 291.392 -70.5749C293.488 -96.1476 291.746 -122.226 290.063 -147.446C288.927 -164.451 287.855 -180.511 287.859 -196.483C287.862 -214.729 288.036 -232.577 290.085 -250.336C291.937 -266.589 295.677 -280.774 301.197 -292.5C307.892 -306.718 317.23 -317.308 328.953 -323.976C335.984 -327.975 343.938 -330.933 353.272 -333.018C371.702 -337.172 392.261 -336.901 412.143 -336.641C418.774 -336.553 425.039 -336.472 431.216 -336.547C454.519 -336.834 478.624 -336.209 502.863 -334.692C552.516 -331.621 606.712 -324.543 668.549 -313.047L668.496 -312.754Z" fill="white"/>
<path d="M657.423 -321.798C596.003 -335.99 541.577 -343.98 491.034 -346.222C466.569 -347.333 442.39 -347.097 419.166 -345.522C414.202 -345.187 409.015 -344.914 404 -344.65C383.284 -343.564 361.864 -342.441 343.352 -336.508C334.641 -333.743 327.252 -330.242 320.767 -325.803C295.87 -308.768 289.246 -275.71 288.072 -250.979C287.244 -234.247 288.227 -217.273 289.177 -200.856L289.355 -197.782C290.212 -182.883 292.268 -167.698 294.445 -151.619C297.912 -126.016 301.496 -99.5443 300.103 -73.2821C299.346 -57.9501 296.813 -43.154 292.573 -29.3043C285.182 -5.15665 273.665 18.54 256.333 45.2661C247.371 59.0861 237.202 72.4531 226.105 84.9958C216.813 95.4641 206.94 105.266 196.756 114.128C165.935 140.969 130.702 159.835 92.0347 170.203C75.3189 174.685 57.2285 177.651 36.727 179.266C2.06745 182.033 -31.0511 182.281 -62.0011 182.296C-66.1508 182.299 -70.2645 182.293 -74.3463 182.288C-116.691 182.24 -156.686 182.193 -195.286 190.252C-220.486 195.513 -245.199 204.115 -268.736 215.815C-286.017 224.405 -302.862 235.533 -320.232 249.83C-324.144 253.054 -328.043 256.412 -331.821 259.81C-341.313 268.37 -350.809 278 -360.864 288.196C-368.94 296.385 -377.29 304.853 -386.375 313.525C-403.982 330.215 -423.935 349.132 -439.613 369.029C-447.702 379.296 -454.409 390.072 -459.55 401.06C-477.792 440.058 -479.529 478.877 -464.196 504.901L-464.492 505.075C-468.536 498.214 -471.451 490.457 -473.159 482.018C-474.793 473.949 -475.335 465.209 -474.771 456.044C-473.69 438.514 -468.534 419.451 -459.863 400.916C-454.712 389.903 -447.991 379.104 -439.886 368.818C-424.191 348.901 -404.227 329.975 -386.614 313.278C-377.536 304.61 -369.184 296.144 -361.111 287.957C-351.052 277.757 -341.553 268.125 -332.051 259.558C-328.27 256.158 -324.367 252.796 -320.452 249.568C-303.061 235.253 -286.195 224.113 -268.89 215.511C-245.325 203.797 -220.585 195.186 -195.357 189.919C-156.723 181.852 -116.708 181.899 -74.3453 181.948C-70.2634 181.953 -66.1498 181.957 -62 181.956C-31.0556 181.941 2.05329 181.695 36.7017 178.928C57.181 177.313 75.2535 174.352 91.9485 169.874C130.566 159.521 165.752 140.678 196.534 113.872C206.706 105.02 216.569 95.2284 225.85 84.7714C236.934 72.2414 247.094 58.8871 256.047 45.0826C273.361 18.3831 284.865 -5.2856 292.247 -29.4012C296.477 -43.2216 299.005 -57.9899 299.762 -73.2954C301.153 -99.5243 297.57 -125.981 294.105 -151.569C291.926 -167.654 289.87 -182.847 289.013 -197.758L288.835 -200.832C287.884 -217.257 286.9 -234.241 287.729 -250.991C288.906 -275.801 295.561 -308.968 320.573 -326.083C327.089 -330.541 334.505 -334.057 343.249 -336.831C361.801 -342.777 383.245 -343.902 403.983 -344.988C408.997 -345.251 414.184 -345.524 419.145 -345.859C442.381 -347.434 466.573 -347.67 491.05 -346.558C541.614 -344.315 596.06 -336.323 657.499 -322.125L657.423 -321.798Z" fill="white"/>
<path d="M646.349 -330.842C586.187 -347.513 529.959 -356.668 479.227 -358.05C454.53 -358.754 430.269 -357.659 407.118 -354.797C403.775 -354.384 400.33 -353.981 396.997 -353.591C374.985 -351.012 352.221 -348.347 333.376 -340.294C325.261 -336.861 318.414 -332.806 312.441 -327.895C289.53 -309.057 285.29 -276.043 285.766 -251.663C286.023 -236.563 287.863 -221.38 289.642 -206.697C289.951 -204.156 290.257 -201.619 290.556 -199.085C292.199 -185.167 295.157 -170.78 298.288 -155.551C303.611 -129.659 309.114 -102.887 308.523 -76.0162C308.176 -60.2365 305.69 -45.741 300.924 -31.696C290.955 -2.32041 275.002 21.2526 260.714 40.4381C251.049 53.4131 240.118 66.0333 228.217 77.9465C218.342 87.7925 207.945 96.9708 197.319 105.226C165.821 129.714 129.655 146.987 89.8272 156.564C73.2569 160.551 54.9565 163.325 33.8783 165.049C12.6107 166.813 -7.51532 168.161 -26.9803 169.464C-40.2092 170.349 -52.7049 171.186 -64.8039 172.103C-110.539 175.57 -151.626 179.524 -191.277 192.845C-214.501 200.649 -236.954 211.4 -258.01 224.801C-273.101 234.406 -287.48 246.364 -303.263 262.431C-306.664 265.902 -310.06 269.502 -313.356 273.13C-318.353 278.652 -323.339 284.542 -328.614 290.776C-338.739 302.74 -350.218 316.302 -363.951 329.588C-369.182 334.647 -374.588 339.74 -379.818 344.666C-393.269 357.335 -407.178 370.435 -419.084 383.933C-427.827 393.846 -435.158 404.127 -440.87 414.487C-461.202 451.372 -466.804 488.535 -455.856 513.9L-456.217 514.056C-459.084 507.415 -460.87 499.952 -461.525 491.875C-462.155 484.118 -461.746 475.751 -460.311 467.011C-457.545 450.17 -450.942 431.944 -441.216 414.301C-435.491 403.915 -428.145 393.611 -419.382 383.676C-407.463 370.163 -393.547 357.058 -380.089 344.382C-374.86 339.458 -369.454 334.364 -364.225 329.307C-350.504 316.034 -339.034 302.483 -328.914 290.525C-323.636 284.287 -318.649 278.397 -313.647 272.869C-310.346 269.236 -306.947 265.634 -303.543 262.159C-287.739 246.068 -273.337 234.093 -258.221 224.472C-237.139 211.055 -214.658 200.288 -191.402 192.475C-173.492 186.457 -153.755 181.892 -131.064 178.518C-110.75 175.497 -89.8967 173.614 -64.8342 171.714C-52.7338 170.798 -40.238 169.961 -27.0078 169.075C-7.54562 167.771 12.5804 166.424 33.8438 164.661C54.9012 162.939 73.1823 160.168 89.7333 156.187C129.507 146.624 165.622 129.375 197.076 104.921C207.691 96.6756 218.074 87.5087 227.938 77.674C239.825 65.7749 250.745 53.1688 260.397 40.2079C274.668 21.0476 290.6 -2.49444 300.551 -31.8184C305.304 -45.8243 307.784 -60.2823 308.129 -76.0203C308.719 -102.845 303.221 -129.597 297.903 -155.468C294.77 -170.707 291.811 -185.1 290.166 -199.034C289.867 -201.567 289.559 -204.104 289.252 -206.643C287.471 -221.336 285.63 -236.528 285.373 -251.648C285.063 -267.509 286.819 -281.778 290.595 -294.057C295.066 -308.602 302.332 -320.086 312.19 -328.189C318.192 -333.124 325.072 -337.199 333.22 -340.646C352.116 -348.721 374.908 -351.39 396.948 -353.971C400.28 -354.362 403.725 -354.765 407.066 -355.178C430.235 -358.042 454.516 -359.136 479.233 -358.432C506.171 -357.697 534.842 -354.768 564.447 -349.723C590.615 -345.265 618.204 -339.035 646.448 -331.21L646.349 -330.842Z" fill="white"/>
<path d="M635.273 -339.89C575.522 -359.249 519.048 -369.34 467.419 -369.881C442.489 -370.177 418.149 -368.223 395.072 -364.076C393.974 -363.879 392.875 -363.682 391.775 -363.485C367.765 -359.185 342.938 -354.739 323.405 -344.085C315.838 -339.957 309.53 -335.347 304.121 -329.994C283.259 -309.341 281.372 -276.373 283.463 -252.355C284.649 -238.265 287.296 -224.217 289.856 -210.633C290.489 -207.274 291.143 -203.801 291.762 -200.399C294.119 -187.439 297.905 -173.851 301.916 -159.466C309.211 -133.299 316.754 -106.242 316.946 -78.7582C317.056 -62.8576 314.548 -48.2479 309.277 -34.0926C298.893 -6.20672 281.904 15.8863 265.094 35.6064C254.728 47.7657 243.03 59.6378 230.327 70.8938C219.87 80.1147 208.953 88.6682 197.879 96.3198C165.877 118.452 128.779 134.133 87.6197 142.92C71.1371 146.441 53.1554 148.953 31.0322 150.824C-10.959 154.433 -41.3785 157.849 -67.5985 161.9C-119.748 169.956 -155.533 179.983 -187.253 195.424C-208.489 205.762 -228.681 218.664 -247.27 233.772C-260.167 244.255 -272.201 256.975 -286.284 275.019C-289.165 278.721 -292.058 282.561 -294.881 286.436C-297.541 290.104 -300.184 293.885 -302.984 297.889C-313.32 312.675 -325.036 329.433 -341.521 345.643C-350.21 354.188 -359.475 362.538 -368.434 370.614C-378.616 379.793 -389.145 389.283 -398.553 398.835C-407.986 408.412 -415.94 418.197 -422.186 427.913C-444.532 462.665 -453.998 498.178 -447.508 522.908L-447.935 523.02C-449.622 516.596 -450.277 509.427 -449.883 501.715C-449.504 494.269 -448.145 486.279 -445.845 477.965C-441.38 461.814 -433.328 444.422 -422.558 427.675C-416.293 417.933 -408.322 408.125 -398.868 398.525C-389.452 388.965 -378.917 379.469 -368.73 370.288C-359.774 362.215 -350.513 353.868 -341.831 345.331C-325.375 329.15 -313.672 312.409 -303.346 297.641C-300.546 293.634 -297.899 289.85 -295.239 286.181C-292.412 282.301 -289.516 278.458 -286.634 274.752C-272.528 256.681 -260.475 243.938 -247.55 233.434C-228.934 218.305 -208.714 205.385 -187.447 195.032C-155.685 179.569 -119.862 169.532 -67.667 161.468C-41.4373 157.416 -11.0082 153.999 30.9942 150.389C53.1007 148.518 71.0631 146.009 87.5277 142.493C128.631 133.716 165.674 118.061 197.629 95.9607C208.688 88.3191 219.591 79.7742 230.034 70.5674C242.722 59.3242 254.405 47.4676 264.759 35.3239C281.543 15.6333 298.505 -6.4204 308.866 -34.2421C314.118 -48.3443 316.616 -62.9039 316.506 -78.749C316.314 -106.173 308.78 -133.202 301.492 -159.34C297.48 -173.736 293.689 -187.333 291.33 -200.312C290.712 -203.712 290.058 -207.186 289.424 -210.545C286.861 -224.14 284.213 -238.198 283.026 -252.312C281.66 -267.986 282.427 -282.297 285.303 -294.847C288.672 -309.549 294.903 -321.477 303.813 -330.302C309.252 -335.686 315.593 -340.319 323.196 -344.467C342.795 -355.156 367.656 -359.609 391.701 -363.913C392.802 -364.111 393.902 -364.308 394.998 -364.505C418.101 -368.656 442.471 -370.612 467.428 -370.317C519.102 -369.774 575.62 -359.676 635.413 -340.303L635.273 -339.89Z" fill="white"/>
<path d="M271.728 28.4405C270.963 29.2324 270.208 30.0117 269.462 30.7756C258.394 42.1426 245.933 53.2694 232.426 63.8418C221.391 72.4334 209.953 80.3634 198.431 87.4139C181.976 97.4935 163.953 106.153 144.862 113.155C126.425 119.916 106.422 125.34 85.4054 129.276C64.8135 133.133 44.0066 135.216 28.1794 136.601C-8.80475 139.887 -41.9703 144.967 -70.3971 151.698C-116.437 162.601 -152.292 177.313 -183.234 198C-201.901 210.48 -220.061 225.674 -235.806 241.981C-236.05 242.234 -236.293 242.485 -236.535 242.739C-250.014 256.795 -260.255 272.608 -269.311 287.601C-271.663 291.508 -274.054 295.591 -276.414 299.738C-277.703 302.015 -278.98 304.309 -280.331 306.736C-289.855 323.86 -300.652 343.268 -319.1 361.699C-330.336 372.923 -342.783 383.449 -354.822 393.628C-362.596 400.2 -370.632 406.995 -378.032 413.735C-388.202 423.001 -396.776 432.287 -403.513 441.34C-427.779 473.938 -441.109 507.802 -439.17 531.929L-439.659 531.97C-440.652 519.595 -437.871 505.11 -431.394 488.914C-425.207 473.448 -415.702 456.895 -403.905 441.049C-397.149 431.973 -388.555 422.66 -378.36 413.375C-370.954 406.628 -362.912 399.829 -355.135 393.255C-343.103 383.083 -330.662 372.564 -319.443 361.354C-301.042 342.971 -290.265 323.595 -280.755 306.501C-279.404 304.071 -278.127 301.777 -276.837 299.498C-274.474 295.348 -272.082 291.261 -269.727 287.351C-260.655 272.334 -250.397 256.494 -236.887 242.403C-220.948 225.78 -202.49 210.288 -183.503 197.596C-167.533 186.92 -150.578 177.991 -131.671 170.303C-113.462 162.899 -93.4548 156.657 -70.508 151.225C-42.0591 144.488 -8.86858 139.405 28.1391 136.118C43.9552 134.736 64.747 132.654 85.3167 128.8C127.962 120.814 165.934 106.75 198.179 87.0008C209.685 79.9603 221.108 72.0402 232.128 63.4614C245.617 52.9018 258.062 41.7919 269.114 30.4391C286.407 12.6749 305.802 -8.61462 317.17 -36.6665C322.924 -50.865 325.443 -65.5221 324.873 -81.4756C323.872 -109.493 314.198 -136.766 304.844 -163.143C300.032 -176.711 295.486 -189.526 292.485 -201.587C291.524 -205.45 290.502 -209.398 289.514 -213.217C286.175 -226.119 282.723 -239.457 280.671 -252.966C278.267 -268.462 278.041 -282.818 279.999 -295.632C282.27 -310.49 287.459 -322.861 295.423 -332.403C300.338 -338.292 306.14 -343.485 313.16 -348.277C331.928 -361.091 356.867 -367.674 382.917 -373.824C405.631 -379.187 430.768 -382.082 455.612 -382.193C483.165 -382.356 512.367 -379.313 542.403 -373.146C569.162 -367.652 596.739 -359.659 624.369 -349.388L624.198 -348.929C564.862 -370.986 508.143 -382.014 455.615 -381.702C430.807 -381.591 405.709 -378.703 383.031 -373.346C357.026 -367.206 332.136 -360.636 313.436 -347.871C306.454 -343.105 300.686 -337.941 295.8 -332.088C281.169 -314.554 275.967 -286.481 281.156 -253.04C283.205 -239.556 286.654 -226.229 289.989 -213.339C290.979 -209.519 292 -205.568 292.962 -201.705C295.957 -189.667 300.499 -176.861 305.307 -163.307C309.897 -150.365 314.644 -136.982 318.388 -123.268C322.633 -107.722 324.915 -94.0588 325.365 -81.4941C325.938 -65.4699 323.407 -50.7474 317.627 -36.4818C312.529 -23.9002 305.54 -11.8357 296.263 0.404089C288.4 10.7637 279.595 20.2923 271.728 28.4405Z" fill="white"/>
<path d="M294.294 6.48549C287.344 13.6836 280.239 20.1838 273.832 25.9502C262.051 36.5529 248.827 46.9316 234.526 56.7953C222.919 64.7533 210.961 72.0613 198.982 78.5137C166.195 96.1983 128.317 108.341 83.1891 115.637C63.5096 118.82 43.8121 120.715 25.3273 122.381C-11.1162 125.72 -44.2612 132.15 -73.1923 141.496C-115.741 155.241 -149.429 174.011 -179.21 200.569C-196.179 215.701 -212.288 233.382 -225.799 251.7C-237.107 267.032 -245.109 284.055 -252.339 300.178C-254.142 304.217 -256.029 308.543 -257.947 313.034C-258.424 314.158 -258.902 315.294 -259.389 316.445C-267.363 335.354 -276.386 356.751 -295.695 376.748C-296.021 377.086 -296.347 377.42 -296.679 377.756C-309.879 391.154 -325.147 403.103 -339.914 414.66C-345.769 419.241 -351.822 423.98 -357.516 428.637C-368.636 437.737 -377.577 446.283 -384.849 454.769C-411.297 485.633 -428.065 517.05 -430.847 540.965L-431.384 540.902C-430.008 529.08 -425.017 514.884 -416.953 499.852C-409.022 485.067 -398.062 469.357 -385.26 454.418C-377.968 445.908 -369.005 437.34 -357.861 428.22C-352.161 423.557 -346.105 418.818 -340.251 414.234C-325.498 402.688 -310.244 390.75 -297.069 377.378C-277.149 357.165 -267.981 335.418 -259.892 316.235C-259.407 315.085 -258.927 313.948 -258.451 312.822C-256.532 308.328 -254.644 304 -252.838 299.958C-245.597 283.807 -237.578 266.755 -226.24 251.38C-212.707 233.034 -196.573 215.324 -179.577 200.166C-164.818 187.005 -149.254 175.899 -131.995 166.213C-114.22 156.238 -95.0428 147.984 -73.3649 140.983C-44.3965 131.627 -11.2101 125.187 25.2708 121.844C43.7487 120.179 63.4338 118.286 83.0952 115.104C128.163 107.818 165.983 95.6943 198.718 78.0383C210.679 71.5946 222.622 64.2966 234.212 56.35C248.493 46.5005 261.7 36.1373 273.461 25.5488C293.254 7.73185 313.573 -11.9342 325.467 -39.0964C331.724 -53.3899 334.265 -68.1458 333.231 -84.2062C331.393 -112.817 318.94 -141.542 307.954 -166.888C302.426 -179.64 297.205 -191.685 293.632 -202.862C292.343 -206.895 290.973 -211.024 289.648 -215.017C285.502 -227.51 281.215 -240.426 278.307 -253.625C274.877 -268.957 273.659 -283.357 274.685 -296.426C275.864 -311.435 280.014 -324.249 287.021 -334.508C291.4 -340.921 296.664 -346.672 303.108 -352.092C321.116 -367.233 346.295 -375.968 370.824 -383.152C393.472 -389.785 418.701 -393.563 443.785 -394.078C471.645 -394.692 501.113 -391.591 531.365 -384.863C558.418 -378.846 585.989 -369.972 613.316 -358.483L613.106 -357.987C555.021 -382.407 496.474 -394.701 443.795 -393.542C418.76 -393.028 393.579 -389.257 370.976 -382.637C346.505 -375.471 321.389 -366.759 303.457 -351.682C297.05 -346.295 291.819 -340.578 287.468 -334.208C274.53 -315.265 271.463 -286.691 278.833 -253.746C281.734 -240.574 286.018 -227.671 290.16 -215.192C291.486 -211.197 292.856 -207.068 294.147 -203.031C297.711 -191.879 302.927 -179.846 308.448 -167.106C319.45 -141.721 331.923 -112.948 333.769 -84.2435C334.807 -68.0944 332.252 -53.2564 325.96 -38.8818C320.499 -26.4089 312.905 -14.5972 302.74 -2.77313C300 0.431996 297.16 3.51675 294.294 6.48549Z" fill="white"/>
<path d="M309.54 -6.24781C309.44 -6.14476 309.342 -6.04316 309.243 -5.94011C299.395 4.20785 288.508 12.9939 278.198 21.1244C265.689 30.9909 251.701 40.6187 236.624 49.7457C224.451 57.07 211.97 63.7533 199.532 69.6103C166.568 85.1517 128.897 95.4423 80.9755 101.994C63.7195 104.356 46.0194 105.986 28.9025 107.566C26.761 107.762 24.6195 107.961 22.478 108.16C-14.0608 111.606 -47.188 119.388 -75.9806 131.29C-115.407 147.588 -147.856 171.087 -175.182 203.13C-190.165 220.701 -203.954 240.592 -215.057 260.653C-223.817 276.482 -229.215 292.913 -235.363 312.748C-236.603 316.774 -237.912 321.089 -239.478 326.325L-239.564 326.618C-242.562 336.743 -245.962 348.217 -251.21 359.702C-257.238 372.891 -264.783 384.048 -274.253 393.816C-289.027 409.041 -306.904 421.875 -324.193 434.283C-328.429 437.324 -332.81 440.469 -336.997 443.546C-349.001 452.373 -358.547 460.438 -366.179 468.205C-394.283 496.803 -414.82 526.623 -422.527 550.016L-423.085 549.832C-419.311 538.373 -412.192 524.873 -402.5 510.791C-392.79 496.683 -380.375 481.814 -366.597 467.793C-358.943 460.004 -349.373 451.917 -337.343 443.072C-333.154 439.992 -328.773 436.847 -324.535 433.805C-307.268 421.411 -289.413 408.594 -274.675 393.406C-274.609 393.338 -274.543 393.269 -274.477 393.201C-253.45 371.423 -246.065 346.495 -240.128 326.451L-240.04 326.156C-238.474 320.917 -237.165 316.603 -235.924 312.575C-229.765 292.706 -224.358 276.247 -215.57 260.368C-204.449 240.272 -190.637 220.348 -175.629 202.748C-162.256 187.068 -148.083 173.784 -132.294 162.136C-115.281 149.584 -96.9333 139.315 -76.2036 130.747C-47.3559 118.822 -14.1735 111.025 22.4249 107.574C24.5664 107.375 26.7093 107.178 28.8508 106.981C45.9608 105.403 63.6553 103.773 80.8975 101.415C128.758 94.8718 166.375 84.5974 199.284 69.0819C211.706 63.2335 224.167 56.5589 236.324 49.246C251.38 40.1319 265.348 30.517 277.836 20.6661C300.209 3.02385 321.323 -15.0095 333.787 -41.5172C340.551 -55.903 343.112 -70.7565 341.613 -86.9251C338.907 -116.133 324.002 -145.053 310.851 -170.57C304.695 -182.516 298.878 -193.801 294.805 -204.127C293.238 -208.1 291.579 -212.17 289.974 -216.107C284.955 -228.416 279.767 -241.142 275.968 -254.273C271.521 -269.458 269.309 -283.905 269.39 -297.209C269.484 -312.373 272.596 -325.626 278.642 -336.597C282.391 -343.399 286.994 -349.59 292.705 -355.505C292.829 -355.634 292.953 -355.762 293.08 -355.891C310.931 -374.186 337.552 -385.047 358.751 -392.467C381.335 -400.369 406.656 -405.033 431.978 -405.954C460.149 -407.019 489.882 -403.862 520.352 -396.569C547.694 -390.024 575.261 -380.267 602.286 -367.563L602.036 -367.03C561.823 -385.931 499.68 -407.922 432.001 -405.365C406.737 -404.448 381.475 -399.795 358.945 -391.912C337.807 -384.515 311.265 -373.689 293.502 -355.48C287.648 -349.488 282.963 -343.218 279.159 -336.313C267.958 -315.985 267.026 -286.908 276.533 -254.437C280.323 -241.336 285.505 -228.624 290.518 -216.329C292.125 -212.391 293.784 -208.318 295.352 -204.343C299.415 -194.043 305.223 -182.772 311.374 -170.84C324.549 -145.277 339.483 -116.303 342.199 -86.9813C343.708 -70.7046 341.129 -55.751 334.319 -41.2687C328.546 -28.9955 320.437 -17.5341 309.54 -6.24781Z" fill="white"/>
<path d="M322.435 -15.6271C320.32 -13.4362 318.088 -11.2654 315.733 -9.10904C305.428 0.329771 294.163 8.29557 282.563 16.2992C269.117 25.5775 254.776 34.2127 238.721 42.698C225.989 49.3843 212.99 55.4441 200.081 60.7074C167.348 74.0748 129.931 82.6002 78.7621 88.3514C66.0545 89.7804 53.0633 90.93 40.4987 92.0415C33.6596 92.6474 26.5877 93.2713 19.6289 93.9362C-17.256 97.5088 -50.3599 106.642 -78.766 121.079C-116.299 140.155 -146.519 167.828 -171.154 205.682C-184.17 225.682 -195.638 247.784 -204.318 269.596C-211.291 287.118 -214.621 305.032 -218.146 323.998L-218.39 325.309C-218.936 328.276 -219.485 331.278 -220.042 334.317C-220.361 336.068 -220.683 337.83 -221.009 339.607C-223.016 350.713 -225.351 362.548 -229.802 374.406C-234.971 388.174 -242.174 399.773 -251.825 409.871C-267.895 426.678 -288.256 439.989 -307.948 452.857C-310.759 454.692 -313.666 456.593 -316.476 458.45C-329.649 467.152 -339.508 474.519 -347.51 481.638C-377.036 507.907 -401.35 536.126 -414.218 559.065L-414.774 558.754C-401.873 535.755 -377.511 507.475 -347.933 481.161C-339.909 474.023 -330.024 466.637 -316.826 457.918C-314.014 456.061 -311.107 454.16 -308.295 452.323C-288.843 439.612 -268.738 426.472 -252.8 409.966C-252.628 409.788 -252.457 409.61 -252.285 409.429C-231.778 387.976 -226.086 364.105 -221.634 339.492C-221.308 337.715 -220.986 335.953 -220.667 334.202C-220.112 331.162 -219.563 328.162 -219.016 325.193L-218.772 323.882C-215.241 304.883 -211.906 286.939 -204.91 269.359C-196.215 247.507 -184.727 225.367 -171.689 205.333C-146.991 167.383 -116.689 139.637 -79.0547 120.509C-50.5771 106.036 -17.3973 96.8815 19.5693 93.3004C26.5295 92.6369 33.6014 92.0103 40.442 91.4057C53.0024 90.2957 65.9908 89.1461 78.69 87.7172C129.8 81.9741 167.164 73.4607 199.84 60.1178C212.73 54.8605 225.711 48.8107 238.424 42.133C254.456 33.6606 268.776 25.0383 282.202 15.7729C302.583 1.70955 327.949 -15.7917 342.095 -43.9513C349.369 -58.428 351.95 -73.3776 349.983 -89.6545C346.382 -119.47 328.909 -148.553 313.496 -174.212C306.799 -185.359 300.474 -195.888 295.97 -205.397C294.215 -209.102 292.368 -212.902 290.58 -216.576C284.586 -228.899 278.389 -241.642 273.62 -254.926C268.162 -269.985 264.954 -284.476 264.084 -297.998C263.098 -313.32 265.174 -327.01 270.254 -338.69C273.514 -346.185 277.696 -353.055 283.04 -359.694C290.195 -368.584 299.388 -376.524 311.139 -383.972C321.083 -390.273 332.703 -396.102 346.666 -401.79C369.185 -410.964 394.599 -416.512 420.161 -417.837C448.642 -419.355 478.642 -416.138 509.327 -408.281C536.959 -401.206 564.52 -390.565 591.247 -376.651L590.952 -376.086C534.524 -405.458 473.881 -420.059 420.195 -417.199C394.702 -415.878 369.359 -410.345 346.907 -401.198C316.823 -388.942 296.687 -375.629 283.536 -359.293C278.228 -352.7 274.076 -345.878 270.837 -338.435C258.75 -310.649 266.004 -277.802 274.218 -255.142C278.975 -241.891 285.165 -229.163 291.152 -216.855C292.94 -213.178 294.789 -209.378 296.545 -205.671C301.036 -196.19 307.355 -185.674 314.043 -174.541C329.49 -148.827 346.999 -119.682 350.616 -89.7309C352.597 -73.3253 349.997 -58.256 342.665 -43.6632C337.696 -33.7726 331.037 -24.5361 322.435 -15.6271Z" fill="white"/>
<path d="M334.163 -23.2163C319.749 -8.28793 302.058 2.36309 286.923 11.4758C272.685 20.0494 257.602 27.9569 240.813 35.652C227.53 41.7002 214.01 47.1366 200.625 51.8076C160.52 65.8251 117.289 71.1006 76.5446 74.7114C68.226 75.449 59.7411 76.1161 51.5374 76.7602C40.1456 77.6538 28.3658 78.5793 16.7784 79.7151C-20.5702 83.4264 -53.6535 93.9072 -81.5513 110.865C-117.639 132.804 -145.633 164.652 -167.132 208.231C-178.201 230.668 -187.348 254.979 -193.582 278.536C-198.392 296.703 -199.718 314.725 -201.122 333.803C-201.222 335.155 -201.32 336.51 -201.423 337.871L-201.477 338.61C-201.816 343.25 -202.167 348.047 -202.546 352.889C-203.428 364.513 -204.759 376.968 -208.471 389.275C-212.781 403.562 -219.626 415.55 -229.401 425.928C-246.558 444.146 -269.332 457.61 -291.354 470.629C-292.897 471.541 -294.434 472.45 -295.961 473.357C-310.467 481.959 -320.609 488.657 -328.848 495.072C-359.464 518.914 -387.557 545.536 -405.923 568.113L-406.457 567.68C-388.062 545.065 -359.928 518.404 -329.271 494.53C-321.009 488.097 -310.844 481.384 -296.313 472.766C-294.786 471.859 -293.249 470.951 -291.702 470.038C-269.723 457.044 -246.996 443.603 -229.902 425.459C-208.674 402.92 -205.005 376.155 -203.232 352.837C-202.853 347.995 -202.502 343.198 -202.162 338.559L-202.108 337.82C-202.007 336.459 -201.907 335.104 -201.806 333.753C-200.401 314.641 -199.073 296.589 -194.247 278.36C-188.001 254.76 -178.836 230.405 -167.748 207.928C-157.555 187.269 -146.154 169.627 -132.895 153.998C-118.104 136.564 -100.95 121.856 -81.9083 110.281C-53.9227 93.2683 -20.7427 82.7551 16.7098 79.0323C28.3041 77.895 40.0866 76.9695 51.4812 76.0758C59.6848 75.4317 68.1656 74.7661 76.4815 74.0285C117.182 70.4199 160.365 65.1536 200.396 51.1609C213.761 46.4959 227.263 41.0681 240.526 35.0286C257.29 27.3451 272.35 19.4505 286.568 10.8897C308.398 -2.25461 335.566 -18.6129 350.401 -46.3726C358.185 -60.9403 360.785 -75.9859 358.35 -92.371C353.824 -122.807 333.673 -152.018 315.892 -177.792C308.748 -188.148 302.001 -197.929 297.131 -206.657C295.33 -209.885 293.447 -213.198 291.626 -216.402C284.503 -228.937 277.136 -241.9 271.267 -255.568C264.799 -270.517 260.593 -285.056 258.767 -298.777C256.706 -314.258 257.746 -328.387 261.86 -340.771C264.532 -348.812 268.173 -356.24 272.994 -363.484C279.489 -373.24 288.427 -382.395 299.559 -390.695C309.308 -397.962 321.087 -404.828 334.573 -411.101C357.025 -421.544 382.533 -427.979 408.338 -429.71C437.13 -431.681 467.395 -428.409 498.297 -419.985C526.214 -412.375 553.772 -400.851 580.204 -385.731L579.864 -385.135C523.857 -417.174 462.958 -432.762 408.385 -429.026C382.664 -427.299 357.241 -420.886 334.864 -410.479C305.859 -396.988 285.807 -381.491 273.567 -363.103C268.781 -355.913 265.165 -348.536 262.512 -340.553C252.724 -311.089 262.213 -278.224 271.898 -255.84C277.751 -242.207 285.107 -229.261 292.222 -216.743C294.043 -213.539 295.926 -210.223 297.73 -206.992C302.584 -198.293 309.322 -188.525 316.457 -178.182C325.011 -165.783 334.706 -151.73 342.59 -137.306C351.623 -120.781 357 -106.116 359.029 -92.4733C360.202 -84.5845 360.194 -76.8286 359.006 -69.4195C357.727 -61.451 355.037 -53.5878 351.007 -46.0491C346.399 -37.422 340.608 -29.8907 334.163 -23.2163Z" fill="white"/>
<path d="M345.181 -29.6274C340.416 -24.6922 334.944 -19.9844 328.712 -15.4477C316.44 -6.51217 303.075 0.479569 291.284 6.65108C276.422 14.4284 260.144 21.8146 242.905 28.6034C229.084 34.0119 215.042 38.8249 201.169 42.9038C161.367 54.628 120.176 58.0664 74.327 61.0687C70.2527 61.3355 66.1061 61.598 62.0953 61.8497C46.3044 62.8466 29.9772 63.8765 13.9293 65.4926C-23.9538 69.348 -57.0139 81.1771 -84.334 100.651C-118.796 125.215 -145.302 162.268 -163.11 210.776C-172.247 235.668 -179.074 262.188 -182.85 287.47C-185.693 306.506 -185.172 324.939 -184.62 344.454C-184.563 346.437 -184.508 348.427 -184.454 350.426C-184.317 355.406 -184.179 360.761 -184.082 366.164C-183.861 377.515 -184.051 390.905 -187.141 404.138C-190.599 418.952 -197.086 431.332 -206.973 441.982C-225.071 461.479 -250.209 474.842 -274.519 487.765L-275.444 488.258C-287.346 494.587 -299.794 501.419 -310.184 508.501C-341.853 530.088 -372.909 554.468 -397.63 577.148L-398.126 576.606C-373.38 553.902 -342.296 529.499 -310.598 507.894C-300.178 500.792 -287.709 493.947 -275.79 487.608L-274.865 487.115C-250.608 474.219 -225.524 460.881 -207.513 441.479C-186.713 419.073 -184.314 392.045 -184.82 366.175C-184.915 360.772 -185.056 355.421 -185.192 350.442C-185.244 348.444 -185.301 346.453 -185.356 344.471C-185.909 324.923 -186.43 306.457 -183.579 287.358C-179.797 262.028 -172.957 235.458 -163.802 210.52C-155.446 187.762 -145.145 167.373 -133.184 149.926C-119.517 129.991 -103.226 113.209 -84.7621 100.047C-57.3378 80.4988 -24.1578 68.6246 13.8541 64.7572C29.9159 63.1409 46.2501 62.1094 62.0492 61.1124C66.0586 60.8593 70.2052 60.5968 74.2796 60.3301C120.084 57.3313 161.231 53.8965 200.962 42.1943C214.815 38.1199 228.836 33.3142 242.637 27.9144C259.852 21.1344 276.104 13.7611 290.944 5.9953C314.208 -6.17697 343.158 -21.3279 358.717 -48.8079C367.016 -63.4651 369.636 -78.6054 366.726 -95.0972C361.245 -126.169 337.295 -156.755 318.05 -181.332C310.554 -190.905 303.473 -199.945 298.307 -207.923C296.678 -210.437 294.991 -213.018 293.358 -215.514C284.873 -228.48 276.101 -241.89 268.931 -256.218C257.731 -278.47 245.959 -311.562 253.482 -342.855C255.56 -351.495 258.661 -359.485 262.964 -367.278C274.158 -387.73 294.188 -405.609 322.493 -420.42C344.879 -432.132 370.48 -439.454 396.527 -441.592C425.629 -444.016 456.162 -440.689 487.282 -431.697C501.556 -427.574 515.912 -422.248 529.953 -415.87C543.365 -409.778 556.56 -402.694 569.175 -394.816L568.785 -394.191C513.204 -428.907 452.049 -445.481 396.586 -440.859C370.635 -438.729 345.133 -431.435 322.832 -419.768C294.657 -405.028 274.731 -387.247 263.606 -366.925C259.335 -359.189 256.257 -351.261 254.195 -342.684C246.723 -311.608 258.442 -278.692 269.588 -256.55C276.737 -242.258 285.499 -228.868 293.971 -215.918C295.604 -213.422 297.294 -210.84 298.923 -208.324C304.072 -200.374 311.141 -191.344 318.628 -181.786C328.312 -169.419 339.288 -155.403 348.34 -140.82C358.742 -124.063 364.994 -109.149 367.45 -95.2252C368.851 -87.2822 368.958 -79.4702 367.769 -72.0097C366.488 -63.9719 363.658 -56.0423 359.355 -48.446C355.581 -41.7761 350.887 -35.5366 345.181 -29.6274Z" fill="white"/>
<path d="M355.67 -35.2094C349.959 -29.2946 343.17 -23.7961 335.2 -18.6166C322.288 -10.2219 308.13 -3.821 295.639 1.82605C279.913 8.9361 262.874 15.5742 244.992 21.5544C230.639 26.3258 216.077 30.5141 201.709 34.001C162.186 43.6073 121.537 45.3295 78.5034 47.1552C76.3739 47.2458 74.243 47.335 72.1094 47.4271C52.1082 48.2866 31.4262 49.1735 11.0801 51.2711C-27.379 55.2741 -60.4172 68.45 -87.1169 90.4327C-120.655 118.044 -144.87 159.39 -159.093 213.32C-166.208 240.296 -170.834 269.803 -172.122 296.405C-173.094 316.491 -170.793 335.576 -168.356 355.781C-168.068 358.174 -167.778 360.573 -167.493 362.983C-166.92 367.803 -166.25 373.527 -165.625 379.444C-164.452 390.418 -163.412 404.832 -165.83 418.989C-168.448 434.325 -174.569 447.099 -184.547 458.041C-192.779 467.004 -203.455 475.359 -217.188 483.582C-228.979 490.643 -241.258 496.629 -254.933 503.169C-267.459 509.096 -280.599 515.429 -291.528 521.942C-323.9 541.233 -356.809 562.85 -389.343 586.188L-389.799 585.551C-357.247 562.198 -324.318 540.57 -291.929 521.268C-280.97 514.738 -267.811 508.397 -255.271 502.46C-232.348 491.501 -203.816 477.864 -185.126 457.511C-163.839 434.165 -163.549 406.233 -166.407 379.526C-167.031 373.613 -167.701 367.892 -168.274 363.075C-168.559 360.665 -168.849 358.265 -169.137 355.876C-171.577 335.637 -173.882 316.519 -172.906 296.367C-171.616 269.711 -166.98 240.148 -159.851 213.12C-145.585 159.026 -121.28 117.544 -87.6143 89.827C-74.7063 79.2 -60.1911 70.534 -44.4752 64.072C-27.6132 57.1374 -8.94686 52.5695 11.0014 50.4914C31.3697 48.3906 52.0641 47.5021 72.0779 46.6437C74.2129 46.553 76.3437 46.461 78.4732 46.3704C121.468 44.5482 162.079 42.8253 201.527 33.2384C215.874 29.756 230.415 25.5751 244.746 20.8096C262.602 14.8368 279.616 8.21016 295.318 1.11024C319.996 -10.048 350.709 -23.9358 367.03 -51.2322C375.87 -66.0184 378.511 -81.2563 375.1 -97.8113C368.696 -129.545 341.683 -160.178 319.979 -184.791C312.217 -193.595 304.885 -201.91 299.481 -209.177C298.366 -210.676 297.244 -212.182 296.115 -213.695C285.918 -227.365 275.374 -241.501 266.592 -256.857C253.921 -278.905 239.907 -312.082 245.1 -344.928C246.549 -354.091 249.109 -362.639 252.929 -371.062C258.209 -382.796 266.111 -393.925 276.411 -404.141C285.815 -413.468 297.253 -422.076 310.407 -429.728C332.721 -442.71 358.414 -450.919 384.706 -453.465C414.118 -456.345 444.921 -452.959 476.257 -443.4C490.636 -439.015 505.044 -433.328 519.08 -426.496C532.523 -419.954 545.666 -412.349 558.139 -403.89L557.698 -403.241C503.345 -440.102 440.319 -458.123 384.782 -452.685C358.602 -450.148 333.018 -441.976 310.798 -429.051C283.398 -413.114 263.635 -392.95 253.639 -370.739C249.849 -362.38 247.308 -353.898 245.871 -344.806C240.714 -312.186 254.661 -279.186 267.269 -257.248C276.028 -241.933 286.557 -227.817 296.741 -214.166C297.87 -212.653 298.993 -211.145 300.108 -209.646C305.491 -202.405 312.815 -194.101 320.565 -185.311C342.331 -160.626 369.422 -129.905 375.868 -97.9679C377.511 -89.9875 377.74 -82.1208 376.546 -74.5909C375.261 -66.4891 372.286 -58.4946 367.704 -50.8294C364.392 -45.2985 360.403 -40.1108 355.67 -35.2094Z" fill="white"/>
<path d="M365.794 -40.1991C359.287 -33.4598 351.303 -27.3713 341.687 -21.7879C328.081 -13.8887 313.157 -8.10259 299.992 -2.99853C283.355 3.45206 265.551 9.34071 247.078 14.5073C232.206 18.6442 217.122 22.2063 202.248 25.1001C165.626 32.2296 128.625 32.8185 89.4518 33.442C83.0479 33.5435 76.4262 33.6502 69.8869 33.7846C46.9059 34.2628 27.6241 35.0013 8.22747 37.0502C-30.8353 41.204 -63.8503 55.7253 -89.9032 80.2119C-122.64 110.98 -144.571 156.621 -155.084 215.864C-160.305 245.295 -162.551 277.071 -161.404 305.338C-160.539 326.634 -156.461 346.566 -152.144 367.668C-151.609 370.282 -151.073 372.906 -150.542 375.538C-149.591 380.232 -148.349 386.428 -147.178 392.717C-142.211 419.22 -140.101 449.617 -162.128 474.096C-162.817 474.857 -163.521 475.609 -164.236 476.349C-182.086 494.836 -207.622 506.649 -234.431 518.074L-236.108 518.784C-249.423 524.408 -262 529.722 -272.879 535.377C-313.879 556.686 -352.231 578.55 -381.062 595.218L-381.48 594.496C-352.64 577.825 -314.279 555.954 -273.264 534.637C-262.355 528.967 -249.764 523.648 -236.432 518.016L-234.756 517.307C-206.966 505.464 -180.542 493.206 -162.747 473.539C-140.965 449.331 -143.067 419.178 -147.996 392.873C-149.166 386.588 -150.408 380.397 -151.358 375.705C-151.89 373.072 -152.426 370.451 -152.961 367.837C-157.285 346.701 -161.37 326.737 -162.237 305.374C-163.388 277.048 -161.138 245.208 -155.906 215.719C-151.05 188.349 -143.596 163.476 -133.755 141.789C-122.464 116.906 -107.901 95.9838 -90.4756 79.6047C-64.2889 54.9908 -31.1087 40.3945 8.13683 36.2207C27.5625 34.1699 46.8638 33.4311 69.8656 32.9511C76.4063 32.8153 83.0293 32.7099 89.4346 32.6071C128.569 31.9843 165.534 31.3959 202.084 24.2789C216.939 21.391 231.999 17.8335 246.849 13.7026C265.297 8.54473 283.074 2.66487 299.686 -3.77696C325.765 -13.8877 358.221 -26.4719 375.334 -53.6631C384.688 -68.5265 387.348 -83.8575 383.465 -100.53C376.027 -132.941 345.85 -163.595 321.603 -188.226C313.692 -196.262 306.218 -203.855 300.647 -210.437L300.519 -210.588C288.044 -225.33 275.146 -240.575 264.24 -257.501C254.708 -272.245 247.505 -286.916 242.827 -301.108C237.554 -317.11 235.495 -332.551 236.707 -347.006C237.516 -356.677 239.536 -365.785 242.881 -374.849C251.875 -399.381 271.04 -421.579 298.308 -439.042C309.281 -446.07 321.251 -451.897 333.885 -456.364C346.593 -460.856 359.714 -463.877 372.881 -465.345C402.606 -468.682 433.676 -465.239 465.23 -455.11C493.592 -446.007 521.903 -431.435 547.099 -412.972L546.606 -412.3C492.679 -451.818 429.392 -470.851 372.973 -464.517C346.57 -461.573 320.906 -452.522 298.762 -438.338C271.65 -420.974 252.6 -398.92 243.67 -374.559C240.351 -365.565 238.348 -356.531 237.543 -346.935C235.283 -319.947 244.759 -289.178 264.945 -257.952C275.823 -241.07 288.704 -225.847 301.161 -211.125L301.288 -210.974C306.838 -204.415 314.3 -196.834 322.2 -188.808C346.521 -164.101 376.788 -133.354 384.279 -100.716C386.152 -92.6769 386.496 -84.7539 385.303 -77.1713C384.017 -68.9945 380.901 -60.9364 376.044 -53.2151C373.149 -48.6184 369.742 -44.2887 365.794 -40.1991Z" fill="white"/>
<path d="M-142.025 492.658C-150.007 500.925 -160.308 508.373 -173.406 515.358C-186.419 522.299 -200.568 527.929 -213.919 532.98C-216.341 533.891 -218.749 534.79 -221.141 535.683C-233.047 540.127 -244.293 544.326 -254.224 548.809C-293.82 566.69 -330.933 584.341 -366.823 601.413L-372.771 604.241L-373.149 603.445L-367.202 600.617C-331.308 583.545 -294.19 565.891 -254.586 548.007C-244.629 543.511 -233.369 539.306 -221.448 534.857C-219.057 533.965 -216.649 533.066 -214.23 532.156C-186.823 521.786 -158.545 509.957 -140.358 489.565C-118.049 464.45 -122.878 431.829 -129.576 406.218C-131.284 399.664 -133.069 393.216 -134.433 388.332C-135.182 385.639 -135.938 382.953 -136.692 380.275C-142.937 358.07 -148.836 337.096 -151.557 314.377C-155.145 284.39 -155.286 250.275 -151.949 218.315C-148.854 188.663 -142.836 161.536 -134.061 137.686C-123.996 110.329 -110.292 87.3479 -93.3287 69.3815C-67.9027 42.2518 -34.7212 26.2903 5.28175 21.9476C27.4694 19.5522 49.2671 19.2435 67.6657 19.256C77.6773 19.2638 87.8188 19.3969 97.6271 19.5249C132.348 19.9809 168.25 20.4507 202.652 15.3184C218.021 13.0276 233.603 10.0921 248.962 6.59444C267.953 2.24969 286.492 -2.88335 304.065 -8.66522C331.532 -17.7032 365.715 -28.9501 383.647 -56.0949C393.517 -71.0354 396.196 -86.4597 391.838 -103.25C383.323 -136.365 349.854 -167 322.96 -191.615C315.008 -198.894 307.495 -205.77 301.826 -211.699C289.045 -225.062 274.367 -240.776 261.903 -258.148C251.33 -272.855 243.124 -287.57 237.516 -301.883C231.172 -318.073 228.081 -333.954 228.328 -349.084C228.49 -359.11 230.013 -369.053 232.848 -378.636C236.879 -392.327 243.748 -405.424 253.268 -417.565C262.183 -428.936 273.27 -439.295 286.219 -448.354C297.141 -455.995 309.113 -462.358 321.808 -467.267C334.581 -472.206 347.79 -475.557 361.063 -477.225C376.358 -479.156 392.238 -479.178 408.262 -477.288C423.444 -475.497 438.904 -471.975 454.212 -466.821C482.849 -457.179 511.156 -441.697 536.067 -422.052L535.52 -421.358C482.023 -463.544 418.477 -483.587 361.174 -476.349C334.916 -473.047 308.478 -462.849 286.725 -447.631C259.83 -428.813 241.492 -404.869 233.695 -378.386C230.881 -368.879 229.373 -359.016 229.211 -349.069C228.746 -320.561 239.985 -290.143 262.62 -258.662C275.048 -241.335 289.702 -225.65 302.463 -212.308C308.112 -206.401 315.613 -199.535 323.557 -192.266C336.823 -180.122 351.862 -166.358 364.77 -151.363C379.748 -133.964 388.881 -118.298 392.693 -103.472C394.795 -95.3768 395.256 -87.3976 394.064 -79.7595C392.778 -71.5092 389.52 -63.3834 384.384 -55.6099C381.793 -51.6873 378.867 -48.0946 375.679 -44.7927C356.587 -25.0195 327.987 -15.6103 304.34 -7.8293C286.741 -2.04003 268.175 3.10181 249.158 7.45119C233.776 10.9548 218.172 13.8935 202.78 16.1875C168.308 21.3307 132.369 20.8602 97.6146 20.4047C87.809 20.2767 77.6703 20.1436 67.6642 20.1357C49.2892 20.1213 27.522 20.4295 5.37595 22.8214C-34.4124 27.1394 -67.3999 43.0073 -92.687 69.9819C-132.546 112.201 -146.439 173.996 -151.074 218.402C-154.403 250.298 -154.265 284.343 -150.682 314.267C-147.969 336.918 -142.08 357.86 -135.845 380.031C-135.092 382.709 -134.338 385.396 -133.586 388.091C-132.223 392.978 -130.437 399.43 -128.725 405.989C-125.913 416.74 -122.278 432.866 -123.178 448.706C-123.616 456.399 -125.088 463.613 -127.553 470.15C-130.302 477.439 -134.389 484.168 -139.701 490.147C-140.452 490.996 -141.227 491.832 -142.025 492.658Z" fill="white"/>
<path d="M-119.818 508.971C-127.81 517.247 -138.218 524.557 -151.515 531.246C-165.28 538.173 -180.418 543.545 -193.411 547.885C-197.406 549.215 -201.415 550.522 -205.294 551.785C-216.133 555.317 -226.375 558.653 -235.571 562.242C-268.597 575.129 -301.225 588.109 -332.781 600.662C-343.219 604.815 -354.011 609.108 -364.478 613.262L-364.822 612.396C-354.355 608.241 -343.563 603.948 -333.125 599.796C-301.569 587.243 -268.937 574.261 -235.908 561.374C-226.687 557.776 -216.434 554.435 -205.581 550.899C-201.704 549.637 -197.696 548.33 -193.704 547.002C-166.761 537.998 -136.466 526.63 -117.972 505.593C-95.2917 479.737 -102.417 446.036 -111.155 419.563C-113.393 412.779 -115.724 406.057 -117.506 400.959C-118.42 398.342 -119.338 395.732 -120.253 393.128C-128.486 369.706 -136.263 347.585 -140.873 323.38C-146.868 291.899 -149.394 255.508 -147.99 220.913C-145.934 172.83 -135.276 105.738 -96.1777 59.1644C-71.3645 29.4956 -38.187 12.1716 2.43209 7.67928C20.6861 5.66462 40.1262 5.01348 65.4712 5.56841C78.279 5.84832 91.2874 6.41462 103.865 6.96085C136.591 8.382 170.429 9.8541 203.228 6.36527C219.119 4.67707 235.22 2.36499 251.084 -0.506185C270.285 -3.99032 289.587 -8.37811 308.453 -13.5448C337.364 -21.5457 373.348 -31.501 391.968 -58.5165C402.221 -73.2862 404.996 -89.2479 400.221 -105.959C390.586 -139.811 352.122 -171.683 324.036 -194.952C316.154 -201.482 308.709 -207.65 303.015 -212.949C290.359 -224.722 273.984 -240.57 259.576 -258.783C234.595 -290.329 221.265 -321.407 219.96 -351.152C219.475 -361.604 220.44 -372.123 222.827 -382.413C226.214 -397.058 232.572 -411.134 241.727 -424.25C250.353 -436.605 261.257 -447.845 274.139 -457.657C285.041 -465.905 297.023 -472.797 309.751 -478.146C322.603 -483.545 335.893 -487.229 349.254 -489.097C364.695 -491.26 380.725 -491.38 396.897 -489.451C412.223 -487.623 427.8 -483.946 443.201 -478.522C472.113 -468.337 500.415 -451.946 525.047 -431.122L524.445 -430.411C471.381 -475.273 407.573 -496.327 349.385 -488.174C322.995 -484.484 296.472 -473.384 274.705 -456.916C247.951 -436.535 230.328 -410.701 223.738 -382.204C221.369 -371.998 220.413 -361.566 220.895 -351.196C222.19 -321.648 235.451 -290.752 260.31 -259.362C274.678 -241.199 291.021 -225.383 303.653 -213.632C309.328 -208.354 316.763 -202.193 324.634 -195.67C339.151 -183.642 355.607 -170.006 369.929 -154.89C386.605 -137.286 396.808 -121.365 401.12 -106.215C403.453 -98.0513 404.035 -90.0147 402.849 -82.3253C401.564 -73.989 398.162 -65.801 392.739 -57.9877C384.362 -45.8361 371.916 -36.0692 354.689 -28.1292C339.713 -21.2281 323.239 -16.6686 308.706 -12.646C289.813 -7.47051 270.484 -3.0782 251.255 0.41198C235.368 3.28774 219.245 5.60303 203.331 7.2944C170.464 10.7914 136.589 9.31856 103.83 7.89522C91.2563 7.34754 78.2535 6.78389 65.4568 6.50378C40.1563 5.95084 20.7522 6.60136 2.54115 8.61109C-37.8413 13.0728 -70.8111 30.2834 -95.4667 59.7635C-134.395 106.138 -145.011 173.015 -147.061 220.953C-148.464 255.479 -145.943 291.794 -139.96 323.208C-135.364 347.345 -127.598 369.435 -119.376 392.821C-118.459 395.427 -117.542 398.037 -116.628 400.654C-114.844 405.755 -112.51 412.483 -110.271 419.273C-101.454 445.981 -94.2799 479.999 -117.273 506.21C-118.092 507.14 -118.942 508.063 -119.818 508.971Z" fill="white"/>
<path d="M-97.5603 525.231C-119.396 547.845 -156.189 558.17 -188.807 567.322C-198.83 570.135 -208.297 572.791 -216.92 575.677L-356.187 622.283L-356.498 621.353L-217.23 574.747C-208.585 571.853 -199.107 569.194 -189.07 566.378C-155.192 556.872 -116.791 546.097 -95.5859 521.621C-72.5589 495.048 -81.9671 460.252 -92.7339 432.909C-96.2556 423.966 -99.9828 415.016 -103.587 406.358C-113.443 382.683 -123.636 358.201 -130.194 332.385C-135.402 311.885 -139.367 288.837 -141.659 265.734C-144.176 240.39 -144.729 215.319 -143.307 191.223C-141.738 164.657 -137.779 139.925 -131.542 117.718C-124.642 93.1562 -114.953 71.7508 -102.742 54.0924C-78.2801 18.7192 -43.8575 -1.69866 -0.430191 -6.58919C35.6581 -10.6554 72.7661 -7.89712 108.653 -5.22942C139.89 -2.90771 172.189 -0.507739 203.791 -2.59064C240.292 -4.99794 276.978 -10.3263 312.827 -18.4313C343.032 -25.2592 380.626 -33.7559 400.276 -60.9492C416.872 -83.9149 414.643 -108.611 393.457 -136.449C375.436 -160.128 347.352 -181.271 324.788 -198.259C317.098 -204.048 309.835 -209.517 304.192 -214.207C273.081 -240.062 250.457 -264.573 235.03 -289.139C225.404 -304.466 218.585 -319.953 214.763 -335.169C210.491 -352.165 209.827 -369.334 212.788 -386.197C215.35 -400.785 220.626 -414.918 228.473 -428.206C235.942 -440.855 245.568 -452.471 257.084 -462.732C279.732 -482.913 308.265 -496.494 337.424 -500.974C353.012 -503.37 369.192 -503.587 385.513 -501.62C400.981 -499.756 416.679 -495.924 432.172 -490.228C461.357 -479.498 489.655 -462.197 514.004 -440.196L513.347 -439.467C461.493 -486.317 395.784 -508.948 337.573 -500.001C275.756 -490.502 223.681 -442.568 213.752 -386.024C203.917 -330.011 233.704 -274.055 304.817 -214.959C310.442 -210.284 317.696 -204.823 325.377 -199.041C347.99 -182.016 376.135 -160.829 394.236 -137.041C404.096 -124.085 409.948 -111.528 411.634 -99.7174C412.58 -93.076 412.242 -86.4978 410.627 -80.166C408.908 -73.4272 405.693 -66.7687 401.071 -60.3723C399.182 -57.7581 397.092 -55.2624 394.798 -52.8866C386.438 -44.2288 375.345 -37.1194 361.156 -31.295C345.169 -24.7339 327.355 -20.707 313.042 -17.4708C277.143 -9.35662 240.408 -4.01912 203.854 -1.6081C172.182 0.481582 139.848 -1.92327 108.577 -4.24716C72.7359 -6.9115 35.6738 -9.6665 -0.323098 -5.6102C-43.4568 -0.749864 -77.646 19.5251 -101.939 54.6552C-151.08 125.716 -150.541 248.313 -129.247 332.148C-122.707 357.895 -112.529 382.343 -102.686 405.987C-99.0803 414.649 -95.3503 423.605 -91.8257 432.556C-84.6778 450.709 -81.0865 465.29 -80.5264 478.438C-80.178 486.644 -81.0693 494.321 -83.1763 501.255C-85.5197 508.965 -89.446 516.036 -94.8477 522.271C-95.7224 523.276 -96.628 524.265 -97.5603 525.231Z" fill="white"/>
</g>
</svg>
