<svg width="154" height="34" viewBox="0 0 154 34" fill="none" xmlns="http://www.w3.org/2000/svg">
<g clip-path="url(#clip0_773_9167)">
<path d="M11.5518 8.76033V14.2051C11.5518 15.8634 13.5724 16.7479 14.8072 15.587L20.7008 10.1423C21.9917 8.9538 21.1498 6.85327 19.3817 6.85327H13.4882C12.4218 6.85327 11.5518 7.71007 11.5518 8.76033Z" fill="white"/>
<path d="M39.4482 6.85327H33.5547C31.8147 6.85327 30.9447 8.9538 32.2357 10.1423L38.1292 15.587C39.364 16.7202 41.3847 15.8634 41.3847 14.2051V8.76033C41.3847 7.71007 40.5147 6.85327 39.4482 6.85327Z" fill="white"/>
<path d="M27.801 20.1475L38.1287 29.7104C39.3636 30.8436 41.3842 29.9868 41.3842 28.3285V22.8284C41.3842 22.3033 41.1597 21.8058 40.7668 21.4465L27.801 9.42374C27.0433 8.73278 25.8927 8.73278 25.1349 9.42374L12.1692 21.4465C11.7763 21.8058 11.5518 22.3033 11.5518 22.8284V28.3285C11.5518 29.9868 13.5724 30.8712 14.8072 29.7104L25.1349 20.1475C25.8927 19.4565 27.0433 19.4565 27.801 20.1475Z" fill="white"/>
</g>
<path d="M71.5726 9.30974L66.922 25H64.0097L60.7136 13.1251L57.2144 25L54.3246 25.0226L49.8772 9.30974H52.6089L55.8598 22.0877L59.3816 9.30974H62.2714L65.5449 22.02L68.8184 9.30974H71.5726ZM78.2105 25.2032C77.2322 25.2032 76.3517 25.0301 75.5691 24.6839C74.8015 24.3227 74.192 23.8411 73.7405 23.2391C73.2889 22.622 73.0481 21.9372 73.018 21.1847H75.682C75.7271 21.7114 75.9755 22.1554 76.427 22.5166C76.8936 22.8628 77.473 23.0359 78.1653 23.0359C78.8878 23.0359 79.4446 22.9004 79.836 22.6295C80.2423 22.3436 80.4455 21.9824 80.4455 21.5459C80.4455 21.0793 80.2197 20.7332 79.7682 20.5074C79.3318 20.2816 78.6319 20.0333 77.6687 19.7624C76.7355 19.5065 75.9755 19.2582 75.3885 19.0174C74.8015 18.7766 74.2898 18.4078 73.8533 17.9112C73.4319 17.4145 73.2212 16.7598 73.2212 15.9471C73.2212 15.2848 73.4169 14.6828 73.8082 14.141C74.1995 13.5841 74.7564 13.1476 75.4788 12.8316C76.2163 12.5155 77.0591 12.3575 78.0073 12.3575C79.4221 12.3575 80.5584 12.7187 81.4163 13.4411C82.2892 14.1485 82.7558 15.1193 82.816 16.3534H80.2423C80.1972 15.7966 79.9714 15.3526 79.565 15.0214C79.1587 14.6903 78.6093 14.5248 77.917 14.5248C77.2397 14.5248 76.7205 14.6527 76.3593 14.9086C75.998 15.1644 75.8174 15.5031 75.8174 15.9245C75.8174 16.2556 75.9378 16.534 76.1787 16.7598C76.4195 16.9855 76.713 17.1662 77.0591 17.3016C77.4053 17.422 77.917 17.58 78.5943 17.7757C79.4973 18.0165 80.2348 18.2649 80.8067 18.5207C81.3937 18.7615 81.8979 19.1227 82.3193 19.6044C82.7407 20.086 82.959 20.7256 82.974 21.5233C82.974 22.2307 82.7783 22.8628 82.387 23.4197C81.9957 23.9766 81.4388 24.413 80.7164 24.7291C80.009 25.0452 79.1737 25.2032 78.2105 25.2032ZM88.3286 14.3893C88.765 13.8174 89.3595 13.3358 90.1121 12.9445C90.8646 12.5531 91.7149 12.3575 92.6631 12.3575C93.7468 12.3575 94.7326 12.6284 95.6206 13.1702C96.5236 13.697 97.231 14.442 97.7427 15.4052C98.2544 16.3685 98.5103 17.4747 98.5103 18.7239C98.5103 19.9731 98.2544 21.0944 97.7427 22.0877C97.231 23.066 96.5236 23.8336 95.6206 24.3905C94.7326 24.9323 93.7468 25.2032 92.6631 25.2032C91.7149 25.2032 90.8721 25.0151 90.1346 24.6388C89.3971 24.2475 88.7951 23.7658 88.3286 23.1939V30.9149H85.7549V12.5607H88.3286V14.3893ZM95.8915 18.7239C95.8915 17.866 95.7109 17.1285 95.3497 16.5115C95.0035 15.8793 94.5369 15.4052 93.95 15.0892C93.378 14.7581 92.761 14.5925 92.0987 14.5925C91.4516 14.5925 90.8345 14.7581 90.2475 15.0892C89.6756 15.4203 89.209 15.9019 88.8478 16.534C88.5016 17.1662 88.3286 17.9112 88.3286 18.769C88.3286 19.6269 88.5016 20.3795 88.8478 21.0266C89.209 21.6588 89.6756 22.1404 90.2475 22.4715C90.8345 22.8026 91.4516 22.9682 92.0987 22.9682C92.761 22.9682 93.378 22.8026 93.95 22.4715C94.5369 22.1253 95.0035 21.6287 95.3497 20.9815C95.7109 20.3343 95.8915 19.5818 95.8915 18.7239ZM100.197 18.7239C100.197 17.4747 100.453 16.3685 100.965 15.4052C101.492 14.442 102.199 13.697 103.087 13.1702C103.99 12.6284 104.984 12.3575 106.067 12.3575C107.046 12.3575 107.896 12.5531 108.618 12.9445C109.356 13.3207 109.943 13.7948 110.379 14.3667V12.5607H112.975V25H110.379V23.1488C109.943 23.7357 109.348 24.2249 108.596 24.6162C107.843 25.0075 106.985 25.2032 106.022 25.2032C104.953 25.2032 103.975 24.9323 103.087 24.3905C102.199 23.8336 101.492 23.066 100.965 22.0877C100.453 21.0944 100.197 19.9731 100.197 18.7239ZM110.379 18.769C110.379 17.9112 110.199 17.1662 109.837 16.534C109.491 15.9019 109.032 15.4203 108.46 15.0892C107.888 14.7581 107.271 14.5925 106.609 14.5925C105.947 14.5925 105.33 14.7581 104.758 15.0892C104.186 15.4052 103.719 15.8793 103.358 16.5115C103.012 17.1285 102.839 17.866 102.839 18.7239C102.839 19.5818 103.012 20.3343 103.358 20.9815C103.719 21.6287 104.186 22.1253 104.758 22.4715C105.345 22.8026 105.962 22.9682 106.609 22.9682C107.271 22.9682 107.888 22.8026 108.46 22.4715C109.032 22.1404 109.491 21.6588 109.837 21.0266C110.199 20.3795 110.379 19.6269 110.379 18.769ZM115.498 18.769C115.498 17.4897 115.754 16.3685 116.266 15.4052C116.792 14.4269 117.515 13.6744 118.433 13.1476C119.351 12.6209 120.404 12.3575 121.593 12.3575C123.099 12.3575 124.34 12.7187 125.318 13.4411C126.312 14.1485 126.982 15.1644 127.328 16.4889H124.551C124.325 15.8718 123.964 15.3902 123.467 15.044C122.971 14.6979 122.346 14.5248 121.593 14.5248C120.54 14.5248 119.697 14.901 119.065 15.6536C118.448 16.3911 118.139 17.4295 118.139 18.769C118.139 20.1086 118.448 21.1546 119.065 21.9071C119.697 22.6596 120.54 23.0359 121.593 23.0359C123.083 23.0359 124.069 22.3812 124.551 21.0718H127.328C126.967 22.336 126.289 23.3444 125.296 24.097C124.303 24.8344 123.068 25.2032 121.593 25.2032C120.404 25.2032 119.351 24.9398 118.433 24.413C117.515 23.8712 116.792 23.1187 116.266 22.1554C115.754 21.1771 115.498 20.0483 115.498 18.769ZM141.293 18.4756C141.293 18.9421 141.263 19.3635 141.203 19.7398H131.699C131.774 20.7332 132.143 21.5308 132.805 22.1329C133.467 22.7349 134.28 23.0359 135.243 23.0359C136.628 23.0359 137.606 22.4564 138.178 21.2975H140.955C140.579 22.4414 139.894 23.3821 138.9 24.1195C137.922 24.842 136.703 25.2032 135.243 25.2032C134.054 25.2032 132.985 24.9398 132.037 24.413C131.104 23.8712 130.367 23.1187 129.825 22.1554C129.298 21.1771 129.035 20.0483 129.035 18.769C129.035 17.4897 129.291 16.3685 129.802 15.4052C130.329 14.4269 131.059 13.6744 131.992 13.1476C132.94 12.6209 134.024 12.3575 135.243 12.3575C136.417 12.3575 137.463 12.6133 138.381 13.1251C139.299 13.6368 140.014 14.3592 140.526 15.2924C141.038 16.2104 141.293 17.2715 141.293 18.4756ZM138.607 17.6628C138.592 16.7146 138.253 15.9546 137.591 15.3827C136.929 14.8107 136.108 14.5248 135.13 14.5248C134.242 14.5248 133.482 14.8107 132.85 15.3827C132.218 15.9395 131.842 16.6996 131.721 17.6628H138.607Z" fill="white"/>
<defs>
<clipPath id="clip0_773_9167">
<rect width="29.8325" height="23.3822" fill="white" transform="translate(11.5527 6.85352)"/>
</clipPath>
</defs>
</svg>
