<svg width="22" height="23" viewBox="0 0 22 23" fill="none" xmlns="http://www.w3.org/2000/svg">
<g clip-path="url(#clip0_845_426)">
<path d="M15.2779 18.7833H4.32789V4.21668H14.0057V10.1556V10.2056H14.0557H15.2779H15.3279V10.1556V4.16668C15.3279 3.82927 15.1938 3.50567 14.9553 3.26708C14.7167 3.0285 14.3931 2.89446 14.0557 2.89446H4.27789C3.94047 2.89446 3.61688 3.0285 3.37829 3.26708C3.1397 3.50567 3.00566 3.82927 3.00566 4.16668V18.8333C3.00566 19.1708 3.1397 19.4944 3.37829 19.7329C3.61688 19.9715 3.94047 20.1056 4.27789 20.1056H14.0557C14.3931 20.1056 14.7167 19.9715 14.9553 19.7329C15.1938 19.4944 15.3279 19.1708 15.3279 18.8333V18.7833H15.2779Z" fill="#909090" stroke="#909090" stroke-width="0.1"/>
<path d="M17.243 11.0243L17.2431 11.0242L17.2403 11.0218C17.1138 10.9135 16.9512 10.8569 16.7848 10.8633C16.6184 10.8698 16.4605 10.9387 16.3428 11.0565C16.2251 11.1742 16.1561 11.3321 16.1497 11.4984C16.1432 11.6648 16.1998 11.8275 16.3081 11.954L16.308 11.9541L16.3111 11.9572L18.2892 13.8942H9.55056C9.37523 13.8942 9.20707 13.9639 9.08309 14.0879C8.95911 14.2118 8.88945 14.38 8.88945 14.5553C8.88945 14.7307 8.95911 14.8988 9.08309 15.0228C9.20707 15.1468 9.37523 15.2165 9.55056 15.2165H18.2929L16.3119 17.2444C16.2435 17.3034 16.1879 17.3758 16.1485 17.4571C16.1088 17.5392 16.0865 17.6285 16.083 17.7195C16.0795 17.8106 16.0948 17.9014 16.1281 17.9862C16.1613 18.0711 16.2117 18.1481 16.2761 18.2125C16.3406 18.277 16.4176 18.3274 16.5025 18.3606C16.5873 18.3939 16.6781 18.4092 16.7691 18.4057C16.8602 18.4022 16.9495 18.3799 17.0315 18.3402C17.1129 18.3008 17.1854 18.2451 17.2444 18.1767L20.8119 14.6336L20.8477 14.5981L20.8119 14.5626L17.243 11.0243Z" fill="#909090" stroke="#909090" stroke-width="0.1"/>
<path d="M0 0.45H-0.05V0.5V22.5V22.55H0H22H22.05V22.5V0.5V0.45H22H0Z" stroke="#909090" stroke-width="0.1"/>
</g>
<defs>
<clipPath id="clip0_845_426">
<rect width="22" height="22" fill="white" transform="translate(0 0.5)"/>
</clipPath>
</defs>
</svg>
