<svg width="168" height="38" viewBox="0 0 168 38" fill="none" xmlns="http://www.w3.org/2000/svg">
<g clip-path="url(#clip0_3609_270)">
<path d="M12.3301 10.0567V15.9965C12.3301 17.8056 14.5344 18.7704 15.8815 17.5041L22.3108 11.5643C23.7191 10.2678 22.8007 7.97632 20.8719 7.97632H14.4426C13.2792 7.97632 12.3301 8.911 12.3301 10.0567Z" fill="#24B0C4"/>
<path d="M42.7627 7.97632H36.3334C34.4352 7.97632 33.4861 10.2678 34.8944 11.5643L41.3237 17.5041C42.6708 18.7403 44.8751 17.8056 44.8751 15.9965V10.0567C44.8751 8.911 43.9261 7.97632 42.7627 7.97632Z" fill="#24B0C4"/>
<path d="M30.0566 22.4793L41.3232 32.9116C42.6702 34.1478 44.8746 33.2131 44.8746 31.404V25.404C44.8746 24.8311 44.6297 24.2884 44.201 23.8964L30.0566 10.7807C29.23 10.0269 27.9747 10.0269 27.1481 10.7807L13.0036 23.8964C12.575 24.2884 12.3301 24.8311 12.3301 25.404V31.404C12.3301 33.2131 14.5344 34.1779 15.8815 32.9116L27.1481 22.4793C27.9747 21.7255 29.23 21.7255 30.0566 22.4793Z" fill="#24B0C4"/>
</g>
<path d="M77.8066 10.3834L72.7332 27.5H69.5561L65.9604 14.5455L62.143 27.5L58.9906 27.5246L54.1388 10.3834H57.1189L60.6653 24.323L64.5073 10.3834H67.6598L71.2309 24.2491L74.802 10.3834H77.8066ZM85.0479 27.7217C83.9807 27.7217 83.0202 27.5328 82.1664 27.1552C81.329 26.7612 80.6641 26.2357 80.1715 25.579C79.6789 24.9058 79.4162 24.1588 79.3834 23.3378H82.2895C82.3388 23.9125 82.6097 24.3968 83.1023 24.7909C83.6112 25.1685 84.2434 25.3573 84.9986 25.3573C85.7867 25.3573 86.3942 25.2096 86.8211 24.914C87.2644 24.6021 87.4861 24.208 87.4861 23.7319C87.4861 23.2229 87.2398 22.8453 86.7472 22.599C86.2711 22.3527 85.5076 22.0818 84.4568 21.7862C83.4388 21.5071 82.6097 21.2362 81.9694 20.9735C81.329 20.7108 80.7708 20.3085 80.2946 19.7667C79.8349 19.2249 79.605 18.5107 79.605 17.6241C79.605 16.9016 79.8185 16.2449 80.2454 15.6538C80.6723 15.0463 81.2798 14.5702 82.0679 14.2254C82.8724 13.8806 83.7919 13.7082 84.8262 13.7082C86.3696 13.7082 87.6092 14.1022 88.5451 14.8903C89.4974 15.662 90.0064 16.721 90.0721 18.0674H87.2644C87.2152 17.4599 86.9689 16.9755 86.5256 16.6143C86.0823 16.2531 85.483 16.0725 84.7277 16.0725C83.9889 16.0725 83.4224 16.212 83.0284 16.4912C82.6343 16.7703 82.4373 17.1397 82.4373 17.5994C82.4373 17.9606 82.5686 18.2644 82.8313 18.5107C83.094 18.757 83.4142 18.954 83.7919 19.1018C84.1695 19.2331 84.7277 19.4055 85.4666 19.619C86.4517 19.8817 87.2562 20.1526 87.8801 20.4317C88.5205 20.6944 89.0705 21.0884 89.5302 21.6138C89.99 22.1392 90.228 22.837 90.2445 23.7072C90.2445 24.4789 90.031 25.1685 89.6041 25.776C89.1772 26.3835 88.5697 26.8597 87.7816 27.2045C87.0099 27.5493 86.0987 27.7217 85.0479 27.7217ZM96.0858 15.9247C96.5619 15.3008 97.2105 14.7754 98.0314 14.3485C98.8524 13.9216 99.78 13.7082 100.814 13.7082C101.997 13.7082 103.072 14.0037 104.041 14.5948C105.026 15.1694 105.798 15.9822 106.356 17.033C106.914 18.0838 107.193 19.2906 107.193 20.6533C107.193 22.0161 106.914 23.2393 106.356 24.323C105.798 25.3902 105.026 26.2275 104.041 26.835C103.072 27.4261 101.997 27.7217 100.814 27.7217C99.78 27.7217 98.8606 27.5164 98.056 27.1059C97.2515 26.6791 96.5948 26.1537 96.0858 25.5297V33.9526H93.2782V13.9298H96.0858V15.9247ZM104.336 20.6533C104.336 19.7175 104.139 18.9129 103.745 18.2398C103.368 17.5502 102.859 17.033 102.218 16.6882C101.594 16.327 100.921 16.1464 100.199 16.1464C99.4927 16.1464 98.8195 16.327 98.1792 16.6882C97.5553 17.0494 97.0463 17.5748 96.6522 18.2644C96.2746 18.954 96.0858 19.7667 96.0858 20.7026C96.0858 21.6385 96.2746 22.4594 96.6522 23.1654C97.0463 23.855 97.5553 24.3804 98.1792 24.7416C98.8195 25.1028 99.4927 25.2835 100.199 25.2835C100.921 25.2835 101.594 25.1028 102.218 24.7416C102.859 24.364 103.368 23.8222 103.745 23.1162C104.139 22.4102 104.336 21.5892 104.336 20.6533ZM109.034 20.6533C109.034 19.2906 109.313 18.0838 109.871 17.033C110.446 15.9822 111.217 15.1694 112.186 14.5948C113.171 14.0037 114.255 13.7082 115.437 13.7082C116.504 13.7082 117.432 13.9216 118.22 14.3485C119.025 14.759 119.665 15.2762 120.141 15.9001V13.9298H122.973V27.5H120.141V25.4805C119.665 26.1208 119.016 26.6544 118.195 27.0813C117.374 27.5082 116.439 27.7217 115.388 27.7217C114.222 27.7217 113.155 27.4261 112.186 26.835C111.217 26.2275 110.446 25.3902 109.871 24.323C109.313 23.2393 109.034 22.0161 109.034 20.6533ZM120.141 20.7026C120.141 19.7667 119.944 18.954 119.55 18.2644C119.172 17.5748 118.672 17.0494 118.048 16.6882C117.424 16.327 116.751 16.1464 116.028 16.1464C115.306 16.1464 114.633 16.327 114.009 16.6882C113.385 17.033 112.876 17.5502 112.482 18.2398C112.104 18.9129 111.915 19.7175 111.915 20.6533C111.915 21.5892 112.104 22.4102 112.482 23.1162C112.876 23.8222 113.385 24.364 114.009 24.7416C114.649 25.1028 115.322 25.2835 116.028 25.2835C116.751 25.2835 117.424 25.1028 118.048 24.7416C118.672 24.3804 119.172 23.855 119.55 23.1654C119.944 22.4594 120.141 21.6385 120.141 20.7026ZM125.725 20.7026C125.725 19.307 126.004 18.0838 126.562 17.033C127.137 15.9658 127.925 15.1448 128.927 14.5702C129.928 13.9955 131.078 13.7082 132.375 13.7082C134.017 13.7082 135.371 14.1022 136.438 14.8903C137.522 15.662 138.253 16.7703 138.63 18.2151H135.601C135.355 17.542 134.961 17.0166 134.419 16.6389C133.877 16.2613 133.196 16.0725 132.375 16.0725C131.225 16.0725 130.306 16.483 129.616 17.3039C128.943 18.1084 128.607 19.2413 128.607 20.7026C128.607 22.1639 128.943 23.305 129.616 24.1259C130.306 24.9469 131.225 25.3573 132.375 25.3573C134 25.3573 135.076 24.6431 135.601 23.2147H138.63C138.236 24.5939 137.497 25.6939 136.414 26.5149C135.33 27.3194 133.984 27.7217 132.375 27.7217C131.078 27.7217 129.928 27.4343 128.927 26.8597C127.925 26.2686 127.137 25.4476 126.562 24.3968C126.004 23.3296 125.725 22.0982 125.725 20.7026ZM153.866 20.3824C153.866 20.8914 153.833 21.3511 153.767 21.7616H143.399C143.481 22.8453 143.883 23.7155 144.605 24.3722C145.328 25.029 146.214 25.3573 147.265 25.3573C148.776 25.3573 149.843 24.7252 150.467 23.461H153.496C153.086 24.7088 152.339 25.735 151.255 26.5395C150.188 27.3276 148.858 27.7217 147.265 27.7217C145.968 27.7217 144.802 27.4343 143.768 26.8597C142.75 26.2686 141.946 25.4476 141.354 24.3968C140.78 23.3296 140.492 22.0982 140.492 20.7026C140.492 19.307 140.772 18.0838 141.33 17.033C141.904 15.9658 142.701 15.1448 143.719 14.5702C144.753 13.9955 145.935 13.7082 147.265 13.7082C148.546 13.7082 149.687 13.9873 150.689 14.5455C151.69 15.1038 152.47 15.8919 153.028 16.9098C153.587 17.9114 153.866 19.0689 153.866 20.3824ZM150.935 19.4958C150.918 18.4614 150.549 17.6323 149.827 17.0084C149.104 16.3844 148.209 16.0725 147.142 16.0725C146.173 16.0725 145.344 16.3844 144.655 17.0084C143.965 17.6159 143.555 18.445 143.423 19.4958H150.935Z" fill="#24B0C4"/>
<defs>
<clipPath id="clip0_3609_270">
<rect width="32.5445" height="25.5079" fill="white" transform="translate(12.3301 7.97632)"/>
</clipPath>
</defs>
</svg>
