<svg width="18" height="18" viewBox="0 0 18 18" fill="none" xmlns="http://www.w3.org/2000/svg">
<g clip-path="url(#clip0_823_10892)">
<path d="M14.1426 11.5713L16.714 10.9285L17.3569 13.4999" stroke="white" stroke-width="1.71429" stroke-linecap="round" stroke-linejoin="round"/>
<path d="M16.714 10.9286C16.1429 12.5468 15.1056 13.9597 13.7328 14.9894C12.36 16.019 10.7131 16.6192 8.99972 16.7143C7.41587 16.7146 5.87031 16.2273 4.57299 15.3187C3.27566 14.4101 2.28944 13.1243 1.74829 11.6357M3.85686 6.42857L1.28544 7.07143L0.642578 4.5" stroke="white" stroke-width="1.71429" stroke-linecap="round" stroke-linejoin="round"/>
<path d="M1.28516 7.07136C2.36516 4.11422 5.6823 1.28564 8.99944 1.28564C10.591 1.29012 12.1422 1.78676 13.4405 2.70749C14.7387 3.62821 15.7204 4.92795 16.2509 6.4285" stroke="white" stroke-width="1.71429" stroke-linecap="round" stroke-linejoin="round"/>
</g>
<defs>
<clipPath id="clip0_823_10892">
<rect width="18" height="18" fill="white"/>
</clipPath>
</defs>
</svg>
