<svg width="14" height="14" viewBox="0 0 14 14" fill="none" xmlns="http://www.w3.org/2000/svg">
<path d="M10.2596 9.02847L9.84868 8.64145C9.61712 8.40989 9.60627 8.04127 9.80248 7.77909C10.5304 6.80638 10.838 5.86873 10.596 4.42421C10.2103 2.1426 8.30623 0.320596 6.00821 0.0415496C2.53655 -0.385226 -0.385226 2.53655 0.0415496 6.00821C0.320596 8.30623 2.1426 10.2103 4.42421 10.596C5.86807 10.8379 6.78761 10.5486 7.75507 9.82616C8.01746 9.63022 8.38604 9.64098 8.61759 9.87253L9.02847 10.2596L12.5247 13.7476C12.8612 14.0841 13.4029 14.0841 13.7394 13.7476L13.7476 13.7394C14.0841 13.4029 14.0841 12.8612 13.7476 12.5247L10.2596 9.02847ZM5.33521 9.02847C3.29161 9.02847 1.64196 7.37882 1.64196 5.33521C1.64196 3.29161 3.29161 1.64196 5.33521 1.64196C7.37882 1.64196 9.02847 3.29161 9.02847 5.33521C9.02847 7.37882 7.37882 9.02847 5.33521 9.02847Z" fill="#909090"/>
</svg>
