<svg width="22" height="23" viewBox="0 0 22 23" fill="none" xmlns="http://www.w3.org/2000/svg">
<path d="M19.8682 13.9431L18.4609 12.74C18.5275 12.3318 18.5619 11.915 18.5619 11.4982C18.5619 11.0814 18.5275 10.6646 18.4609 10.2564L19.8682 9.05323C19.9743 8.96237 20.0503 8.84135 20.086 8.70626C20.1217 8.57117 20.1154 8.42842 20.068 8.29698L20.0486 8.24112C19.6612 7.15837 19.0811 6.15463 18.3363 5.27842L18.2977 5.23331C18.2073 5.12707 18.0869 5.0507 17.9523 5.01427C17.8176 4.97783 17.6751 4.98304 17.5436 5.0292L15.7969 5.6501C15.1523 5.12159 14.4326 4.70479 13.6549 4.4126L13.3176 2.58643C13.2921 2.44902 13.2255 2.3226 13.1265 2.22398C13.0275 2.12536 12.9008 2.05919 12.7633 2.03428L12.7053 2.02354C11.5859 1.82158 10.4086 1.82158 9.28926 2.02354L9.23125 2.03428C9.09374 2.05919 8.96707 2.12536 8.86807 2.22398C8.76906 2.3226 8.7024 2.44902 8.67695 2.58643L8.3375 4.4212C7.56597 4.71344 6.84749 5.13002 6.21055 5.6544L4.45098 5.0292C4.31942 4.98267 4.17682 4.97728 4.04212 5.01373C3.90742 5.05019 3.78701 5.12677 3.69688 5.23331L3.65821 5.27842C2.9143 6.15525 2.33429 7.15882 1.9459 8.24112L1.92657 8.29698C1.82989 8.56554 1.90938 8.86632 2.12637 9.05323L3.55078 10.2693C3.48418 10.6732 3.45196 11.0857 3.45196 11.496C3.45196 11.9085 3.48418 12.321 3.55078 12.7228L2.12637 13.9388C2.02023 14.0297 1.94426 14.1507 1.90857 14.2858C1.87288 14.4209 1.87916 14.5636 1.92657 14.695L1.9459 14.7509C2.33477 15.8337 2.91055 16.8327 3.65821 17.7136L3.69688 17.7587C3.78723 17.865 3.90765 17.9413 4.04227 17.9778C4.17688 18.0142 4.31938 18.009 4.45098 17.9628L6.21055 17.3376C6.85078 17.864 7.56621 18.2808 8.3375 18.5708L8.67695 20.4056C8.7024 20.543 8.76906 20.6694 8.86807 20.768C8.96707 20.8667 9.09374 20.9328 9.23125 20.9577L9.28926 20.9685C10.4189 21.1715 11.5757 21.1715 12.7053 20.9685L12.7633 20.9577C12.9008 20.9328 13.0275 20.8667 13.1265 20.768C13.2255 20.6694 13.2921 20.543 13.3176 20.4056L13.6549 18.5794C14.4323 18.288 15.1561 17.8698 15.7969 17.3419L17.5436 17.9628C17.6751 18.0093 17.8177 18.0147 17.9524 17.9783C18.0871 17.9418 18.2075 17.8652 18.2977 17.7587L18.3363 17.7136C19.084 16.8306 19.6598 15.8337 20.0486 14.7509L20.068 14.695C20.1646 14.4308 20.0852 14.13 19.8682 13.9431ZM16.9355 10.5099C16.9893 10.8343 17.0172 11.1673 17.0172 11.5003C17.0172 11.8333 16.9893 12.1663 16.9355 12.4907L16.7937 13.3523L18.3986 14.7251C18.1553 15.2856 17.8482 15.8162 17.4834 16.3064L15.4896 15.5995L14.815 16.1538C14.3016 16.5749 13.7301 16.9058 13.1113 17.1378L12.2928 17.445L11.9082 19.529C11.3014 19.5978 10.6888 19.5978 10.082 19.529L9.69746 17.4407L8.88535 17.1292C8.27305 16.8972 7.70371 16.5663 7.19453 16.1474L6.51992 15.5909L4.51328 16.3042C4.14805 15.8122 3.84297 15.2816 3.59805 14.723L5.22012 13.3372L5.08047 12.4778C5.02891 12.1577 5.00098 11.8269 5.00098 11.5003C5.00098 11.1716 5.02676 10.8429 5.08047 10.5228L5.22012 9.66339L3.59805 8.27765C3.84082 7.7169 4.14805 7.18839 4.51328 6.69639L6.51992 7.40968L7.19453 6.85323C7.70371 6.43429 8.27305 6.10343 8.88535 5.87139L9.69961 5.56417L10.0842 3.47588C10.6879 3.40713 11.3045 3.40713 11.9104 3.47588L12.2949 5.55987L13.1135 5.8671C13.7301 6.09913 14.3037 6.42999 14.8172 6.85108L15.4918 7.40538L17.4855 6.69854C17.8508 7.19054 18.1559 7.7212 18.4008 8.2798L16.7959 9.65265L16.9355 10.5099ZM10.9994 7.50421C8.91113 7.50421 7.21817 9.19718 7.21817 11.2855C7.21817 13.3737 8.91113 15.0667 10.9994 15.0667C13.0877 15.0667 14.7807 13.3737 14.7807 11.2855C14.7807 9.19718 13.0877 7.50421 10.9994 7.50421ZM12.701 12.987C12.4778 13.2108 12.2126 13.3883 11.9206 13.5093C11.6285 13.6302 11.3155 13.6922 10.9994 13.6917C10.357 13.6917 9.75332 13.4404 9.29785 12.987C9.07404 12.7639 8.89655 12.4986 8.77562 12.2066C8.65468 11.9146 8.59267 11.6015 8.59317 11.2855C8.59317 10.6431 8.84453 10.0394 9.29785 9.5839C9.75332 9.12843 10.357 8.87921 10.9994 8.87921C11.6418 8.87921 12.2455 9.12843 12.701 9.5839C12.9248 9.80708 13.1023 10.0723 13.2232 10.3643C13.3442 10.6563 13.4062 10.9694 13.4057 11.2855C13.4057 11.9278 13.1543 12.5316 12.701 12.987Z" fill="#909090"/>
</svg>
