<svg width="20" height="20" viewBox="0 0 20 20" fill="none" xmlns="http://www.w3.org/2000/svg">
<g clip-path="url(#clip0_845_448)">
<path d="M18.9005 9.04291C19.1374 9.30541 19.2685 9.64645 19.2685 10.0001C19.2685 10.3537 19.1374 10.6947 18.9005 10.9572C17.4005 12.5715 13.9862 15.7143 10.0005 15.7143C6.01476 15.7143 2.60048 12.5715 1.10048 10.9572C0.863563 10.6947 0.732422 10.3537 0.732422 10.0001C0.732422 9.64645 0.863563 9.30541 1.10048 9.04291C2.60048 7.42862 6.01476 4.28577 10.0005 4.28577C13.9862 4.28577 17.4005 7.42862 18.9005 9.04291Z" stroke="#909090" stroke-width="1.57" stroke-linecap="round" stroke-linejoin="round"/>
<path d="M10.0007 12.8572C11.5787 12.8572 12.8578 11.578 12.8578 10.0001C12.8578 8.42213 11.5787 7.14294 10.0007 7.14294C8.42274 7.14294 7.14355 8.42213 7.14355 10.0001C7.14355 11.578 8.42274 12.8572 10.0007 12.8572Z" stroke="#909090" stroke-width="1.57" stroke-linecap="round" stroke-linejoin="round"/>
</g>
<defs>
<clipPath id="clip0_845_448">
<rect width="20" height="20" fill="white"/>
</clipPath>
</defs>
</svg>
